<?xml version="1.0" encoding="UTF-8"?>
<svg version="1.1" xmlns="http://www.w3.org/2000/svg" width="512" height="512">
<path d="M0 0 C7.8552914 4.37079583 13.93636078 11.10523848 18.21484375 18.96875 C18.21484375 19.62875 18.21484375 20.28875 18.21484375 20.96875 C18.83713867 20.69724121 19.45943359 20.42573242 20.10058594 20.14599609 C37.22293829 12.72212112 54.10245281 6.48763069 72.40234375 2.71875 C73.50400879 2.49179443 73.50400879 2.49179443 74.62792969 2.26025391 C90.49153464 -0.77986961 106.16308256 -1.40376647 122.27734375 -1.34375 C123.83730072 -1.34051727 123.83730072 -1.34051727 125.42877197 -1.33721924 C140.54149566 -1.28693167 155.35137148 -1.03416244 170.21484375 1.96875 C171.2198291 2.16742676 172.22481445 2.36610352 173.26025391 2.57080078 C188.14150906 5.60895274 202.26494368 9.97139139 216.21484375 15.96875 C218.03435547 16.72478516 218.03435547 16.72478516 219.890625 17.49609375 C222.66132832 18.79340101 224.94605014 19.9179191 227.21484375 21.96875 C227.86591296 24.19253186 228.02637189 26.27068549 228.23828125 28.57421875 C229.78095102 32.35684502 232.77720828 33.9629041 236.15234375 36.09375 C236.78696533 36.49634033 237.42158691 36.89893066 238.07543945 37.3137207 C240.12579415 38.56946939 240.12579415 38.56946939 243.21484375 39.96875 C244.69984375 39.47375 244.69984375 39.47375 246.21484375 38.96875 C250.29773252 38.58240188 252.5114416 38.54265062 256.05859375 40.69140625 C256.93515625 41.46355469 257.81171875 42.23570313 258.71484375 43.03125 C260.13410156 44.27455078 260.13410156 44.27455078 261.58203125 45.54296875 C262.88527344 46.74373047 262.88527344 46.74373047 264.21484375 47.96875 C265.17777344 48.84466797 265.17777344 48.84466797 266.16015625 49.73828125 C296.03627264 78.29429017 312.38850789 119.2016948 320.21484375 158.96875 C320.4466333 160.13857422 320.4466333 160.13857422 320.68310547 161.33203125 C322.65815057 171.62270495 323.66257462 181.96373407 324.46484375 192.40625 C324.60345825 194.14769287 324.60345825 194.14769287 324.74487305 195.92431641 C325.19636092 202.46972084 325.13703925 208.71873656 324.48583984 215.24633789 C321.32160565 247.03406356 333.46535555 277.98472155 350.01733398 304.57226562 C362.09605119 324.25250059 367.36815651 347.32921447 363.15234375 370.21875 C359.38243585 385.36851944 351.02600492 397.88648272 337.921875 406.44140625 C327.53680496 412.30080363 316.84023425 414.17295797 305.21484375 415.96875 C303.89484375 422.56875 302.57484375 429.16875 301.21484375 435.96875 C303.85484375 436.29875 306.49484375 436.62875 309.21484375 436.96875 C317.99007389 439.86367128 325.33514862 445.82791001 329.8515625 453.890625 C334.54763583 464.06320792 335.97913081 474.39522504 333.4140625 485.40625 C329.27951998 496.31803232 321.98906913 503.66672755 311.6953125 508.91015625 C306.56677637 511.09887009 301.77095948 511.11476814 296.25010681 511.10919189 C294.87608172 511.11364858 294.87608172 511.11364858 293.47429854 511.1181953 C290.39813969 511.12688229 287.32201976 511.12839052 284.24584961 511.12988281 C282.04325782 511.13451082 279.84066683 511.13953546 277.63807678 511.14492798 C271.65070016 511.15805183 265.66333475 511.1644964 259.675946 511.16893864 C255.93842273 511.17186815 252.20090254 511.17597263 248.46338081 511.18044281 C236.77819981 511.19411498 225.09302525 511.20380011 213.40783685 511.2076447 C212.06347652 511.20808817 210.71911619 511.20853473 209.37475586 511.20898438 C208.70790709 511.2092058 208.04105832 511.20942723 207.35400201 511.20965537 C196.53775318 511.21360725 185.72157156 511.23107514 174.90534871 511.2543439 C163.8028352 511.27803614 152.7003497 511.2902605 141.59780985 511.29168582 C135.36305366 511.29273634 129.12839237 511.29869687 122.89365959 511.31650543 C117.03402785 511.3329176 111.17456307 511.33517513 105.31491661 511.32636642 C103.16017969 511.32559248 101.00543404 511.32998547 98.85071945 511.33982468 C95.91780985 511.35243603 92.98550144 511.34672671 90.05259705 511.33624268 C89.19249163 511.34429908 88.33238622 511.35235548 87.446217 511.36065602 C81.64603789 511.31188987 81.64603789 511.31188987 79.53632742 509.63300395 C78.21484375 507.96875 78.21484375 507.96875 77.21484375 504.96875 C70.94484375 504.63875 64.67484375 504.30875 58.21484375 503.96875 C57.88484375 505.61875 57.55484375 507.26875 57.21484375 508.96875 C54.04099046 511.08465219 53.26390209 511.22128364 49.63145447 511.23617554 C48.69098267 511.24470551 47.75051086 511.25323547 46.78153992 511.26202393 C45.75140274 511.26111755 44.72126556 511.26021118 43.65991211 511.25927734 C42.57338348 511.26599457 41.48685486 511.27271179 40.36740112 511.27963257 C36.7631171 511.29868144 33.15901878 511.30254093 29.5546875 511.3046875 C27.04944278 511.31111303 24.54419882 511.31784121 22.03895569 511.32485962 C16.77896928 511.3368513 11.51903 511.3406243 6.2590332 511.33935547 C0.19863085 511.33815736 -5.86141345 511.35919068 -11.92172533 511.3908428 C-17.76671894 511.42027225 -23.61157243 511.42732799 -29.45663261 511.42613602 C-31.93524062 511.42849052 -34.41385149 511.43730547 -36.89241219 511.45280075 C-40.37005947 511.47249728 -43.84679956 511.4666063 -47.32446289 511.45458984 C-48.34043045 511.46582886 -49.35639801 511.47706787 -50.40315247 511.48864746 C-61.6983903 511.38996547 -70.40668677 507.11097987 -78.47265625 499.34375 C-86.59689022 490.56957731 -88.2639163 480.57683886 -88.0703125 469.03125 C-87.6068338 458.96980288 -81.91881673 450.48474224 -74.8359375 443.64453125 C-68.50085987 438.46786781 -62.91781588 436.98533245 -54.78515625 435.96875 C-56.76515625 426.06875 -56.76515625 426.06875 -58.78515625 415.96875 C-61.32203125 415.576875 -63.85890625 415.185 -66.47265625 414.78125 C-78.67869654 412.70200609 -89.09609408 408.8539974 -98.78515625 400.96875 C-99.4090625 400.46988281 -100.03296875 399.97101563 -100.67578125 399.45703125 C-109.2733915 391.76952839 -114.67390281 380.13571034 -116.78515625 368.96875 C-116.96691406 368.04835938 -117.14867188 367.12796875 -117.3359375 366.1796875 C-120.87019148 340.91745469 -112.33760121 319.72605302 -100.06542969 298.21533203 C-87.63920451 276.41019776 -77.52850443 252.75920222 -77.66015625 227.21875 C-77.65628906 226.48398438 -77.65242188 225.74921875 -77.6484375 224.9921875 C-77.65567947 220.80632683 -77.8804263 216.70794057 -78.3046875 212.54296875 C-82.02003559 174.13990135 -70.93735316 131.92900624 -54.03515625 97.671875 C-52.64524842 95.16255786 -52.64524842 95.16255786 -52.78515625 92.96875 C-54.43834477 91.61874138 -56.10735597 90.28804594 -57.78515625 88.96875 C-68.16698439 77.73194778 -76.6335454 64.27091517 -76.05859375 48.5703125 C-75.28066522 41.16887816 -72.63280754 37.23519721 -67.015625 32.4140625 C-62.17323336 29.27626056 -57.59543484 28.69342582 -51.91015625 28.71875 C-50.75773437 28.71359375 -49.6053125 28.7084375 -48.41796875 28.703125 C-44.30709283 29.00370517 -40.75187729 29.8702734 -36.78515625 30.96875 C-36.48222656 29.9065625 -36.17929688 28.844375 -35.8671875 27.75 C-32.55209729 16.44260157 -29.20509566 7.34820607 -19.28515625 0.15625 C-12.96303269 -1.98875621 -6.32697862 -2.3426681 0 0 Z " fill="#020101" transform="translate(132.78515625,1.03125)"/>
<path d="M0 0 C1.84211186 -0.00807831 1.84211186 -0.00807831 3.72143811 -0.01631981 C7.1183608 -0.02813049 10.51479144 -0.02653785 13.91169441 -0.019153 C17.57984995 -0.01441724 21.2479532 -0.02693488 24.91609192 -0.03717041 C32.09811527 -0.05435662 39.28005112 -0.05519868 46.4620897 -0.04995751 C52.3013772 -0.04591372 58.14063888 -0.04736185 63.97992516 -0.05270576 C64.81147323 -0.05345419 65.64302131 -0.05420261 66.49976781 -0.05497371 C68.18915676 -0.05650522 69.87854571 -0.05804356 71.56793465 -0.05958868 C87.40733278 -0.07331344 103.24668149 -0.06787653 119.08607849 -0.05640347 C133.56717952 -0.04647431 148.04815272 -0.05940628 162.52923403 -0.08333766 C177.40726049 -0.10773925 192.28522744 -0.11733372 207.16327351 -0.11068493 C215.51257652 -0.10719465 223.86178126 -0.10941195 232.21106911 -0.12693596 C239.31979342 -0.14167134 246.4283503 -0.14227614 253.53707138 -0.12486505 C257.16166569 -0.11636299 260.78596105 -0.11418562 264.41053963 -0.1295166 C268.34578553 -0.14595501 272.28057214 -0.13119251 276.21582031 -0.11352539 C277.3530925 -0.1231304 278.49036468 -0.1327354 279.66209966 -0.14263147 C288.23848296 -0.06353039 294.85647439 1.81027656 302.04838562 6.51268005 C310.189784 15.02414199 312.20073149 22.80055756 312.04399109 34.15330505 C311.74970174 43.02713349 309.9961069 51.68236613 308.36088562 60.38768005 C308.00048653 62.3649736 307.64146916 64.34251942 307.28373718 66.32029724 C306.52698384 70.49448132 305.76178363 74.66700972 304.99223328 78.83885193 C303.75091764 85.60262818 302.57547187 92.37717001 301.40385437 99.15330505 C300.81208303 102.54659257 300.21884093 105.93961844 299.62477112 109.33250427 C299.24367363 111.51783716 298.86563019 113.70370506 298.49079895 115.89012146 C297.96308744 118.95894054 297.42141059 122.02499773 296.87651062 125.09080505 C296.72566513 125.98688477 296.57481964 126.88296448 296.41940308 127.80619812 C294.52106654 138.30399729 291.39541943 146.75203533 282.79838562 153.38768005 C273.3681509 158.87865949 264.15558199 159.09201113 253.60282898 158.99949646 C251.90150877 159.00304437 250.20019199 159.00882969 248.49888611 159.0166626 C244.85990453 159.02876888 241.22139322 159.02546142 237.58242607 159.00983047 C231.82986239 158.98539306 226.07770575 158.99705493 220.32513428 159.01350403 C210.20104724 159.03791726 200.07714807 159.03221946 189.95304871 159.0196991 C174.68044853 159.00105348 159.40788229 159.0059186 144.13530833 159.03973329 C138.41414159 159.05125773 132.6932732 159.04679643 126.97212303 159.02971292 C123.42326472 159.0218349 119.87449401 159.02605308 116.32563782 159.03342247 C114.67723575 159.03423486 113.02882197 159.02985597 111.3804493 159.01997948 C109.13542718 159.00717484 106.89116772 159.01260298 104.64614868 159.02259827 C103.38873839 159.02071314 102.13132811 159.01882801 100.83581448 159.01688576 C97.84604786 159.14585153 97.84604786 159.14585153 95.93290043 160.66049767 C94.50464515 162.62791081 94.50464515 162.62791081 93.79838562 166.38768005 C87.19838562 166.38768005 80.59838562 166.38768005 73.79838562 166.38768005 C72.80838562 164.40768005 71.81838562 162.42768005 70.79838562 160.38768005 C68.09012027 159.03354738 65.96313592 159.25553493 62.93095398 159.24583435 C61.69884689 159.2387999 60.46673981 159.23176544 59.19729614 159.22451782 C58.53642942 159.22270193 57.87556271 159.22088604 57.19466972 159.21901512 C55.12103087 159.21183929 53.04762725 159.19616105 50.97406006 159.17767334 C45.07740164 159.12528222 39.18086705 159.07731481 33.28398132 159.06175232 C29.67633838 159.05160766 26.06928074 159.02211394 22.46187019 158.98043251 C21.09334832 158.96820099 19.72474344 158.96298678 18.35616875 158.96523094 C6.96657725 158.97930064 -1.03308785 157.19891286 -9.41645813 149.2822113 C-18.82636283 139.29576977 -19.35115711 125.08834633 -21.50630188 112.0634613 C-21.71215912 110.83773911 -21.91801636 109.61201691 -22.13011169 108.34915161 C-22.78192097 104.46665226 -23.42967846 100.58349418 -24.07661438 96.70018005 C-24.92537576 91.61246737 -25.77682287 86.52521688 -26.63130188 81.4384613 C-26.84060837 80.18928925 -27.04991486 78.94011719 -27.26556396 77.65309143 C-28.92122856 67.85189015 -30.71343473 58.07929858 -32.62406921 48.32452393 C-34.92548709 36.29477016 -37.17147979 23.50252647 -30.10786438 12.6572113 C-21.62512679 2.55788642 -12.72217417 -0.06683849 0 0 Z " fill="#EEECFE" transform="translate(117.20161437988281,338.61231994628906)"/>
<path d="M0 0 C1.12112183 -0.02779541 1.12112183 -0.02779541 2.26489258 -0.05615234 C8.27345354 0.01079175 12.70302946 1.77723644 18 4.5 C18.70962891 4.85481445 19.41925781 5.20962891 20.15039062 5.57519531 C21.59485823 6.29742911 23.03828282 7.02175229 24.48071289 7.74804688 C32.16095453 11.56213998 39.81268554 14.64100859 48.0625 17 C48.90586914 17.24282715 49.74923828 17.4856543 50.61816406 17.73583984 C77.38953212 24.97433696 107.51906932 20.79775908 132.375 9.0625 C136.62962119 7.22861155 136.62962119 7.22861155 140 8.5 C142.27458922 9.69730262 144.51198823 10.92594837 146.75 12.1875 C157.61125106 18.10422255 168.78779273 22.09542891 180.75 25.1875 C181.47405029 25.37787842 182.19810059 25.56825684 182.9440918 25.7644043 C199.39181777 29.78472576 215.87794821 30.9773176 232.75 31.1875 C234.63413622 31.22080298 236.51825165 31.25530365 238.40234375 31.29101562 C242.934777 31.3743964 247.46717542 31.44187863 252 31.5 C252.6520027 34.31119304 253.29670121 37.12375031 253.9375 39.9375 C254.11990234 40.72060547 254.30230469 41.50371094 254.49023438 42.31054688 C262.7288578 78.71028312 255.06035838 116.1337692 236.03125 147.7734375 C227.63156102 160.73962406 217.35409031 172.06131399 206 182.5 C205.29407463 183.18257874 204.58814926 183.86515747 203.86083221 184.56842041 C200.32826391 186.95354345 197.54375426 187.08215295 193.42492676 187.06176758 C192.67028625 187.07365207 191.91564574 187.08553656 191.13813734 187.09778118 C188.61339516 187.13242369 186.08941394 187.13855225 183.56445312 187.14453125 C181.75230295 187.16305234 179.94016833 187.18315213 178.12805176 187.20471191 C173.20615018 187.25715109 168.28446672 187.28297784 163.36232948 187.30075455 C160.28351043 187.31249138 157.20475052 187.32891349 154.1259613 187.34677124 C144.48253681 187.4014663 134.83924803 187.44013073 125.19567919 187.4555788 C114.08356181 187.47347923 102.9734182 187.5435613 91.86190081 187.65958118 C83.26120289 187.74624839 74.66105806 187.78640656 66.05992842 187.79174328 C60.92854853 187.79592322 55.79902403 187.81927341 50.66810608 187.89102173 C45.8342923 187.95729894 41.0037097 187.96541029 36.16960144 187.9304657 C34.40438126 187.92740182 32.63898126 187.94452583 30.87420654 187.98429871 C22.48642665 188.16210968 15.94218849 188.06122705 9.38054991 182.36995983 C7.27960292 180.33952365 5.3040709 178.23294115 3.37994289 176.03490257 C1.16797311 173.57454126 -1.26455578 171.3764912 -3.6875 169.125 C-19.84247933 152.73555072 -30.15174548 131.63429049 -36.75 109.8125 C-36.94883789 109.16031494 -37.14767578 108.50812988 -37.35253906 107.83618164 C-40.69874048 96.24070408 -41.43960457 84.68452493 -41.4375 72.6875 C-41.43889984 71.92153503 -41.44029968 71.15557007 -41.44174194 70.36639404 C-41.42163461 56.9287495 -39.97701937 44.39761785 -36 31.5 C-35.79181641 30.81276855 -35.58363281 30.12553711 -35.36914062 29.41748047 C-31.65981685 17.60826603 -25.11195056 8.22732981 -14.1875 2.125 C-9.53899961 0.22079502 -4.95962146 0.07618466 0 0 Z " fill="#FEDCCE" transform="translate(148,137.5)"/>
<path d="M0 0 C7.1085579 2.23013581 10.30658684 7.13434866 13.86328125 13.3515625 C15.7444307 17.11386141 17.07241827 20.95049268 18.1875 25 C25.31956107 26.60189634 28.67675155 25.25561499 34.8125 21.5625 C76.18794709 -1.65340491 129.62057233 -5.65356383 175.63867188 3.50048828 C177.85429158 3.93469881 180.06552694 4.31091386 182.296875 4.65234375 C190.14388031 5.9630335 197.48562112 8.29686985 205 10.875 C205.95543701 11.20274414 206.91087402 11.53048828 207.89526367 11.86816406 C213.52086955 13.86694667 218.79670404 16.1882681 224.0637207 19.00244141 C226.95506643 20.36053299 229.05542745 20.59658525 232.1875 20 C232.868125 19.46375 233.54875 18.9275 234.25 18.375 C234.889375 17.92125 235.52875 17.4675 236.1875 17 C240.44734648 18.2555337 243.85548581 20.6419244 247.5 23.125 C248.56863281 23.84945312 249.63726562 24.57390625 250.73828125 25.3203125 C251.54652344 25.87460937 252.35476563 26.42890625 253.1875 27 C252.878125 28.155 252.56875 29.31 252.25 30.5 C251.8932145 33.34423368 251.95667461 34.61070828 253.43359375 37.1015625 C256.77183467 40.95280703 260.53968566 44.21412333 264.44921875 47.46484375 C267.71112331 50.34558194 270.43603293 53.63832854 273.1875 57 C274.3321875 58.38832031 274.3321875 58.38832031 275.5 59.8046875 C296.95674729 86.41326268 315.05209535 125.33641009 315.1875 160 C312.43044985 159.08887184 309.67726412 158.17863997 306.94921875 157.18359375 C301.66160469 155.28164594 296.78948822 154.44460224 291.1875 154 C290.84976562 153.15695313 290.51203125 152.31390625 290.1640625 151.4453125 C289.71804688 150.34960938 289.27203125 149.25390625 288.8125 148.125 C288.37164062 147.03445312 287.93078125 145.94390625 287.4765625 144.8203125 C286.35698662 141.93670638 286.35698662 141.93670638 284.1875 140 C282.26526205 139.69775914 282.26526205 139.69775914 280.04272461 139.74462891 C279.18170639 139.73747864 278.32068817 139.73032837 277.43357849 139.72296143 C276.02592979 139.72474396 276.02592979 139.72474396 274.58984375 139.7265625 C272.58267441 139.70973699 270.57551288 139.69195921 268.56835938 139.67333984 C266.98897583 139.66279572 266.98897583 139.66279572 265.37768555 139.65203857 C247.38682078 139.50248605 229.74830341 139.31562932 212.1875 135 C211.22102539 134.76539063 210.25455078 134.53078125 209.25878906 134.2890625 C194.15619749 130.47532639 179.71013761 124.8151076 166.97265625 115.69921875 C163.86260528 113.80178232 162.7382482 113.33927076 159.1875 114 C156.67061992 115.15655949 154.2958589 116.35869114 151.875 117.6875 C128.7101593 129.80589538 102.49792891 132.32760723 77.1875 126 C76.176875 125.76796875 75.16625 125.5359375 74.125 125.296875 C65.38480809 122.97526152 57.46315081 118.93058895 49.40795898 114.88476562 C40.98763636 110.70007696 33.75394843 108.61671694 24.3125 108.6875 C23.12515259 108.69595947 23.12515259 108.69595947 21.91381836 108.70458984 C15.91190118 108.8290266 10.70799599 109.51295061 5.1875 112 C3.83785156 112.60328125 3.83785156 112.60328125 2.4609375 113.21875 C-10.71215743 119.75086319 -17.47187088 129.711768 -22.8125 143 C-24.02971933 146.63531948 -25.04852704 150.24379963 -25.8125 154 C-26.46734375 154.01417969 -27.1221875 154.02835938 -27.796875 154.04296875 C-34.71102841 154.40430163 -40.09600001 156.05731535 -46.37890625 158.94140625 C-48.8125 160 -48.8125 160 -50.8125 160 C-51.13531163 152.61376243 -49.98480214 146.21263678 -48.1875 139.0625 C-47.91534668 137.96220459 -47.64319336 136.86190918 -47.36279297 135.72827148 C-42.90412716 118.07992138 -37.12351774 100.49696201 -27.8125 84.75 C-25.84011222 81.37443703 -25.24499414 78.972541 -25.8125 75 C-26.44488301 71.93178828 -26.44488301 71.93178828 -28.54296875 71.12109375 C-29.66638672 70.56615234 -29.66638672 70.56615234 -30.8125 70 C-39.85989251 62.1441477 -49.74520982 51.98230232 -51.078125 39.515625 C-51.07296875 38.76796875 -51.0678125 38.0203125 -51.0625 37.25 C-51.07023437 36.11304687 -51.07023437 36.11304687 -51.078125 34.953125 C-50.8125 33 -50.8125 33 -48.8125 31 C-40.25036949 29.76943661 -33.53437787 31.55132351 -25.703125 34.87109375 C-21.98615577 36.32272092 -19.71960304 36.7644332 -15.8125 36 C-11.86119336 32.43812502 -12.24132166 27.83598061 -11.9375 22.875 C-11.25699404 14.56732029 -9.86153343 7.77359731 -4.328125 1.25 C-2.8125 0 -2.8125 0 0 0 Z " fill="#CD8479" transform="translate(123.8125,15)"/>
<path d="M0 0 C1.53125 1.0703125 1.53125 1.0703125 3.53125 3.0703125 C3.07234375 3.73675781 2.6134375 4.40320313 2.140625 5.08984375 C-14.34283602 29.84966439 -17.12014334 65.40967486 -11.46875 94.0703125 C-11.04464844 93.67199219 -10.62054688 93.27367187 -10.18359375 92.86328125 C-5.20700567 88.36794564 -0.95370784 85.26040111 5.96875 84.8828125 C7.2371875 84.975625 7.2371875 84.975625 8.53125 85.0703125 C8.47324219 84.5134375 8.41523438 83.9565625 8.35546875 83.3828125 C7.97390841 76.92899189 9.39100511 73.0213103 13.53125 68.0703125 C18.0454514 63.52147529 22.24546942 60.78872203 28.71875 60.6953125 C34.34371143 60.83031157 38.88432117 61.80392757 43.53125 65.0703125 C48.03306795 69.86593331 50.67582155 73.89217724 50.78125 80.5078125 C50.80703125 81.47589844 50.8328125 82.44398438 50.859375 83.44140625 C50.53125 86.0703125 50.53125 86.0703125 49.265625 87.89453125 C47.18842864 89.30272067 46.02490004 89.47364943 43.53125 89.4453125 C42.5103125 89.45691406 42.5103125 89.45691406 41.46875 89.46875 C38.9167013 88.94393353 38.08516246 88.14677959 36.53125 86.0703125 C35.80078125 83.80859375 35.80078125 83.80859375 35.34375 81.3828125 C35.18519531 80.57457031 35.02664062 79.76632813 34.86328125 78.93359375 C34.69892578 78.01126953 34.69892578 78.01126953 34.53125 77.0703125 C30.5211566 76.89166619 30.5211566 76.89166619 26.53125 77.0703125 C23.76901722 79.83254528 23.95268709 82.27737867 23.53125 86.0703125 C24.376875 86.2971875 25.2225 86.5240625 26.09375 86.7578125 C32.50178173 89.20451552 37.21514819 92.74031594 40.6484375 98.765625 C42.86385935 104.54924842 42.44547336 110.75095895 39.96875 116.3828125 C36.4107767 122.46620041 30.79221808 126.71100555 24.32421875 129.3828125 C15.8477926 131.4693174 6.75787333 130.7412941 -1.46875 128.0703125 C7.06920035 145.74497855 17.0473351 160.70600454 30.53125 175.0703125 C31.27388092 176.09432159 32.01651184 177.11833069 32.78164673 178.17337036 C36.82017995 182.15142944 41.2464617 181.80820433 46.67004395 181.8802948 C48.04614745 181.86850561 49.42224612 181.85614213 50.79833984 181.84326172 C52.25735099 181.85143764 53.71634941 181.86224302 55.17532349 181.87547302 C59.12551984 181.9038703 63.0748812 181.89557046 67.0251193 181.88060522 C71.15718473 181.8712171 75.28904748 181.89568326 79.42105103 181.91653442 C87.24077418 181.95086318 95.06020485 181.95481386 102.87998831 181.94780934 C111.78452079 181.94131533 120.68884805 181.96874941 129.59331965 181.99901175 C147.90599028 182.06048941 166.21848529 182.07943055 184.53125 182.0703125 C184.53125 182.4003125 184.53125 182.7303125 184.53125 183.0703125 C160.50473584 183.35107164 136.47846875 183.56245744 112.45064259 183.69205856 C101.29311485 183.75384409 90.13660838 183.83802399 78.97973633 183.97558594 C69.25132707 184.09547769 59.52365763 184.17267751 49.79453009 184.19937444 C44.64614873 184.2149727 39.49988311 184.25142511 34.35218239 184.33907318 C29.49811349 184.42104549 24.64701369 184.44555215 19.79231834 184.42760468 C18.01896345 184.4308835 16.24550065 184.45445646 14.4727478 184.5007782 C6.06585806 184.70951762 -0.51102758 184.65105062 -7.09356719 178.94456601 C-9.19411869 176.91361045 -11.16795703 174.80611503 -13.09008563 172.60623789 C-15.30025069 170.14396448 -17.73291656 167.94667636 -20.15625 165.6953125 C-36.31122933 149.30586322 -46.62049548 128.20460299 -53.21875 106.3828125 C-53.41758789 105.73062744 -53.61642578 105.07844238 -53.82128906 104.40649414 C-57.16749048 92.81101658 -57.90835457 81.25483743 -57.90625 69.2578125 C-57.90764984 68.49184753 -57.90904968 67.72588257 -57.91049194 66.93670654 C-57.89038461 53.499062 -56.44576937 40.96793035 -52.46875 28.0703125 C-52.26056641 27.38308105 -52.05238281 26.69584961 -51.83789062 25.98779297 C-48.12856685 14.17857853 -41.58070056 4.79764231 -30.65625 -1.3046875 C-21.58697387 -5.01981266 -8.60981241 -4.6123995 0 0 Z " fill="#FCC9BC" transform="translate(164.46875,140.9296875)"/>
<path d="M0 0 C7.1085579 2.23013581 10.30658684 7.13434866 13.86328125 13.3515625 C15.7444307 17.11386141 17.07241827 20.95049268 18.1875 25 C25.45889337 26.67482493 29.08063097 25.0923803 35.375 21.375 C37.04130121 20.44388437 38.71059303 19.51810076 40.3828125 18.59765625 C41.19524414 18.14922363 42.00767578 17.70079102 42.84472656 17.23876953 C47.72005284 14.66088234 52.8610435 12.44788356 58.1875 11 C59.1775 11.495 59.1775 11.495 60.1875 12 C59.79820312 12.50144531 59.40890625 13.00289062 59.0078125 13.51953125 C39.9396007 39.30994676 31.24931331 70.49106294 26.58886719 101.74194336 C26.1875 104 26.1875 104 25.1875 107 C27.1675 107.495 27.1675 107.495 29.1875 108 C27.84558594 108.05607422 27.84558594 108.05607422 26.4765625 108.11328125 C11.35192201 108.93562311 -1.98647713 112.82651609 -12.67578125 124.1875 C-19.28229503 132.88345964 -23.64301123 143.33334686 -25.8125 154 C-26.46734375 154.01417969 -27.1221875 154.02835938 -27.796875 154.04296875 C-34.71102841 154.40430163 -40.09600001 156.05731535 -46.37890625 158.94140625 C-48.8125 160 -48.8125 160 -50.8125 160 C-51.13531163 152.61376243 -49.98480214 146.21263678 -48.1875 139.0625 C-47.91534668 137.96220459 -47.64319336 136.86190918 -47.36279297 135.72827148 C-42.90412716 118.07992138 -37.12351774 100.49696201 -27.8125 84.75 C-25.84011222 81.37443703 -25.24499414 78.972541 -25.8125 75 C-26.44488301 71.93178828 -26.44488301 71.93178828 -28.54296875 71.12109375 C-29.66638672 70.56615234 -29.66638672 70.56615234 -30.8125 70 C-39.85989251 62.1441477 -49.74520982 51.98230232 -51.078125 39.515625 C-51.07296875 38.76796875 -51.0678125 38.0203125 -51.0625 37.25 C-51.07023437 36.11304687 -51.07023437 36.11304687 -51.078125 34.953125 C-50.8125 33 -50.8125 33 -48.8125 31 C-40.25036949 29.76943661 -33.53437787 31.55132351 -25.703125 34.87109375 C-21.98615577 36.32272092 -19.71960304 36.7644332 -15.8125 36 C-11.86119336 32.43812502 -12.24132166 27.83598061 -11.9375 22.875 C-11.25699404 14.56732029 -9.86153343 7.77359731 -4.328125 1.25 C-2.8125 0 -2.8125 0 0 0 Z " fill="#BB7568" transform="translate(123.8125,15)"/>
<path d="M0 0 C2.12154353 1.05832195 4.23704324 2.12346827 6.33984375 3.21875 C13.45097988 6.72619759 20.13919042 8.16268006 28 9 C28.1544458 9.5261792 28.3088916 10.0523584 28.46801758 10.59448242 C36.02241052 35.84213059 48.2243457 56.47646769 65.53125 76.13671875 C68 79 68 79 70 82 C68.48817139 82.02187378 68.48817139 82.02187378 66.94580078 82.04418945 C63.16209613 82.10270505 59.37895394 82.17992807 55.59570312 82.26245117 C53.96656508 82.29545249 52.33731949 82.32355935 50.70800781 82.34643555 C35.01633437 82.57266519 21.93132379 84.85090741 9.921875 95.8515625 C1.80200273 104.92865549 -1.39170388 115.07734157 -1.3125 127 C-1.31056641 128.22807373 -1.31056641 128.22807373 -1.30859375 129.48095703 C-1.20136241 136.41748441 -0.15535452 142.91983658 1.34375 149.6796875 C1.91579624 152.57396909 2.13386777 155.06606473 2 158 C-8.56776422 158.79756711 -17.87810527 154.61442184 -26 148 C-33.33185494 141.40724334 -38.42195228 131.60072952 -39.17700195 121.67260742 C-39.70495297 99.55545631 -35.15372844 83.5936295 -23.5625 64.6875 C-11.76075745 45.36098843 -2.56986112 22.61477785 0 0 Z " fill="#CC8379" transform="translate(70,242)"/>
<path d="M0 0 C0.20753906 1.05574219 0.41507812 2.11148438 0.62890625 3.19921875 C5.67541104 27.87510134 14.81711096 50.36865068 28.03125 71.79296875 C38.39298265 88.67190229 41.86437944 107.24591311 38.3046875 126.82421875 C34.96762504 137.77483127 28.31303182 146.65049263 18.46484375 152.5078125 C11.72697089 155.90098588 5.49942345 156.85603201 -2 157 C-1.53342092 151.86763013 -0.810002 146.85417477 0.14477539 141.79345703 C2.89439421 127.1084677 3.11872404 114.27922377 -5.41015625 101.24609375 C-5.93480469 100.50488281 -6.45945312 99.76367188 -7 99 C-7.45246094 98.35160156 -7.90492188 97.70320313 -8.37109375 97.03515625 C-14.63584567 88.92469839 -25.06544061 83.94450567 -35 82 C-37.68831379 81.84947591 -40.35662755 81.74394884 -43.046875 81.68359375 C-43.81807678 81.66281265 -44.58927856 81.64203156 -45.3838501 81.62062073 C-47.83914572 81.55541428 -50.29454521 81.49637516 -52.75 81.4375 C-54.41797935 81.39428726 -56.08594832 81.3506721 -57.75390625 81.30664062 C-61.83583196 81.19976264 -65.91786182 81.09841434 -70 81 C-66.77619021 76.59399127 -63.54719517 72.37237973 -59.75 68.4375 C-44.16610816 51.2612842 -34.54815762 30.00669925 -28 8 C-27.20078125 7.92523438 -26.4015625 7.85046875 -25.578125 7.7734375 C-17.96549028 6.86206574 -12.15133383 4.99096185 -5.4609375 1.2421875 C-3 0 -3 0 0 0 Z " fill="#CC8479" transform="translate(442,243)"/>
<path d="M0 0 C0.74476089 0.00424484 1.48952179 0.00848969 2.2568512 0.01286316 C4.61042098 0.02951151 6.96310004 0.067135 9.31640625 0.10546875 C10.92251358 0.1205336 12.52863448 0.13421884 14.13476562 0.14648438 C18.04981672 0.17936923 21.96421104 0.23105249 25.87890625 0.29296875 C25.47768555 0.7511499 25.07646484 1.20933105 24.66308594 1.68139648 C20.63360817 6.31863699 20.63360817 6.31863699 17.12890625 11.35546875 C16.7421875 11.96519531 16.35546875 12.57492187 15.95703125 13.203125 C8.2573392 28.12825271 13.99870357 48.04923531 16.87890625 63.60546875 C17.28934245 65.88045565 17.69841948 68.15568814 18.10620117 70.43115234 C18.94200421 75.08607767 19.78583224 79.73945357 20.63427734 84.39208984 C21.84006801 91.03520596 22.98519782 97.68772357 24.1171875 104.34375 C24.64104589 107.39627447 25.16606611 110.44859623 25.69165039 113.50082397 C26.02133989 115.42526763 26.34790633 117.35024928 26.67114258 119.27578735 C28.97488184 132.95551738 31.35657168 144.54968995 40.5078125 155.46484375 C41.29027344 156.398125 42.07273437 157.33140625 42.87890625 158.29296875 C38.34405761 158.39269476 33.80986305 158.4648353 29.27416992 158.51269531 C27.73499414 158.53266996 26.19589287 158.55985972 24.65698242 158.59472656 C12.53878619 158.86218432 3.78074908 157.79669707 -5.3359375 149.1875 C-14.7458422 139.20105847 -15.27063648 124.99363502 -17.42578125 111.96875 C-17.63163849 110.7430278 -17.83749573 109.5173056 -18.04959106 108.25444031 C-18.70140034 104.37194095 -19.34915783 100.48878288 -19.99609375 96.60546875 C-20.84485513 91.51775607 -21.69630224 86.43050557 -22.55078125 81.34375 C-22.76008774 80.09457794 -22.96939423 78.84540588 -23.18504333 77.55838013 C-24.84070793 67.75717885 -26.6329141 57.98458728 -28.54354858 48.22981262 C-30.84496646 36.20005886 -33.09095916 23.40781517 -26.02734375 12.5625 C-19.07871601 4.28964607 -10.8277456 -0.23694194 0 0 Z " fill="#D3D3FE" transform="translate(113.12109375,338.70703125)"/>
<path d="M0 0 C4.13345797 3.46915222 7.33733633 7.17587715 10.1875 11.75 C10.60128906 12.36875 11.01507813 12.9875 11.44140625 13.625 C16.09239805 21.92223972 15.24258122 32.92259777 13.59765625 42.0078125 C10.4237275 52.27554513 2.77305625 59.38610058 -6.35546875 64.59375 C-14.71379622 68.52708058 -24.82006842 69.70855563 -33.83642578 67.18310547 C-45.0962142 62.96534413 -52.83282144 55.83894283 -57.90234375 45.046875 C-61.21430595 36.68879014 -61.64330712 25.24577421 -58.56640625 16.734375 C-53.2758868 5.44467529 -45.4307926 -1.76810898 -33.8125 -6.25 C-21.70728275 -9.30568591 -10.06137863 -7.34027122 0 0 Z " fill="#030304" transform="translate(278.8125,391.25)"/>
<path d="M0 0 C4.66013854 3.37096087 8.40408074 7.51108339 10.625 12.875 C10.8203125 15.234375 10.8203125 15.234375 10.75 17.625 C10.73195313 18.42421875 10.71390625 19.2234375 10.6953125 20.046875 C10.67210937 20.65015625 10.64890625 21.2534375 10.625 21.875 C12.3575 21.99875 12.3575 21.99875 14.125 22.125 C22.11514752 23.18189782 27.19632692 26.71865454 32.21484375 32.9375 C35.34135966 37.23321161 36.20768133 41.14433525 36.05859375 46.40625 C35.04090335 52.20066738 31.84132227 56.95892817 27.43359375 60.76953125 C18.31611043 67.1101161 8.47700872 68.34148766 -2.375 66.875 C-9.82262685 64.58279502 -16.29808956 60.66496235 -20.375 53.875 C-22.87150116 48.5415657 -23.25049521 43.67714551 -22.375 37.875 C-19.38878427 30.33892015 -13.57503557 26.17717459 -6.375 22.875 C-5.715 22.875 -5.055 22.875 -4.375 22.875 C-4.70460216 17.85964948 -4.70460216 17.85964948 -7.375 13.875 C-10.06339385 13.60508094 -12.66641936 13.78762643 -15.375 13.875 C-15.48457031 14.48988281 -15.59414063 15.10476562 -15.70703125 15.73828125 C-15.86558594 16.54652344 -16.02414062 17.35476562 -16.1875 18.1875 C-16.33832031 18.98800781 -16.48914063 19.78851563 -16.64453125 20.61328125 C-17.47553955 23.18629626 -18.20247737 24.27979108 -20.375 25.875 C-22.3125 26.2734375 -22.3125 26.2734375 -24.375 26.25 C-25.055625 26.25773437 -25.73625 26.26546875 -26.4375 26.2734375 C-29.00555549 25.74532931 -29.8535979 25.00218834 -31.375 22.875 C-32.60816574 17.04375117 -31.93224066 11.97395963 -28.75 6.9375 C-22.1106836 -1.81574969 -10.0665755 -5.97104858 0 0 Z " fill="#FEA1AC" transform="translate(328.375,204.125)"/>
<path d="M0 0 C5.36566972 2.67801828 8.55137897 7.22775794 11.1875 12.5 C11.33466542 14.30843663 11.4085887 16.12331566 11.4375 17.9375 C11.46328125 18.90558594 11.4890625 19.87367188 11.515625 20.87109375 C11.1875 23.5 11.1875 23.5 9.921875 25.32421875 C7.84467864 26.73240817 6.68115004 26.90333693 4.1875 26.875 C3.506875 26.88273437 2.82625 26.89046875 2.125 26.8984375 C-0.4270487 26.37362103 -1.25858754 25.57646709 -2.8125 23.5 C-3.54296875 21.23828125 -3.54296875 21.23828125 -4 18.8125 C-4.15855469 18.00425781 -4.31710938 17.19601563 -4.48046875 16.36328125 C-4.59003906 15.74839844 -4.69960937 15.13351563 -4.8125 14.5 C-8.8225934 14.32135369 -8.8225934 14.32135369 -12.8125 14.5 C-15.57473278 17.26223278 -15.39106291 19.70706617 -15.8125 23.5 C-14.5440625 23.8403125 -14.5440625 23.8403125 -13.25 24.1875 C-6.84196827 26.63420302 -2.12860181 30.17000344 1.3046875 36.1953125 C3.52010935 41.97893592 3.10172336 48.18064645 0.625 53.8125 C-2.93115204 59.89277394 -8.55334332 64.15458671 -15.02734375 66.80859375 C-24.88695849 69.256212 -35.90054998 68.39833981 -44.765625 63.3984375 C-50.70476422 59.5305107 -54.1211437 54.40637157 -55.8125 47.5 C-56.47680954 41.52121411 -55.21270465 37.34791084 -51.8125 32.5 C-46.66810507 26.90923675 -41.15554838 22.73689355 -33.375 22.3125 C-32.1065625 22.4053125 -32.1065625 22.4053125 -30.8125 22.5 C-30.87050781 21.943125 -30.92851562 21.38625 -30.98828125 20.8125 C-31.36984159 14.35867939 -29.95274489 10.4509978 -25.8125 5.5 C-18.42181554 -1.94739048 -9.92485137 -3.80172273 0 0 Z " fill="#FEA1AB" transform="translate(203.8125,203.5)"/>
<path d="M0 0 C0.64783124 2.87456281 1.29332518 5.74961759 1.9375 8.625 C2.21110352 9.83736328 2.21110352 9.83736328 2.49023438 11.07421875 C3.45044563 15.36898181 4.33096919 19.64777849 5 24 C4.26523437 24.2578125 3.53046875 24.515625 2.7734375 24.78125 C-9.67487305 30.25149351 -16.00857668 43.87496598 -22.15673828 55.16650391 C-25.98248816 62.12730386 -30.22090628 68.65151929 -35 75 C-35.59554687 76.10085938 -36.19109375 77.20171875 -36.8046875 78.3359375 C-38.8529508 80.76187519 -40.00265785 81.00039151 -43.20874023 81.47265625 C-47.26093637 81.59213385 -51.26356262 81.52342214 -55.3125 81.375 C-56.73497003 81.34488282 -58.15750098 81.31751005 -59.58007812 81.29296875 C-63.05465683 81.22706199 -66.52694165 81.12364151 -70 81 C-66.77619021 76.59399127 -63.54719517 72.37237973 -59.75 68.4375 C-44.16610816 51.2612842 -34.54815762 30.00669925 -28 8 C-27.20078125 7.92523438 -26.4015625 7.85046875 -25.578125 7.7734375 C-17.96549028 6.86206574 -12.15133383 4.99096185 -5.4609375 1.2421875 C-3 0 -3 0 0 0 Z " fill="#BA7467" transform="translate(442,243)"/>
<path d="M0 0 C2.12154353 1.05832195 4.23704324 2.12346827 6.33984375 3.21875 C13.45097988 6.72619759 20.13919042 8.16268006 28 9 C28.1544458 9.5261792 28.3088916 10.0523584 28.46801758 10.59448242 C36.02241052 35.84213059 48.2243457 56.47646769 65.53125 76.13671875 C68 79 68 79 70 82 C65.87498006 82.24918801 61.75292401 82.42951206 57.62207031 82.54931641 C56.22090307 82.59928901 54.82024911 82.66730483 53.42089844 82.75439453 C41.87418081 83.45444517 41.87418081 83.45444517 37.41967773 79.99755859 C35.33689343 77.43386846 33.6487986 74.85920339 32 72 C31.11901351 70.69319823 30.23524609 69.38826324 29.34765625 68.0859375 C28.57875613 66.8534094 27.81707007 65.61635286 27.0625 64.375 C26.64556885 63.70259277 26.2286377 63.03018555 25.79907227 62.33740234 C23.24976147 58.1854335 20.86830601 53.9650068 18.55224609 49.67944336 C13.27499622 39.95363133 7.52611999 31.33155682 -2.46875 25.9375 C-4 25 -4 25 -5 23 C-4.44111663 20.40266306 -3.82217019 17.87263822 -3.125 15.3125 C-1.75410159 10.21181248 -0.64635696 5.24649323 0 0 Z " fill="#BA7467" transform="translate(70,242)"/>
<path d="M0 0 C4.23266909 3.00591245 7.00264201 7.03262777 9.3046875 11.63671875 C9.93781978 19.54568268 10.43544852 27.16684414 5.3046875 33.63671875 C0.87094806 38.42472792 -3.41862128 41.24599115 -10.046875 41.8515625 C-18.21826829 42.16014986 -24.17915195 39.83651234 -30.18359375 34.27734375 C-35.31042576 28.71334001 -35.3458781 22.36475048 -35.16796875 15.0859375 C-34.31657765 8.87289335 -31.51006802 4.87450331 -26.65625 1.015625 C-17.92730302 -4.75463396 -9.20813099 -5.00566622 0 0 Z " fill="#7B83D5" transform="translate(268.6953125,402.36328125)"/>
<path d="M0 0 C1.60295169 6.00254251 3.03280223 11.98853807 4.08056641 18.11181641 C5.71773628 27.63248553 8.42180485 35.11358617 14 43 C14.33 43.66 14.66 44.32 15 45 C11.99900412 45.10890711 9.00203622 45.18773555 6 45.25 C4.74123047 45.30027344 4.74123047 45.30027344 3.45703125 45.3515625 C-3.53832286 45.4600176 -8.60655031 43.86009807 -13.98828125 39.32421875 C-18.98160973 33.15252367 -21.64522288 27.54638408 -21.33984375 19.484375 C-20.35133641 12.2580455 -16.43617086 8.01084662 -11 3.4453125 C-7.20730844 0.70450024 -4.73291075 -0.26293949 0 0 Z " fill="#F8C6B9" transform="translate(81,452)"/>
<path d="M0 0 C7.43059856 0.84282252 12.07173941 3.35975594 17 9 C20.5214952 13.79121742 21.7139168 18.48639636 21.44921875 24.41015625 C20.41703454 30.36092263 17.6447462 35.8794483 13.125 39.9375 C6.39541027 44.37902922 1.4846093 45.43646234 -6.4375 45.1875 C-7.67790039 45.16719727 -7.67790039 45.16719727 -8.94335938 45.14648438 C-10.9625264 45.11146992 -12.98135318 45.05767562 -15 45 C-14.41992188 44.21689453 -14.41992188 44.21689453 -13.828125 43.41796875 C-5.32949817 31.40629567 -3.6268132 18.41877544 -1.41723633 4.16381836 C-1 2 -1 2 0 0 Z " fill="#F9D8CA" transform="translate(431,452)"/>
<path d="M0 0 C-0.0707373 0.61351318 -0.14147461 1.22702637 -0.21435547 1.85913086 C-1.00197403 9.42317589 -1.15417527 16.92337518 -1.13037109 24.52514648 C-1.12499851 26.56306359 -1.13035716 28.60076129 -1.13671875 30.63867188 C-1.12968694 37.82166238 -0.92880424 44.87317293 0 52 C-8.61455455 50.70371248 -14.54591971 47.52752985 -19.875 40.5 C-24.23736071 33.72879364 -24.9621856 26.93291319 -24 19 C-21.63905627 11.67649008 -16.15175993 6.3926094 -10 2 C-6.46656043 0.25005287 -3.90327605 -0.08097914 0 0 Z " fill="#F3B8AD" transform="translate(94,184)"/>
<path d="M0 0 C7.67897082 0.47993568 13.10456174 3.67916085 18.3125 9.3125 C22.90559322 15.11957154 24.63059617 21.03274229 24.3359375 28.421875 C23.23156777 36.89727058 19.70013606 41.99029726 13.21875 47.40625 C8.87844371 50.5239348 6.37849983 51.09153335 1 51 C1.00523682 49.84588623 1.01047363 48.69177246 1.01586914 47.50268555 C1.03412808 43.17326652 1.04550751 38.84385082 1.05493164 34.5144043 C1.0599245 32.6494896 1.06672112 30.78457874 1.07543945 28.91967773 C1.18020343 14.43060175 1.18020343 14.43060175 0 0 Z " fill="#FAC7BA" transform="translate(418,184)"/>
<path d="M0 0 C4.68178071 3.38661597 8.34842829 7.51307454 10.625 12.875 C11.27262258 17.15232125 11.34173359 20.69955691 9.0625 24.4375 C5.66981874 26.43831202 3.49785839 26.42826548 -0.375 25.875 C-4.53505069 23.06415494 -5.21586678 19.60069697 -6.375 14.875 C-7.35767859 13.66938816 -7.35767859 13.66938816 -9.22265625 13.77734375 C-11.2734375 13.80989583 -13.32421875 13.84244792 -15.375 13.875 C-15.48457031 14.48988281 -15.59414063 15.10476562 -15.70703125 15.73828125 C-15.86558594 16.54652344 -16.02414062 17.35476562 -16.1875 18.1875 C-16.33832031 18.98800781 -16.48914063 19.78851563 -16.64453125 20.61328125 C-17.47553955 23.18629626 -18.20247737 24.27979108 -20.375 25.875 C-22.3125 26.2734375 -22.3125 26.2734375 -24.375 26.25 C-25.055625 26.25773437 -25.73625 26.26546875 -26.4375 26.2734375 C-29.00555549 25.74532931 -29.8535979 25.00218834 -31.375 22.875 C-32.60816574 17.04375117 -31.93224066 11.97395963 -28.75 6.9375 C-22.1106836 -1.81574969 -10.0665755 -5.97104858 0 0 Z " fill="#040303" transform="translate(328.375,204.125)"/>
<path d="M0 0 C5.36566972 2.67801828 8.55137897 7.22775794 11.1875 12.5 C11.33466542 14.30843663 11.4085887 16.12331566 11.4375 17.9375 C11.46328125 18.90558594 11.4890625 19.87367188 11.515625 20.87109375 C11.1875 23.5 11.1875 23.5 9.921875 25.32421875 C7.84467864 26.73240817 6.68115004 26.90333693 4.1875 26.875 C3.506875 26.88273437 2.82625 26.89046875 2.125 26.8984375 C-0.4270487 26.37362103 -1.25858754 25.57646709 -2.8125 23.5 C-3.54296875 21.23828125 -3.54296875 21.23828125 -4 18.8125 C-4.15855469 18.00425781 -4.31710938 17.19601563 -4.48046875 16.36328125 C-4.59003906 15.74839844 -4.69960937 15.13351563 -4.8125 14.5 C-8.8225934 14.32135369 -8.8225934 14.32135369 -12.8125 14.5 C-15.49235418 17.17985418 -15.97741955 19.92431913 -17.03125 23.50390625 C-17.8125 25.5 -17.8125 25.5 -19.8125 26.5 C-23.5746596 26.84834811 -25.95378053 27.00642431 -29.25 25.0625 C-31.60609736 21.19850034 -31.64556735 17.90439084 -30.8125 13.5 C-25.42882185 0.67080953 -13.09672393 -5.0167112 0 0 Z " fill="#040303" transform="translate(203.8125,203.5)"/>
<path d="M0 0 C1.625 1.12890625 1.625 1.12890625 3.3125 2.5 C6.81000646 5.215984 9.46405937 5.6772865 13.84765625 5.4375 C17.63852959 4.66694135 20.26722964 2.73277036 23 0 C26.85797355 -0.36395977 29.15988698 -0.56007535 32.4375 1.625 C34.54103258 4.82236952 34.73945225 6.22879353 34 10 C30.96567124 15.46416234 26.58585001 18.31563674 20.78125 20.34375 C13.12761131 22.14966475 4.91776878 22.02299429 -2 18 C-8.29709035 13.4058193 -8.29709035 13.4058193 -10 10 C-10.38932198 6.4182378 -10.43596718 4.63718279 -8.375 1.625 C-5.20965044 -0.54076549 -3.77957563 -0.66698393 0 0 Z " fill="#040303" transform="translate(244,232)"/>
</svg>
