<?xml version="1.0" standalone="no"?>
<!DOCTYPE svg PUBLIC "-//W3C//DTD SVG 20010904//EN"
 "http://www.w3.org/TR/2001/REC-SVG-20010904/DTD/svg10.dtd">
<svg version="1.0" xmlns="http://www.w3.org/2000/svg"
 width="512.000000pt" height="512.000000pt" viewBox="0 0 512.000000 512.000000"
 preserveAspectRatio="xMidYMid meet">

<g transform="translate(0.000000,512.000000) scale(0.100000,-0.100000)"
fill="#000000" stroke="none">
<path d="M1143 5095 c-28 -14 -64 -42 -79 -62 -36 -47 -72 -135 -80 -195 -4
-27 -9 -48 -13 -48 -3 0 -39 7 -80 15 -114 24 -201 4 -263 -62 -101 -107 -46
-325 128 -508 l63 -66 -50 -103 c-140 -293 -232 -742 -214 -1036 5 -63 8 -153
7 -201 -1 -218 -90 -487 -251 -753 -108 -178 -151 -321 -151 -500 0 -200 47
-325 164 -442 102 -102 245 -163 382 -164 l41 0 16 -93 c23 -126 23 -122 -25
-137 -106 -31 -201 -107 -246 -196 -93 -184 -14 -413 176 -506 l67 -33 561 -3
c539 -3 562 -2 584 16 17 14 24 30 24 56 0 71 4 70 -357 76 -309 5 -324 6
-372 28 -27 13 -65 37 -83 55 -75 72 -76 77 -173 627 -53 305 -89 538 -89 578
0 88 30 152 99 215 93 83 -33 77 1637 77 1470 0 1484 0 1538 -20 109 -41 189
-157 188 -274 0 -73 -165 -1031 -189 -1095 -21 -58 -84 -126 -148 -159 l-50
-27 -876 -5 c-845 -5 -878 -6 -898 -24 -29 -26 -27 -71 4 -102 l25 -24 1112 2
1113 3 67 33 c155 76 241 245 208 408 -16 75 -41 125 -93 181 -53 57 -97 86
-170 109 -36 11 -57 23 -57 33 0 8 7 57 17 108 l16 93 41 0 c137 1 280 62 382
164 117 117 164 242 164 442 0 184 -43 322 -164 524 -137 229 -210 432 -236
658 -10 81 -10 119 0 181 10 61 11 112 1 242 -37 536 -199 977 -484 1315 -83
99 -199 207 -234 218 -26 8 -78 -15 -87 -39 -17 -44 -5 -64 107 -176 138 -139
217 -247 308 -423 98 -189 170 -413 213 -668 l7 -37 -53 24 c-29 13 -83 29
-120 35 l-68 12 -17 54 c-27 87 -17 84 -294 88 -250 4 -336 13 -519 57 -125
31 -274 92 -363 149 -43 27 -86 50 -97 50 -10 0 -65 -23 -122 -50 -57 -28
-148 -62 -203 -77 -88 -23 -119 -26 -255 -26 -197 0 -287 22 -498 122 -209 99
-324 114 -470 59 -156 -58 -251 -160 -312 -335 l-32 -92 -47 -6 c-58 -8 -106
-23 -153 -47 -21 -10 -38 -14 -38 -9 0 28 44 232 71 326 34 124 105 302 155
392 53 95 49 112 -44 202 -88 86 -137 152 -164 223 -23 62 -23 100 2 123 27
25 116 16 201 -20 89 -37 110 -40 138 -18 21 17 26 35 37 126 18 149 55 227
109 227 39 0 92 -56 135 -143 23 -45 48 -90 57 -99 25 -28 70 -21 148 21 307
169 727 250 1142 221 274 -19 460 -60 668 -147 132 -55 179 -60 208 -21 30 39
14 86 -38 115 -131 73 -402 155 -630 189 -151 23 -550 26 -695 5 -235 -33
-445 -90 -609 -167 -52 -24 -97 -44 -102 -44 -4 0 -19 21 -34 46 -63 108 -147
172 -237 180 -44 5 -62 1 -105 -21z m567 -1423 c237 -116 377 -147 615 -139
174 6 289 31 437 96 l90 40 72 -39 c236 -130 547 -199 905 -203 l165 -2 17
-70 c46 -179 50 -451 10 -626 -66 -290 -186 -506 -402 -721 l-128 -128 -931 0
-931 0 -128 128 c-182 181 -287 347 -360 567 -55 165 -66 242 -66 445 0 203
12 281 66 443 35 105 75 168 136 211 73 52 126 67 223 63 80 -4 92 -8 210 -65z
m-775 -409 c-12 -29 -18 -352 -8 -425 10 -67 9 -68 -14 -68 -38 0 -118 46
-152 87 -61 73 -76 194 -35 275 32 64 95 118 164 139 42 13 53 11 45 -8z
m3325 -4 c163 -73 209 -273 95 -406 -36 -43 -109 -83 -148 -83 -23 0 -23 1
-14 68 10 73 4 396 -8 425 -10 23 17 22 75 -4z m-3352 -646 l60 -6 26 -81 c57
-184 194 -418 328 -562 l70 -74 -134 0 c-172 0 -247 -12 -334 -55 -130 -63
-221 -187 -246 -334 -11 -64 -10 -87 13 -227 l25 -155 -45 7 c-217 31 -346
181 -359 415 -8 164 30 291 145 482 122 203 202 403 243 608 l11 55 68 -34
c45 -22 88 -35 129 -39z m3521 -23 c41 -186 119 -376 234 -567 115 -191 153
-318 145 -482 -13 -234 -142 -384 -359 -415 l-46 -7 23 133 c26 152 29 195 13
270 -39 182 -194 329 -379 358 -36 5 -125 10 -198 10 l-134 0 71 76 c131 140
266 371 327 558 l27 84 60 5 c39 3 82 17 126 39 36 18 67 33 68 33 1 0 11 -43
22 -95z m-3610 -2042 c5 -29 17 -92 26 -140 17 -96 43 -166 81 -215 13 -17 24
-34 24 -37 0 -10 -143 -6 -181 4 -55 15 -100 50 -133 103 -38 62 -41 149 -8
214 33 63 107 117 169 122 6 1 16 -23 22 -51z m3596 14 c98 -69 129 -186 76
-290 -43 -84 -117 -121 -238 -122 -46 0 -83 3 -83 6 0 3 11 20 24 37 38 49 64
119 81 215 38 208 33 195 68 188 18 -3 50 -19 72 -34z"/>
<path d="M1855 3082 c-106 -51 -161 -187 -99 -249 20 -20 31 -24 57 -19 37 7
67 39 67 70 0 35 28 66 59 66 34 0 59 -25 67 -68 13 -63 83 -87 127 -43 49 48
8 174 -75 228 -54 36 -145 42 -203 15z"/>
<path d="M3101 3089 c-106 -42 -174 -191 -114 -250 44 -44 114 -20 127 43 8
43 33 68 67 68 31 0 59 -31 59 -66 0 -31 30 -63 67 -70 26 -5 37 -1 57 19 63
63 3 206 -106 251 -41 18 -120 20 -157 5z"/>
<path d="M2362 2777 c-70 -74 50 -187 198 -187 149 0 272 118 197 188 -27 26
-79 29 -98 6 -20 -24 -65 -44 -99 -44 -34 0 -79 20 -99 44 -20 24 -74 20 -99
-7z"/>
<path d="M2449 1262 c-139 -46 -232 -154 -259 -300 -28 -157 55 -317 205 -396
56 -29 67 -31 165 -31 96 0 110 2 163 29 149 76 235 241 207 398 -24 130 -116
246 -230 289 -77 30 -180 34 -251 11z m211 -163 c161 -81 158 -309 -5 -397
-40 -22 -150 -22 -190 0 -75 40 -124 120 -125 201 -1 165 172 271 320 196z"/>
</g>
</svg>
