<?xml version="1.0" standalone="no"?>
<!DOCTYPE svg PUBLIC "-//W3C//DTD SVG 20010904//EN"
 "http://www.w3.org/TR/2001/REC-SVG-20010904/DTD/svg10.dtd">
<svg version="1.0" xmlns="http://www.w3.org/2000/svg"
 width="512.000000pt" height="512.000000pt" viewBox="0 0 512.000000 512.000000"
 preserveAspectRatio="xMidYMid meet">

<g transform="translate(0.000000,512.000000) scale(0.100000,-0.100000)"
fill="#000000" stroke="none">
<path d="M2355 5108 c-408 -46 -800 -238 -1082 -531 -80 -82 -91 -114 -53
-155 41 -44 72 -32 184 76 136 129 263 218 421 296 403 199 837 229 1266 86
557 -185 960 -643 1093 -1242 l6 -28 -75 0 c-52 0 -77 4 -80 13 -2 6 -15 55
-30 107 -148 533 -592 941 -1155 1061 -151 32 -429 32 -580 0 -549 -117 -969
-489 -1141 -1012 -21 -66 -39 -128 -39 -138 0 -16 -11 -19 -78 -24 -42 -2 -78
-4 -80 -2 -1 1 10 48 24 105 33 130 72 233 135 356 27 52 49 106 49 120 0 59
-86 87 -127 42 -66 -72 -184 -374 -224 -573 -22 -109 -22 -110 -74 -161 -28
-28 -57 -64 -64 -81 -12 -30 -14 -31 -99 -35 -120 -6 -180 -39 -225 -123 -21
-38 -22 -52 -22 -330 l0 -290 27 -46 c47 -81 132 -119 263 -119 36 0 43 -4 59
-35 28 -52 108 -123 174 -153 52 -24 70 -27 198 -30 110 -3 148 0 177 12 l37
15 27 -47 c80 -137 225 -302 353 -403 l79 -62 -74 -79 c-87 -93 -171 -215
-220 -321 -41 -90 -44 -130 -12 -159 l24 -21 -19 -66 c-10 -36 -18 -75 -18
-87 0 -16 -11 -28 -37 -41 -21 -10 -43 -29 -50 -43 -18 -35 -18 -745 -1 -804
16 -54 90 -128 144 -144 60 -17 2188 -17 2248 0 57 17 128 90 145 149 10 35
12 140 8 445 -4 359 -6 408 -25 489 -55 242 -168 452 -328 615 l-63 65 70 55
c108 84 240 227 320 349 l73 108 35 -14 c26 -11 68 -14 175 -11 128 3 146 6
198 30 66 30 146 101 174 153 16 31 23 35 59 35 131 0 216 38 263 119 l27 46
0 290 c0 278 -1 292 -22 330 -45 84 -105 117 -225 123 -85 4 -87 5 -99 35 -7
17 -36 53 -64 81 -51 51 -52 52 -74 161 -47 234 -164 507 -298 694 -174 243
-416 448 -677 576 -312 152 -659 212 -1001 173z m472 -467 c238 -49 447 -151
628 -308 66 -56 187 -187 155 -167 -8 5 -53 34 -100 65 -241 160 -517 254
-819 280 -367 32 -766 -71 -1081 -280 -47 -31 -92 -60 -100 -65 -31 -20 88
110 152 165 210 181 455 291 733 328 106 15 315 6 432 -18z m-234 -963 c12 -6
45 -32 74 -58 72 -66 180 -135 300 -192 133 -64 163 -69 198 -34 l27 27 94
-22 c79 -18 94 -25 94 -41 0 -63 41 -78 248 -85 l162 -6 10 -36 c39 -147 39
-440 0 -591 -34 -130 -38 -159 -30 -195 7 -29 2 -44 -32 -101 -209 -359 -562
-603 -967 -670 -159 -26 -378 -16 -534 24 -309 80 -576 257 -759 502 -94 126
-127 195 -127 265 0 34 -11 103 -26 160 -44 164 -46 450 -5 606 l10 36 162 6
c319 12 591 94 836 253 46 30 104 74 130 98 73 67 95 76 135 54z m-1413 -238
c26 -26 25 -45 -5 -164 -55 -218 -55 -463 0 -681 31 -125 31 -139 -2 -165 -26
-20 -37 -22 -143 -18 -100 3 -121 6 -160 28 -58 33 -97 90 -111 164 -6 36 -9
178 -7 375 3 301 4 318 25 356 53 99 107 124 266 125 104 0 119 -2 137 -20z
m3048 4 c47 -19 88 -58 115 -109 21 -39 22 -50 22 -400 0 -349 -1 -361 -22
-400 -50 -93 -116 -124 -264 -125 -93 0 -110 3 -133 21 -30 24 -33 52 -12 125
65 220 68 494 10 723 -29 116 -30 135 -4 161 18 18 33 20 135 20 82 0 127 -5
153 -16z m-3628 -504 l0 -300 -54 0 c-47 0 -57 4 -75 26 -20 25 -21 39 -21
265 0 154 4 247 11 263 14 31 43 44 97 45 l42 1 0 -300z m4023 289 c43 -19 47
-45 47 -298 0 -226 -1 -240 -21 -265 -18 -22 -28 -26 -75 -26 l-54 0 0 300 0
300 40 0 c21 0 50 -5 63 -11z m-1217 -1657 c201 -234 283 -480 284 -844 l0
-118 -150 0 -150 0 0 119 c0 66 -3 127 -6 136 -9 23 -60 46 -88 39 -14 -3 -33
-15 -43 -26 -17 -18 -18 -48 -21 -374 l-3 -354 -485 0 -485 0 4 453 c3 248 8
467 12 485 6 26 11 32 24 26 140 -59 255 -75 369 -50 119 25 195 68 292 165
97 98 146 184 180 316 11 43 21 79 23 80 1 2 29 16 62 33 l60 30 32 -25 c18
-14 58 -55 89 -91z m-1081 -47 c173 -29 446 -16 611 29 l52 14 -8 -29 c-17
-57 -76 -154 -125 -204 -30 -31 -78 -65 -120 -86 -66 -32 -75 -34 -175 -34
-99 0 -109 2 -173 33 -109 54 -190 146 -238 271 l-18 49 52 -14 c29 -8 93 -21
142 -29z m-595 -1225 l0 -150 -125 0 c-120 0 -127 1 -150 25 -24 23 -25 30
-25 150 l0 125 150 0 150 0 0 -150z m1960 25 c0 -120 -1 -127 -25 -150 -23
-24 -30 -25 -150 -25 l-125 0 0 150 0 150 150 0 150 0 0 -125z"/>
<path d="M1850 3138 c-55 -28 -95 -79 -111 -139 -17 -62 -6 -96 36 -116 57
-27 92 -2 110 80 7 35 45 54 82 41 20 -7 30 -21 42 -59 26 -80 94 -95 137 -30
15 23 15 33 5 79 -30 135 -178 206 -301 144z"/>
<path d="M3084 3141 c-55 -25 -101 -83 -115 -147 -10 -46 -10 -56 5 -79 43
-65 111 -50 137 30 12 38 22 52 42 59 37 13 75 -6 82 -41 18 -81 53 -107 109
-80 42 19 53 60 36 122 -26 92 -109 155 -205 155 -27 0 -68 -9 -91 -19z"/>
<path d="M2360 2840 c-71 -71 54 -190 200 -190 146 0 271 119 200 190 -29 29
-73 25 -122 -10 -28 -20 -53 -30 -78 -30 -25 0 -50 10 -78 30 -49 35 -93 39
-122 10z"/>
</g>
</svg>
