<?xml version="1.0" encoding="UTF-8"?>
<svg version="1.1" xmlns="http://www.w3.org/2000/svg" width="512" height="512">
<path d="M0 0 C0.76732452 -0.00979385 1.53464905 -0.01958771 2.32522583 -0.02967834 C34.23871951 -0.35286366 62.86554181 4.11609222 91.75 18.23828125 C92.41370605 18.56054688 93.07741211 18.8828125 93.76123047 19.21484375 C135.70542594 39.84623008 167.36638698 78.47190221 182.75 122.23828125 C185.16574338 129.34732268 187.38590687 136.48220103 188.515625 143.91796875 C188.63204346 144.68318848 188.74846191 145.4484082 188.8684082 146.23681641 C189.07493187 147.69401703 189.25740255 149.15491476 189.41088867 150.61865234 C189.95243503 154.61067806 190.61678661 156.11417958 193.60546875 158.8984375 C194.64316406 159.67058594 195.68085938 160.44273437 196.75 161.23828125 C198.8671875 163.84375 198.8671875 163.84375 200.625 166.42578125 C201.22054688 167.28558594 201.81609375 168.14539063 202.4296875 169.03125 C203.75 171.23828125 203.75 171.23828125 203.75 173.23828125 C204.884375 173.191875 206.01875 173.14546875 207.1875 173.09765625 C223.31661649 172.62732055 223.31661649 172.62732055 228.75 177.23828125 C233.1994082 181.47676942 236.39402942 185.68592591 237.02415466 191.97416687 C237.04011436 193.45781487 237.04011436 193.45781487 237.05639648 194.97143555 C237.07238388 196.09998459 237.08837128 197.22853363 237.10484314 198.39128113 C237.11288719 200.20853447 237.11288719 200.20853447 237.12109375 202.0625 C237.13012222 203.31907913 237.1391507 204.57565826 237.14845276 205.87031555 C237.16295441 208.5291679 237.17263629 211.18759073 237.17553711 213.84643555 C237.18090208 217.22788691 237.21851423 220.60813291 237.26428127 223.98924541 C237.30147126 227.24275658 237.30257991 230.49630508 237.30859375 233.75 C237.33789223 235.55207161 237.33789223 235.55207161 237.36778259 237.39054871 C237.32693915 245.08052019 236.0820352 250.79711253 231.75 257.23828125 C229.43359375 259.4921875 229.43359375 259.4921875 227.1875 260.80078125 C226.44371094 261.25582031 225.69992187 261.71085937 224.93359375 262.1796875 C220.34073048 264.40628132 216.45997071 264.23828125 211.375 264.23828125 C206.12471916 264.41083104 206.12471916 264.41083104 201.71484375 267.05859375 C200.277905 269.35554065 200.277905 269.35554065 199.05859375 271.8203125 C195.56566319 278.27441405 188.53863215 282.79535576 181.75 285.23828125 C169.71380179 288.79027903 154.80183877 288.62975347 142.75 285.23828125 C142.39550781 285.91890625 142.04101562 286.59953125 141.67578125 287.30078125 C131.5059785 305.81819448 116.36388366 322.55452275 98.75 334.23828125 C102.70782298 338.91370392 102.70782298 338.91370392 106.8359375 343.4375 C118.83466171 356.17298797 127.32973027 371.60954042 133 388.11328125 C133.23420654 388.78327148 133.46841309 389.45326172 133.7097168 390.14355469 C138.29598456 404.19999673 139.21635105 418.02884336 139.18359375 432.67578125 C139.18816899 434.49463086 139.19347848 436.31347875 139.19947815 438.13232422 C139.20833279 441.91071687 139.20606922 445.68889721 139.19604492 449.46728516 C139.18448341 454.29334853 139.20491471 459.11868793 139.23396206 463.94465637 C139.25234119 467.68687525 139.25202957 471.4289204 139.24632454 475.1711731 C139.24617197 476.95086696 139.25216272 478.73057308 139.26461601 480.51022339 C139.27958159 482.99555804 139.26881442 485.47954968 139.25170898 487.96484375 C139.26137695 488.68705612 139.27104492 489.40926849 139.28100586 490.15336609 C139.19152203 496.39776135 137.09336335 501.52270582 133.00390625 506.26171875 C132.44574219 506.70773437 131.88757813 507.15375 131.3125 507.61328125 C130.75691406 508.07476562 130.20132812 508.53625 129.62890625 509.01171875 C124.40515477 512.42181847 119.74745958 512.52770709 113.69865417 512.50570679 C112.78531085 512.5102379 111.87196752 512.51476901 110.93094712 512.51943743 C107.86952209 512.53210082 104.80827451 512.5304598 101.74682617 512.52880859 C99.55219799 512.53479264 97.35757191 512.5415979 95.16294861 512.54916382 C89.20007655 512.56684387 83.23726188 512.57152006 77.27436614 512.57279539 C72.29675067 512.57469413 67.31914857 512.58205139 62.34153825 512.58913958 C51.26826488 512.60449835 40.19501415 512.61047682 29.12173148 512.60912888 C28.12549417 512.60900901 28.12549417 512.60900901 27.10913086 512.60888672 C26.11167328 512.60876408 26.11167328 512.60876408 25.09406505 512.60863896 C14.32002774 512.60782625 3.54613029 512.62696075 -7.22786657 512.65516345 C-18.29767623 512.68391119 -29.36741434 512.69733666 -40.43726176 512.6959759 C-46.64927123 512.69546595 -52.86112242 512.70116756 -59.07309914 512.722332 C-64.916393 512.74169649 -70.75937733 512.74185084 -76.60268211 512.72729874 C-78.7456444 512.72520732 -80.88862597 512.72993128 -83.03155518 512.74201965 C-85.96063462 512.75747072 -88.88864656 512.7481645 -91.81770325 512.73275757 C-92.66256234 512.74304469 -93.50742142 512.75333182 -94.3778823 512.76393068 C-101.00936396 512.68702777 -106.21621957 510.85623464 -111.2734375 506.4921875 C-111.71945313 505.93402344 -112.16546875 505.37585938 -112.625 504.80078125 C-113.08648437 504.24519531 -113.54796875 503.68960937 -114.0234375 503.1171875 C-117.12390169 498.36775032 -117.55128046 493.96527767 -117.55639648 488.40625 C-117.56472 487.63326569 -117.57304352 486.86028137 -117.58161926 486.06387329 C-117.60564516 483.5177909 -117.61448074 480.97196484 -117.62109375 478.42578125 C-117.63006335 476.65128504 -117.63918525 474.8767896 -117.64845276 473.10229492 C-117.66492345 469.38686283 -117.67263978 465.67152067 -117.67553711 461.95605469 C-117.68092933 457.19767211 -117.71865176 452.44013504 -117.76428127 447.68199158 C-117.79403103 444.01880811 -117.80126015 440.35582918 -117.80226326 436.6925354 C-117.80646711 434.93824375 -117.81890807 433.18395157 -117.83978081 431.42977905 C-117.86666284 428.97599004 -117.86188151 426.52417396 -117.84936523 424.0703125 C-117.86419952 423.34808502 -117.87903381 422.62585754 -117.89431763 421.88174438 C-117.83811002 418.00866609 -117.35553613 416.36973218 -114.90003967 413.3112793 C-112.25 411.23828125 -112.25 411.23828125 -109.25 410.23828125 C-107.98454915 407.44499578 -107.47201447 404.41326608 -106.8125 401.42578125 C-106.60173828 400.60529297 -106.39097656 399.78480469 -106.17382812 398.93945312 C-105.65587261 396.65042391 -105.24125302 394.58655399 -105.25 392.23828125 C-106.56752471 390.88932454 -107.90122422 389.55599118 -109.25 388.23828125 C-109.98449913 381.48331164 -106.9229593 375.65927096 -103.75 369.92578125 C-103.30148682 369.09763916 -102.85297363 368.26949707 -102.39086914 367.41625977 C-96.83927567 357.38508445 -90.00068852 348.78740869 -82.1953125 340.39453125 C-80.41175598 338.41757703 -78.80859056 336.39482164 -77.25 334.23828125 C-78.15878906 333.52865234 -78.15878906 333.52865234 -79.0859375 332.8046875 C-96.16443963 319.32580813 -110.64674322 304.31446012 -121.25 285.23828125 C-121.83273682 285.39200195 -122.41547363 285.54572266 -123.01586914 285.70410156 C-137.22433137 289.30267957 -154.88571156 288.81695068 -167.89453125 281.78515625 C-173.18166021 278.31301186 -177.58892081 274.28356062 -179.8125 268.30078125 C-181.95311334 264.91051706 -181.95311334 264.91051706 -185.54296875 264.6875 C-188.21466676 264.55299201 -190.86677726 264.45507992 -193.5390625 264.3984375 C-200.13869021 264.11361146 -205.57154407 262.04318193 -210.25 257.23828125 C-215.63783223 250.07121169 -215.97402661 243.4800657 -215.87890625 234.734375 C-215.88131821 233.45651627 -215.88373016 232.17865753 -215.88621521 230.86207581 C-215.88523918 228.17093 -215.87453942 225.48203941 -215.84692383 222.79125977 C-215.81280713 219.3626841 -215.81888533 215.93560488 -215.8375864 212.50695705 C-215.85076295 209.20767768 -215.83242208 205.90862231 -215.81640625 202.609375 C-215.82136612 201.38834579 -215.82632599 200.16731659 -215.83143616 198.9092865 C-215.7225496 190.99138114 -214.82669924 185.38309155 -209.50390625 179.21484375 C-208.66666016 178.54582031 -208.66666016 178.54582031 -207.8125 177.86328125 C-206.97912109 177.17105469 -206.97912109 177.17105469 -206.12890625 176.46484375 C-200.93739178 173.07578856 -196.45009422 172.98224399 -190.4375 173.11328125 C-189.64923828 173.12230469 -188.86097656 173.13132813 -188.04882812 173.140625 C-186.11575334 173.16405621 -184.1828362 173.19992287 -182.25 173.23828125 C-181.97800781 172.49707031 -181.70601562 171.75585938 -181.42578125 170.9921875 C-180.31637514 168.39374461 -179.13054808 166.42275536 -177.4375 164.17578125 C-176.95667969 163.52480469 -176.47585937 162.87382812 -175.98046875 162.203125 C-174.25 160.23828125 -174.25 160.23828125 -171.69921875 158.7109375 C-167.80116804 154.77558487 -167.71277467 150.07268323 -166.875 144.73828125 C-163.31400436 124.855219 -156.86180799 101.79463323 -143.25 86.23828125 C-141.25 85.23828125 -141.25 85.23828125 -138.4609375 85.5703125 C-134.98671897 85.54946345 -134.98671897 85.54946345 -132.4765625 82.5 C-131.58965845 81.32319746 -130.72288182 80.13100299 -129.875 78.92578125 C-129.42511719 78.33087891 -128.97523438 77.73597656 -128.51171875 77.12304688 C-125.84770437 73.55748871 -125.84770437 73.55748871 -125.25 69.23828125 C-125.476875 68.28953125 -125.70375 67.34078125 -125.9375 66.36328125 C-126.33580121 62.38026911 -125.54399489 61.49158309 -123.25 58.23828125 C-93.46987476 23.79925362 -45.68509623 0.48506533 0 0 Z M-21.25 49.23828125 C-21.89469238 49.40457031 -22.53938477 49.57085937 -23.20361328 49.7421875 C-49.46723429 56.70969197 -71.54482884 70.66310212 -90.25 90.23828125 C-89.92 90.89828125 -89.59 91.55828125 -89.25 92.23828125 C-88.425 91.68140625 -87.6 91.12453125 -86.75 90.55078125 C-69.45585686 79.05012529 -50.79445284 70.31457051 -30.5625 65.42578125 C-29.75659424 65.23089111 -28.95068848 65.03600098 -28.12036133 64.83520508 C-15.36097728 61.94385959 -2.62615321 60.85385243 10.4375 60.92578125 C11.4789064 60.92851547 11.4789064 60.92851547 12.54135132 60.93130493 C24.15322491 60.98235015 35.38650538 61.7430769 46.75 64.23828125 C47.52520996 64.40457031 48.30041992 64.57085937 49.09912109 64.7421875 C71.9377444 69.79974608 92.09843777 79.79338724 111.75 92.23828125 C102.79804741 73.45361549 74.87702724 59.71031187 56.05664062 52.99658203 C31.6715581 44.98006358 3.76802938 42.7278182 -21.25 49.23828125 Z " fill="#010101" transform="translate(245.25,-0.23828125)"/>
<path d="M0 0 C2.24609375 1.6171875 2.24609375 1.6171875 4.4375 3.875 C16.12938569 15.00846727 35.83227445 29.19266512 52.1875 31.4375 C55.15186866 31.30198298 55.15186866 31.30198298 56.6875 28.875 C59 27 59 27 61.375 27.109375 C64.28115849 27.64217072 67.13197163 28.29070266 70 29 C71.72861942 29.37751459 73.45773451 29.75277198 75.1875 30.125 C76.445625 30.41375 77.70375 30.7025 79 31 C79.37125 32.670625 79.37125 32.670625 79.75 34.375 C80.58261288 37.99670794 80.58261288 37.99670794 82.83422852 39.18969727 C90.35805225 42.00466412 99.63654685 41.29493877 107.5625 41.5625 C109.36170898 41.62727539 109.36170898 41.62727539 111.19726562 41.69335938 C114.13141793 41.79856802 117.0656425 41.90070883 120 42 C124.29879258 53.19308257 124.23466449 64.24319127 124.25 76.125 C124.25167175 76.81053955 124.25334351 77.4960791 124.25506592 78.20239258 C124.2567588 89.78848339 123.41196791 100.37783807 119.90234375 111.46875 C118.961911 115.14905827 118.90013531 118.21371152 118.9375 122 C118.21246564 135.08945955 109.32848839 145.4174149 101 155 C100.29101562 155.83015625 99.58203125 156.6603125 98.8515625 157.515625 C81.66709471 177.17224429 59.3034593 191.27582753 34.17675781 198.3828125 C32.76750207 198.78238613 31.3626753 199.19807501 29.96386719 199.6328125 C19.46770258 202.86712553 9.1145488 203.36624162 -1.8125 203.375 C-3.11147217 203.37677246 -4.41044434 203.37854492 -5.7487793 203.38037109 C-13.99489421 203.28478528 -21.89772665 202.52788445 -30 201 C-30.79994385 200.84982422 -31.5998877 200.69964844 -32.42407227 200.54492188 C-67.68165389 193.35446328 -96.70277641 171.00435394 -117 142 C-118.15242187 140.40671875 -118.15242187 140.40671875 -119.328125 138.78125 C-123.71243557 132.15131695 -124.60759232 126.9004087 -124.76171875 119.015625 C-124.94016154 113.84463551 -126.24116919 108.97163642 -127.54174805 103.9855957 C-129.90561789 94.84818039 -130.21406723 85.95240031 -130.24023438 76.54858398 C-130.24986716 74.46621605 -130.28093383 72.38486882 -130.3125 70.30273438 C-130.3853796 60.90029241 -129.42546353 52.11774019 -127 43 C-125.1535032 41.1535032 -122.12270884 41.71512906 -119.640625 41.60546875 C-118.29365614 41.53956965 -116.94673367 41.47271722 -115.59985352 41.4050293 C-114.88983185 41.37017426 -114.17981018 41.33531921 -113.44827271 41.29940796 C-99.69986276 40.59951459 -86.40130336 39.3157567 -73 36 C-72.26330078 35.82098145 -71.52660156 35.64196289 -70.76757812 35.45751953 C-48.29162637 29.83853159 -27.18888916 19.16529011 -10.203125 3.32421875 C-6.69634933 0.11569977 -4.71908807 -0.55135074 0 0 Z " fill="#FEDCCE" transform="translate(259,143)"/>
<path d="M0 0 C0.83015625 0.28617187 1.6603125 0.57234375 2.515625 0.8671875 C3.35222656 1.07472656 4.18882812 1.28226562 5.05078125 1.49609375 C8.09221419 2.61959062 10.10389128 3.67395273 12.515625 5.8671875 C13.70894344 9.03449998 14.40822313 11.99177959 15.0546875 15.29614258 C18.22934 31.17476765 27.50245385 44.72333705 40.890625 53.8046875 C42.74422258 54.86388612 44.61989886 55.88537892 46.515625 56.8671875 C47.43085938 57.3725 48.34609375 57.8778125 49.2890625 58.3984375 C61.52641441 64.1798636 77.53492342 64.02953996 90.265625 59.8046875 C107.12441557 52.58530191 118.71429427 40.63194577 125.890625 23.8046875 C126.95273385 21.01087944 127.56238764 18.54406535 127.9921875 15.57421875 C129.31494489 6.83809717 129.31494489 6.83809717 133.23046875 3.671875 C140.60774216 -0.17324932 140.60774216 -0.17324932 144.54296875 -0.08984375 C147.5921424 1.38945832 149.79718039 3.66289329 152.140625 6.0546875 C152.66624023 6.58932617 153.19185547 7.12396484 153.73339844 7.67480469 C163.66897769 18.04210494 170.67140419 29.81270408 176.515625 42.8671875 C176.92554688 43.77597656 177.33546875 44.68476563 177.7578125 45.62109375 C178.85634504 48.34187784 179.71312983 51.04412413 180.515625 53.8671875 C180.69609375 54.47755859 180.8765625 55.08792969 181.0625 55.71679688 C185.97622901 73.06425232 184.87644318 91.02673281 184.515625 108.8671875 C174.615625 108.8671875 164.715625 108.8671875 154.515625 108.8671875 C154.203125 96.6171875 154.203125 96.6171875 154.12768555 92.77246094 C154.07801636 91.26474121 154.07801636 91.26474121 154.02734375 89.7265625 C154.00115967 88.70014648 153.97497559 87.67373047 153.94799805 86.61621094 C153.45713173 83.49528786 152.75805495 82.07553797 150.515625 79.8671875 C145.95319644 79.26642725 145.95319644 79.26642725 141.82389832 80.96589661 C139.84593556 83.84043554 140.11389049 86.26318724 140.08325195 89.7253418 C140.07297816 90.42946858 140.06270437 91.13359537 140.05211926 91.85905933 C140.02224758 94.13659578 140.01269239 96.41370102 140.00390625 98.69140625 C139.9884414 100.09820059 139.97164476 101.50498095 139.95349121 102.91174316 C139.89555452 108.12590352 139.86340578 113.34032463 139.828125 118.5546875 C139.6734375 136.034375 139.6734375 136.034375 139.515625 153.8671875 C94.635625 153.8671875 49.755625 153.8671875 3.515625 153.8671875 C3.078125 118.5546875 3.078125 118.5546875 2.94750977 107.4050293 C2.90425611 104.10659697 2.90425611 104.10659697 2.85972595 100.80818176 C2.84050621 99.33916895 2.82318374 97.87013057 2.80735779 96.40107727 C2.78301612 94.17574884 2.75265342 91.95057585 2.72094727 89.7253418 C2.69763084 87.84337349 2.69763084 87.84337349 2.67384338 85.92338562 C2.64966796 82.82472054 2.64966796 82.82472054 1.515625 79.8671875 C0.07979499 79.75882297 -1.3583952 79.68142583 -2.796875 79.6171875 C-3.59738281 79.57078125 -4.39789063 79.524375 -5.22265625 79.4765625 C-7.5974665 79.65822991 -7.5974665 79.65822991 -9.09375 81.52539062 C-10.81510755 84.42413741 -10.91041003 86.36776087 -10.99609375 89.7265625 C-11.04576294 91.23428223 -11.04576294 91.23428223 -11.09643555 92.77246094 C-11.12133057 94.0412207 -11.14622559 95.30998047 -11.171875 96.6171875 C-11.275 100.6596875 -11.378125 104.7021875 -11.484375 108.8671875 C-21.384375 108.8671875 -31.284375 108.8671875 -41.484375 108.8671875 C-41.48695313 106.24265625 -41.48953125 103.618125 -41.4921875 100.9140625 C-41.51501054 98.36882797 -41.54802723 95.82391539 -41.58203125 93.27880859 C-41.60018605 91.51163338 -41.60776066 89.74431622 -41.60449219 87.97705078 C-41.60163334 85.43410552 -41.6369592 82.89410033 -41.6796875 80.3515625 C-41.67059357 79.56287781 -41.66149963 78.77419312 -41.65213013 77.96160889 C-41.65509031 75.43022171 -41.65509031 75.43022171 -42.484375 71.8671875 C-45.36621405 69.28081019 -45.36621405 69.28081019 -48.484375 67.8671875 C-48.03321701 65.44898067 -47.57375545 63.03285887 -47.109375 60.6171875 C-46.98304688 59.93527344 -46.85671875 59.25335938 -46.7265625 58.55078125 C-45.24801518 50.93626258 -45.24801518 50.93626258 -43.484375 48.8671875 C-42.20691406 48.60808594 -40.92945313 48.34898437 -39.61328125 48.08203125 C-36.50912579 47.43837384 -36.50912579 47.43837384 -34.19482422 45.39501953 C-33.13701737 43.44386133 -32.26152808 41.48410773 -31.421875 39.4296875 C-30.75844383 37.96798408 -30.09044174 36.50834699 -29.41796875 35.05078125 C-28.93239502 33.97739502 -28.93239502 33.97739502 -28.43701172 32.88232422 C-24.49682373 24.5475442 -10.08643556 -0.53921196 0 0 Z " fill="#B08BD8" transform="translate(184.484375,343.1328125)"/>
<path d="M0 0 C27.06921291 23.88712342 27.06921291 23.88712342 29.125 39.5625 C28.59390625 39.95179688 28.0628125 40.34109375 27.515625 40.7421875 C26.80921875 41.30164063 26.1028125 41.86109375 25.375 42.4375 C24.33085938 43.23800781 24.33085938 43.23800781 23.265625 44.0546875 C20.10951325 47.75217609 18.73883758 52.01964496 17.125 56.5625 C16.05016357 56.54155273 14.97532715 56.52060547 13.86791992 56.49902344 C9.88172722 56.42664626 5.89559261 56.38070908 1.90893555 56.34277344 C0.18325027 56.32265261 -1.54236678 56.29535252 -3.26782227 56.26074219 C-5.7477297 56.21224242 -8.22673628 56.18953696 -10.70703125 56.171875 C-11.86498955 56.14090729 -11.86498955 56.14090729 -13.04634094 56.10931396 C-15.48086801 56.06315738 -15.48086801 56.06315738 -18.875 56.5625 C-20.80330986 58.44460566 -20.80330986 58.44460566 -21.875 60.5625 C-24.9303509 61.00611946 -27.87193619 60.19158217 -30.875 59.5625 C-31.77992188 59.39621094 -32.68484375 59.22992188 -33.6171875 59.05859375 C-36.24951414 58.45201413 -38.49408996 57.84381167 -40.875 56.5625 C-41.308125 54.9228125 -41.308125 54.9228125 -41.75 53.25 C-42.47696445 49.48533489 -42.47696445 49.48533489 -45.1484375 48.01953125 C-48.35790728 46.44849158 -51.59938955 44.99051894 -54.875 43.5625 C-67.069269 37.92578985 -77.90379048 31.31254371 -87.75 22.125 C-93.57625804 16.8137703 -99.39328144 14.80342317 -107.3046875 15.09375 C-114.34937729 16.37849586 -119.59795771 21.19329014 -124.6875 25.9375 C-151.5373645 50.8278247 -189.78215235 56.8718395 -224.875 56.5625 C-225.0709375 55.92183594 -225.266875 55.28117187 -225.46875 54.62109375 C-227.8634662 47.69499647 -230.98933098 43.87675254 -236.875 39.5625 C-235.92815264 30.25183432 -230.75672916 24.40190289 -224.875 17.5625 C-224.4020752 17.00981445 -223.92915039 16.45712891 -223.44189453 15.88769531 C-196.36176485 -15.394682 -157.57877128 -35.25670422 -116.24804688 -38.28808594 C-73.78006626 -40.96199583 -32.34946291 -27.75976007 0 0 Z " fill="#6D758E" transform="translate(359.875,113.4375)"/>
<path d="M0 0 C-0.66 5.94 -1.32 11.88 -2 18 C-0.02 17.34 1.96 16.68 4 16 C11.50703847 15.02192561 16.94762759 16.90523462 23.1875 21.1875 C27.53668636 25.53668636 29.67260153 29.58543629 30.5 35.6875 C29.88707059 39.74815736 29.1785428 41.37770219 26 44 C22.98989661 44.69044625 21.17372355 44.45338908 18 44 C14.63026489 41.19188741 14.03553489 37.14213956 13 33 C8.43438968 31.83842991 8.43438968 31.83842991 4.125 33.0625 C2.62467313 35.64639628 2.32735528 38.05380252 2 41 C3.485 41.2784375 3.485 41.2784375 5 41.5625 C11.04346192 43.29446775 15.27571656 47.73687798 19 52.625 C20.8049574 58.71673124 21.61176043 65.58844043 18.828125 71.48046875 C15.11500474 76.58122416 10.66384078 80.25172283 5 83 C6.19787187 89.3027777 7.97298294 95.04549454 10.5 100.9375 C10.84820801 101.75307373 11.19641602 102.56864746 11.55517578 103.40893555 C21.41155848 125.95362068 35.53431053 144.41529699 51.85546875 162.609375 C53 164 53 164 53 165 C26.09575471 166.3525232 -2.4214769 148.05933791 -21.8515625 131.03588867 C-30.41723595 123.26002848 -37.38299224 114.45558067 -44 105 C-44.76828125 103.9378125 -45.5365625 102.875625 -46.328125 101.78125 C-50.71243557 95.15131695 -51.60759232 89.9004087 -51.76171875 82.015625 C-51.94016154 76.84463551 -53.24116919 71.97163642 -54.54174805 66.9855957 C-56.90561789 57.84818039 -57.21406723 48.95240031 -57.24023438 39.54858398 C-57.24986716 37.46621605 -57.28093383 35.38486882 -57.3125 33.30273438 C-57.3853796 23.90029241 -56.42546353 15.11774019 -54 6 C-52.13956483 4.13956483 -49.03214527 4.69192392 -46.53515625 4.5703125 C-45.17144199 4.49837731 -43.80775474 4.42592875 -42.4440918 4.35302734 C-41.36942154 4.29752716 -41.36942154 4.29752716 -40.27304077 4.24090576 C-28.76101393 3.63729317 -17.43812186 2.80701745 -6.10546875 0.5859375 C-3 0 -3 0 0 0 Z " fill="#FDC9BC" transform="translate(186,180)"/>
<path d="M0 0 C0.83015625 0.28617187 1.6603125 0.57234375 2.515625 0.8671875 C3.35222656 1.07472656 4.18882812 1.28226562 5.05078125 1.49609375 C8.09221419 2.61959062 10.10389128 3.67395273 12.515625 5.8671875 C13.70894344 9.03449998 14.40822313 11.99177959 15.0546875 15.29614258 C18.2032802 31.04442466 27.39695935 44.62088054 40.703125 53.6171875 C41.97035347 54.37326247 43.2405589 55.12440638 44.515625 55.8671875 C44.37605377 56.72236465 44.23648254 57.57754181 44.09268188 58.45863342 C42.49042817 69.16275458 42.17220126 79.67774081 42.1015625 90.48828125 C42.08280304 92.32773154 42.06322629 94.16717366 42.0428772 96.00660706 C41.9920538 100.7952894 41.95216523 105.58399949 41.91473389 110.37280273 C41.86725439 116.1467909 41.80587474 121.92064681 41.74688721 127.69452667 C41.65928386 136.41869208 41.58908505 145.14284002 41.515625 153.8671875 C28.975625 153.8671875 16.435625 153.8671875 3.515625 153.8671875 C3.45503906 148.77667969 3.39445312 143.68617188 3.33203125 138.44140625 C3.29154354 135.21939244 3.25077369 131.99738717 3.20898438 128.77539062 C3.14265972 123.6596159 3.07738857 118.54384273 3.01831055 113.42797852 C2.97062353 109.30417209 2.9182791 105.18044884 2.86268425 101.05674171 C2.84228037 99.48227823 2.82356403 97.90779196 2.80655098 96.33328819 C2.78246342 94.1305555 2.75241489 91.92797969 2.72094727 89.7253418 C2.69763084 87.84337349 2.69763084 87.84337349 2.67384338 85.92338562 C2.64966796 82.82472054 2.64966796 82.82472054 1.515625 79.8671875 C0.07979499 79.75882297 -1.3583952 79.68142583 -2.796875 79.6171875 C-3.59738281 79.57078125 -4.39789063 79.524375 -5.22265625 79.4765625 C-7.5974665 79.65822991 -7.5974665 79.65822991 -9.09375 81.52539062 C-10.81510755 84.42413741 -10.91041003 86.36776087 -10.99609375 89.7265625 C-11.04576294 91.23428223 -11.04576294 91.23428223 -11.09643555 92.77246094 C-11.12133057 94.0412207 -11.14622559 95.30998047 -11.171875 96.6171875 C-11.275 100.6596875 -11.378125 104.7021875 -11.484375 108.8671875 C-21.384375 108.8671875 -31.284375 108.8671875 -41.484375 108.8671875 C-41.48695313 106.24265625 -41.48953125 103.618125 -41.4921875 100.9140625 C-41.51501054 98.36882797 -41.54802723 95.82391539 -41.58203125 93.27880859 C-41.60018605 91.51163338 -41.60776066 89.74431622 -41.60449219 87.97705078 C-41.60163334 85.43410552 -41.6369592 82.89410033 -41.6796875 80.3515625 C-41.67059357 79.56287781 -41.66149963 78.77419312 -41.65213013 77.96160889 C-41.65509031 75.43022171 -41.65509031 75.43022171 -42.484375 71.8671875 C-45.36621405 69.28081019 -45.36621405 69.28081019 -48.484375 67.8671875 C-48.03321701 65.44898067 -47.57375545 63.03285887 -47.109375 60.6171875 C-46.98304688 59.93527344 -46.85671875 59.25335938 -46.7265625 58.55078125 C-45.24801518 50.93626258 -45.24801518 50.93626258 -43.484375 48.8671875 C-42.20691406 48.60808594 -40.92945313 48.34898437 -39.61328125 48.08203125 C-36.50912579 47.43837384 -36.50912579 47.43837384 -34.19482422 45.39501953 C-33.13701737 43.44386133 -32.26152808 41.48410773 -31.421875 39.4296875 C-30.75844383 37.96798408 -30.09044174 36.50834699 -29.41796875 35.05078125 C-28.93239502 33.97739502 -28.93239502 33.97739502 -28.43701172 32.88232422 C-24.49682373 24.5475442 -10.08643556 -0.53921196 0 0 Z " fill="#9869CA" transform="translate(184.484375,343.1328125)"/>
<path d="M0 0 C1.0211792 0.17740723 1.0211792 0.17740723 2.06298828 0.35839844 C27.60542586 4.89747959 51.54545231 16.16751614 72 32 C72.93972656 32.71671875 73.87945312 33.4334375 74.84765625 34.171875 C104.83785501 57.81882308 126.35750856 92.48751756 134 130 C134 131.32 134 132.64 134 134 C128.72 134 123.44 134 118 134 C117.195625 130.535 117.195625 130.535 116.375 127 C108.88479339 96.54734487 91.50840421 67.82504536 67 48 C66.48695313 47.58186035 65.97390625 47.1637207 65.4453125 46.73291016 C33.61764129 21.13442225 -6.67189792 10.41155262 -47.09326172 14.29736328 C-76.0629464 17.91796475 -103.75514895 30.137372 -126 49 C-126.61166016 49.51675293 -127.22332031 50.03350586 -127.85351562 50.56591797 C-152.31121666 71.54349734 -170.67477774 102.04866641 -176 134 C-181.28 134 -186.56 134 -192 134 C-189.50236967 116.51658767 -183.7580142 100.01864114 -174.89575195 84.75830078 C-172.61114116 80.71060374 -171.22823714 77.77951386 -172 73 C-173.37926773 70.65738392 -173.37926773 70.65738392 -175 69 C-173.54420484 66.87322106 -172.08549775 64.7485458 -170.625 62.625 C-170.2125 62.02171875 -169.8 61.4184375 -169.375 60.796875 C-167.6977605 58.36217249 -166.09532229 56.09532229 -164 54 C-161.8918457 54.06396484 -161.8918457 54.06396484 -159.36328125 54.3359375 C-155.06282807 54.41467493 -153.10595838 53.82297307 -149.98046875 50.8515625 C-148.69268082 49.46412431 -147.42909928 48.05392048 -146.1875 46.625 C-144.80124346 45.14051765 -143.40926796 43.66135591 -142.01171875 42.1875 C-141.33286621 41.465625 -140.65401367 40.74375 -139.95458984 40 C-135.45111005 35.39189277 -130.30637042 31.63504841 -125 28 C-124.41347656 27.59620117 -123.82695312 27.19240234 -123.22265625 26.77636719 C-87.30060873 2.41696604 -42.95713482 -7.90956768 0 0 Z " fill="#F4E97D" transform="translate(285,17)"/>
<path d="M0 0 C-0.87914062 0.64324219 -1.75828125 1.28648438 -2.6640625 1.94921875 C-6.64554586 5.27801906 -8.8904924 9.31463778 -11.375 13.8125 C-11.84905273 14.65272705 -12.32310547 15.4929541 -12.81152344 16.35864258 C-32.13989159 49.07101222 -32.13989159 49.07101222 -40 85 C-59.2149004 90.34179417 -77.06859011 92.17569313 -97 92 C-97.1959375 91.35933594 -97.391875 90.71867187 -97.59375 90.05859375 C-99.9884662 83.13249647 -103.11433098 79.31425254 -109 75 C-108.05315264 65.68933432 -102.88172916 59.83940289 -97 53 C-96.5270752 52.44731445 -96.05415039 51.89462891 -95.56689453 51.32519531 C-73.58056033 25.92705985 -44.17724856 8.43112116 -11.5625 0.5 C-10.85867187 0.32750732 -10.15484375 0.15501465 -9.4296875 -0.02270508 C-6.00696693 -0.79054772 -3.32829841 -1.29386537 0 0 Z " fill="#555D74" transform="translate(232,78)"/>
<path d="M0 0 C1.11181641 -0.01998047 2.22363281 -0.03996094 3.36914062 -0.06054688 C11.39974035 -0.05579223 16.95862749 1.060326 23.0546875 6.40234375 C23.59351563 7.05332031 24.13234375 7.70429688 24.6875 8.375 C25.51894531 9.34759766 25.51894531 9.34759766 26.3671875 10.33984375 C29.49688607 14.882136 30.07053986 18.80801001 30.11889648 24.2722168 C30.12722 24.93963394 30.13554352 25.60705109 30.14411926 26.29469299 C30.16812993 28.49209509 30.17698195 30.68919953 30.18359375 32.88671875 C30.1925697 34.42503441 30.20169171 35.96334923 30.21095276 37.50166321 C30.22742305 40.72533279 30.23513878 43.94889879 30.23803711 47.17260742 C30.24340674 51.28037684 30.28103502 55.38715624 30.32678127 59.49464703 C30.35670117 62.67335962 30.36376394 65.85183862 30.36476326 69.0306797 C30.36893914 70.54360277 30.38126642 72.05652826 30.40228081 73.56931114 C30.52762939 83.37661492 29.98625232 91.84543169 23.02757263 99.366745 C16.341165 105.72211362 9.00030252 105.80145639 0.1875 105.8125 C-1.36710937 105.84923828 -1.36710937 105.84923828 -2.953125 105.88671875 C-3.95085937 105.89058594 -4.94859375 105.89445312 -5.9765625 105.8984375 C-6.88100098 105.90665527 -7.78543945 105.91487305 -8.71728516 105.92333984 C-11.98535391 105.28057874 -13.16865628 104.04027326 -15.1875 101.4375 C-15.89510196 95.67559835 -14.63366866 91.11742197 -13.01977539 85.60473633 C-10.10620311 74.51709385 -9.7880707 63.20022823 -9.8125 51.8125 C-9.81138214 51.07369598 -9.81026428 50.33489197 -9.80911255 49.57369995 C-9.81885995 36.45210399 -11.01046974 23.96859079 -15.1875 11.4375 C-15.390625 9.5 -15.390625 9.5 -15.4375 7.4375 C-15.47617187 6.4165625 -15.47617187 6.4165625 -15.515625 5.375 C-14.28327336 -1.90174303 -5.5366117 -0.03470241 0 0 Z " fill="#8ADD9D" transform="translate(407.1875,165.5625)"/>
<path d="M0 0 C1.71123047 -0.02416992 1.71123047 -0.02416992 3.45703125 -0.04882812 C4.55402344 -0.04947266 5.65101562 -0.05011719 6.78125 -0.05078125 C7.78220703 -0.05376221 8.78316406 -0.05674316 9.81445312 -0.05981445 C12.93129566 0.37229326 14.30909156 1.06957233 16.5 3.3125 C17.09533671 9.16559985 16.03039694 14.28939826 14.5625 19.9375 C14.19740356 21.38756501 13.83408767 22.83807963 13.47265625 24.2890625 C13.31031494 24.91893066 13.14797363 25.54879883 12.98071289 26.19775391 C11.14902084 34.25571051 11.25942967 42.28565732 11.25 50.5 C11.24749237 51.64208923 11.24749237 51.64208923 11.24493408 52.80725098 C11.24325433 65.54848616 11.49977756 78.33357342 15.578125 90.5390625 C16.89036403 94.48690026 16.90201503 97.15834472 16.5 101.3125 C14.47165869 103.96611945 13.27284037 105.15441224 9.96972656 105.83007812 C9.03612305 105.83458984 8.10251953 105.83910156 7.140625 105.84375 C5.58988281 105.85148437 5.58988281 105.85148437 4.0078125 105.859375 C2.93273437 105.84390625 1.85765625 105.8284375 0.75 105.8125 C-0.30960938 105.82796875 -1.36921875 105.8434375 -2.4609375 105.859375 C-10.09948883 105.82146656 -15.59423701 104.60439062 -21.48828125 99.63671875 C-21.92527344 99.09660156 -22.36226563 98.55648437 -22.8125 98 C-23.48732422 97.20142578 -23.48732422 97.20142578 -24.17578125 96.38671875 C-27.6028462 91.01866127 -28.8755352 86.57314161 -28.90405273 80.21899414 C-28.91091599 79.54807236 -28.91777924 78.87715057 -28.92485046 78.18589783 C-28.94300561 75.98959601 -28.93929753 73.79401628 -28.93359375 71.59765625 C-28.93816103 70.05740632 -28.94346822 68.51715843 -28.94947815 66.97691345 C-28.95838709 63.75674128 -28.95601164 60.53681741 -28.94604492 57.31665039 C-28.93455837 53.20659806 -28.95477241 49.09740534 -28.98396206 44.98746586 C-29.00237994 41.80881887 -29.00202056 38.63037577 -28.99632454 35.45168877 C-28.996172 33.93714632 -29.00215994 32.42258945 -29.01461601 30.90809822 C-29.08036219 21.60469479 -28.98302076 14.33838655 -22.5 7.0703125 C-21.84 6.53148437 -21.18 5.99265625 -20.5 5.4375 C-19.84 4.88320312 -19.18 4.32890625 -18.5 3.7578125 C-12.5714709 -0.52647611 -7.12124653 -0.02011652 0 0 Z " fill="#54D179" transform="translate(103.5,165.6875)"/>
<path d="M0 0 C0 4.95 0 9.9 0 15 C-1.546875 15.42410156 -3.09375 15.84820312 -4.6875 16.28515625 C-16.91829248 19.70190319 -28.60629198 23.37483331 -40 29 C-40.92401611 29.44182617 -40.92401611 29.44182617 -41.86669922 29.89257812 C-75.54969293 46.09962005 -102.18362674 76.41757432 -114.90771484 111.50292969 C-117.46004946 118.95017189 -119.70434607 126.22607643 -121 134 C-126.28 134 -131.56 134 -137 134 C-134.50236967 116.51658767 -128.7580142 100.01864114 -119.89575195 84.75830078 C-117.61114116 80.71060374 -116.22823714 77.77951386 -117 73 C-118.37926773 70.65738392 -118.37926773 70.65738392 -120 69 C-118.54420484 66.87322106 -117.08549775 64.7485458 -115.625 62.625 C-115.2125 62.02171875 -114.8 61.4184375 -114.375 60.796875 C-112.6977605 58.36217249 -111.09532229 56.09532229 -109 54 C-106.8918457 54.06396484 -106.8918457 54.06396484 -104.36328125 54.3359375 C-100.06282807 54.41467493 -98.10595838 53.82297307 -94.98046875 50.8515625 C-93.69268082 49.46412431 -92.42909928 48.05392048 -91.1875 46.625 C-89.80124346 45.14051765 -88.40926796 43.66135591 -87.01171875 42.1875 C-86.33286621 41.465625 -85.65401367 40.74375 -84.95458984 40 C-80.45111005 35.39189277 -75.30637042 31.63504841 -70 28 C-69.41347656 27.59620117 -68.82695312 27.19240234 -68.22265625 26.77636719 C-49.26606897 13.92155668 -23.54381145 0 0 0 Z " fill="#F4CD6F" transform="translate(230,17)"/>
<path d="M0 0 C6.49005988 3.6904262 10.90303859 7.63088855 13.1875 14.8125 C13.47992991 17.58115096 13.38713011 20.01767848 13.1875 22.8125 C14.321875 22.874375 15.45625 22.93625 16.625 23 C22.71656805 23.79783369 27.88411777 26.29709096 32.0546875 30.8515625 C36.93701188 37.27567353 37.95595709 41.69978871 37.1875 49.8125 C35.04734157 57.38040964 29.65191886 61.80313706 23.0625 65.625 C14.426673 69.19197202 3.77793126 69.1355532 -4.890625 65.71875 C-10.79123318 62.93634939 -15.05267096 59.09095706 -18.8125 53.8125 C-20.64485757 48.3154273 -20.9897627 41.84602755 -18.87109375 36.38671875 C-15.42492088 30.65029933 -10.70863746 26.91573024 -4.8125 23.8125 C-3.8225 23.8125 -2.8325 23.8125 -1.8125 23.8125 C-2.4725 21.1725 -3.1325 18.5325 -3.8125 15.8125 C-8.33361819 14.6598664 -8.33361819 14.6598664 -12.625 15.8125 C-14.30576633 18.64326434 -14.94976344 21.64913263 -15.8125 24.8125 C-17.8125 26.8125 -17.8125 26.8125 -21.6875 27.25 C-24.98656522 27.15402719 -25.64173613 26.95338019 -28.3125 24.75 C-30.24839424 20.95887377 -30.44670934 19.04056228 -29.8125 14.8125 C-24.81106901 1.60595642 -13.47415883 -4.19686914 0 0 Z " fill="#FEA1AB" transform="translate(325.8125,197.1875)"/>
<path d="M0 0 C5.11404765 3.50964054 8.0272224 7.18141438 10 13 C10.56525495 17.16875522 10.4106084 19.19589188 8.5 22.9375 C5.88152383 25.09774284 5.17448597 25.383661 1.9375 25.5625 C-2 25 -2 25 -3.875 23.4375 C-5.29265345 20.36591753 -6.1805553 17.27777881 -7 14 C-11.56561032 12.83842991 -11.56561032 12.83842991 -15.875 14.0625 C-17.37532687 16.64639628 -17.67264472 19.05380252 -18 22 C-17.01 22.185625 -16.02 22.37125 -15 22.5625 C-8.95653808 24.29446775 -4.72428344 28.73687798 -1 33.625 C0.8049574 39.71673124 1.61176043 46.58844043 -1.171875 52.48046875 C-6.35397427 59.59917729 -13.21797636 64.59286603 -22 66 C-32.65201695 66.79337367 -41.27480152 65.90469903 -49.875 59.25 C-54.91997389 54.46741246 -57.18869937 49.50452784 -57.625 42.5625 C-57.35408733 36.45003278 -55.28675091 32.32877788 -51 28 C-45.1327041 23.73858478 -40.2777543 20.84178795 -33 21 C-33.0825 19.845 -33.165 18.69 -33.25 17.5 C-33.21960531 11.76553554 -31.24189395 7.45359823 -27.38671875 3.234375 C-19.35069826 -4.10673462 -9.56525339 -5.23381789 0 0 Z " fill="#FEA1AB" transform="translate(206,199)"/>
<path d="M0 0 C1.2065625 0.27714844 2.413125 0.55429687 3.65625 0.83984375 C5.27078763 1.20593077 6.88537357 1.57180483 8.5 1.9375 C9.29148438 2.11990234 10.08296875 2.30230469 10.8984375 2.49023438 C12.07792969 2.75610352 12.07792969 2.75610352 13.28125 3.02734375 C13.99345703 3.18968506 14.70566406 3.35202637 15.43945312 3.51928711 C24.48514791 5.21751108 33.51607379 5.27982801 42.6875 5.3125 C43.46368683 5.31611542 44.23987366 5.31973083 45.0395813 5.32345581 C57.75082823 5.34723968 69.65470339 4.1987293 82 1 C83.33303295 0.66546742 84.66628779 0.33181417 86 0 C82.38763622 12.42300713 76.26702108 23.32867852 65.0625 30.375 C63.39316178 31.28417059 61.70605345 32.16175012 60 33 C59.31550781 33.3403125 58.63101563 33.680625 57.92578125 34.03125 C48.99644259 37.70503505 36.38603353 37.4019994 27.3671875 34.16796875 C14.56074048 27.84927624 6.36106603 18.04286198 1 5 C0.61599788 3.34427319 0.26398196 1.67904807 0 0 Z " fill="#FBC8BB" transform="translate(213,355)"/>
<path d="M0 0 C9.9 0 19.8 0 30 0 C30.103125 4.021875 30.20625 8.04375 30.3125 12.1875 C30.38078003 14.07698364 30.38078003 14.07698364 30.45043945 16.00463867 C30.50902049 20.70812894 30.48723362 24.06982672 28.28125 28.28125 C23.05523612 31.01868584 17.97815117 30.52175602 12.1875 30.3125 C6.1546875 30.1578125 6.1546875 30.1578125 0 30 C0 20.1 0 10.2 0 0 Z " fill="#FEDCCE" transform="translate(339,467)"/>
<path d="M0 0 C9.9 0 19.8 0 30 0 C30 9.9 30 19.8 30 30 C25.978125 30.103125 21.95625 30.20625 17.8125 30.3125 C16.55284424 30.35802002 15.29318848 30.40354004 13.99536133 30.45043945 C9.29187106 30.50902049 5.93017328 30.48723362 1.71875 28.28125 C-1.01868584 23.05523612 -0.52175602 17.97815117 -0.3125 12.1875 C-0.209375 8.165625 -0.10625 4.14375 0 0 Z " fill="#FECABD" transform="translate(143,467)"/>
<path d="M0 0 C10 0 10 0 13.08569336 1.796875 C15.93104947 6.55788408 15.6976056 10.79788635 15.62890625 16.25 C15.63131821 17.34086914 15.63373016 18.43173828 15.63621521 19.55566406 C15.63523705 21.85876099 15.62185114 24.16188152 15.59692383 26.46484375 C15.56261887 29.9877926 15.57626748 33.50823252 15.59570312 37.03125 C15.58880452 39.270844 15.57913201 41.51043153 15.56640625 43.75 C15.57136612 44.80219727 15.57632599 45.85439453 15.58143616 46.93847656 C15.51399794 51.13101109 15.28790496 54.3158281 13.65209961 58.203125 C11 60 11 60 0 60 C0 40.2 0 20.4 0 0 Z " fill="#F5EA7E" transform="translate(452,188)"/>
<path d="M0 0 C0 19.8 0 39.6 0 60 C-11 60 -11 60 -13.65209961 58.203125 C-15.67438043 53.39741509 -15.5907613 48.9167315 -15.56640625 43.75 C-15.57260483 42.65913086 -15.57880341 41.56826172 -15.58518982 40.44433594 C-15.59228389 38.14128511 -15.58912126 35.83818296 -15.57641602 33.53515625 C-15.56254748 30.01206132 -15.59663399 26.49162082 -15.63476562 22.96875 C-15.63571681 20.72916602 -15.63385805 18.48957871 -15.62890625 16.25 C-15.64216446 15.19780273 -15.65542267 14.14560547 -15.66908264 13.06152344 C-15.61124789 8.51839365 -15.44707707 5.74807437 -13.08569336 1.796875 C-10 0 -10 0 0 0 Z " fill="#F5CE6F" transform="translate(60,188)"/>
<path d="M0 0 C6.56257213 3.73165866 10.75663603 7.64281695 13.1875 14.8125 C13.75275495 18.98125522 13.5981084 21.00839188 11.6875 24.75 C9.06902383 26.91024284 8.36198597 27.196161 5.125 27.375 C1.1875 26.8125 1.1875 26.8125 -0.6875 25.25 C-2.10515345 22.17841753 -2.9930553 19.09027881 -3.8125 15.8125 C-8.33361819 14.6598664 -8.33361819 14.6598664 -12.625 15.8125 C-14.30576633 18.64326434 -14.94976344 21.64913263 -15.8125 24.8125 C-17.8125 26.8125 -17.8125 26.8125 -21.6875 27.25 C-24.98656522 27.15402719 -25.64173613 26.95338019 -28.3125 24.75 C-30.24839424 20.95887377 -30.44670934 19.04056228 -29.8125 14.8125 C-24.81106901 1.60595642 -13.47415883 -4.19686914 0 0 Z " fill="#050404" transform="translate(325.8125,197.1875)"/>
<path d="M0 0 C5.11404765 3.50964054 8.0272224 7.18141438 10 13 C10.56525495 17.16875522 10.4106084 19.19589188 8.5 22.9375 C5.88152383 25.09774284 5.17448597 25.383661 1.9375 25.5625 C-2 25 -2 25 -3.875 23.4375 C-5.29265345 20.36591753 -6.1805553 17.27777881 -7 14 C-11.52111819 12.8473664 -11.52111819 12.8473664 -15.8125 14 C-17.21008017 16.15703416 -17.21008017 16.15703416 -18 19.5625 C-19 23 -19 23 -22 25 C-25.4375 25.4375 -25.4375 25.4375 -29 25 C-32.11339852 22.36558587 -32.89220495 20.71414217 -33.5 16.6875 C-32.52788162 9.51812697 -29.4731945 4.62528724 -23.78125 0.1875 C-16.35887398 -4.76075068 -7.58683089 -4.15128483 0 0 Z " fill="#050404" transform="translate(206,199)"/>
<path d="M0 0 C1.46206042 1.27135688 2.92315437 2.545193 4.3359375 3.87109375 C7.06473118 5.72231763 9.59681963 5.61132056 12.8125 5.4375 C16.62572066 4.67485587 19.25208698 2.74791302 22 0 C25.85797355 -0.36395977 28.15988698 -0.56007535 31.4375 1.625 C33.51114192 4.77693571 33.66859841 6.28556438 33 10 C29.43853524 15.8170591 24.4809343 18.96879084 18 21 C9.02229152 22.27518425 1.43955705 21.35816869 -6 16 C-9.1469913 13.33825906 -10.81452133 11.03043704 -11.5625 6.875 C-11 4 -11 4 -9.4375 1.625 C-6.00932673 -0.66044885 -4.04989831 -0.6284325 0 0 Z " fill="#040303" transform="translate(245,226)"/>
<path d="M0 0 C1.16015625 0.26554687 2.3203125 0.53109375 3.515625 0.8046875 C12.30976803 2.79915767 21.07532233 4.67004803 30 6 C29.44570312 7.15757812 28.89140625 8.31515625 28.3203125 9.5078125 C27.58836036 11.04678878 26.85659964 12.58585612 26.125 14.125 C25.76019531 14.88554687 25.39539063 15.64609375 25.01953125 16.4296875 C23.06185017 20.55861487 21.33077028 24.61546214 20 29 C10.48081362 23.42779334 5.14595916 15.08664561 1 5 C0.61599788 3.34427319 0.26398196 1.67904807 0 0 Z " fill="#F9B6AA" transform="translate(213,355)"/>
</svg>
