<?xml version="1.0" standalone="no"?>
<!DOCTYPE svg PUBLIC "-//W3C//DTD SVG 20010904//EN"
 "http://www.w3.org/TR/2001/REC-SVG-20010904/DTD/svg10.dtd">
<svg version="1.0" xmlns="http://www.w3.org/2000/svg"
 width="512.000000pt" height="512.000000pt" viewBox="0 0 512.000000 512.000000"
 preserveAspectRatio="xMidYMid meet">

<g transform="translate(0.000000,512.000000) scale(0.100000,-0.100000)"
fill="#000000" stroke="none">
<path d="M1004 4891 c-230 -62 -406 -229 -481 -456 -23 -69 -26 -97 -27 -205
0 -111 3 -134 28 -205 15 -44 41 -105 59 -135 39 -71 176 -208 247 -247 78
-45 195 -82 281 -89 41 -4 80 -11 86 -17 7 -5 31 -41 52 -81 49 -87 72 -113
125 -137 47 -21 76 -23 129 -8 55 15 92 53 146 149 l48 85 72 7 c178 18 315
81 431 198 137 138 191 262 198 455 3 90 0 137 -12 185 -56 225 -229 411 -456
491 -63 22 -78 23 -460 26 -362 2 -401 1 -466 -16z m828 -142 c143 -30 288
-138 355 -265 139 -261 42 -582 -217 -718 -73 -39 -175 -66 -248 -66 -51 0
-110 -28 -143 -68 -13 -15 -42 -60 -64 -100 -57 -103 -77 -102 -135 3 -75 136
-99 153 -247 171 -241 30 -403 164 -470 388 -22 75 -19 216 6 297 53 168 206
312 377 353 75 18 704 22 786 5z"/>
<path d="M1094 4298 c-22 -10 -44 -47 -44 -73 0 -8 11 -26 23 -41 43 -50 116
-29 132 38 6 22 1 33 -23 58 -32 31 -52 36 -88 18z"/>
<path d="M1413 4300 c-46 -19 -56 -74 -20 -116 46 -54 127 -25 129 46 1 25 -6
39 -26 57 -29 24 -47 27 -83 13z"/>
<path d="M1715 4285 c-43 -42 -28 -103 28 -124 77 -30 135 77 71 128 -35 28
-69 26 -99 -4z"/>
<path d="M3280 4903 c-198 -33 -400 -183 -489 -364 -56 -114 -72 -183 -72
-309 0 -203 77 -374 228 -510 107 -95 298 -170 434 -170 37 0 41 -3 67 -50 77
-143 118 -184 197 -196 90 -13 160 34 225 151 22 40 46 77 53 82 6 6 45 13 86
17 86 7 203 45 280 88 75 43 183 148 232 225 248 393 43 908 -409 1024 -68 17
-109 19 -441 18 -201 -1 -377 -4 -391 -6z m771 -153 c181 -34 346 -184 401
-365 58 -189 7 -389 -137 -530 -94 -93 -239 -154 -370 -155 -55 -1 -117 -31
-147 -71 -14 -19 -41 -64 -61 -100 -57 -105 -74 -103 -139 14 -66 117 -116
157 -200 157 -74 0 -175 27 -249 66 -314 165 -376 589 -123 840 67 66 158 118
247 140 65 15 698 19 778 4z"/>
<path d="M3306 4289 c-64 -51 -6 -158 71 -128 56 21 71 82 28 124 -30 30 -64
32 -99 4z"/>
<path d="M3624 4287 c-54 -46 -23 -130 47 -130 33 0 79 39 79 68 0 27 -23 63
-47 74 -35 16 -49 14 -79 -12z"/>
<path d="M3938 4280 c-24 -25 -29 -36 -23 -58 16 -67 89 -88 132 -38 26 30 28
44 12 79 -11 25 -47 47 -75 47 -9 0 -29 -14 -46 -30z"/>
<path d="M1285 3194 c-178 -27 -328 -70 -440 -126 -83 -42 -95 -54 -95 -99 0
-36 -4 -41 -60 -79 -49 -33 -64 -39 -79 -30 -49 25 -73 14 -163 -80 -170 -176
-294 -400 -349 -628 -11 -48 -32 -109 -46 -136 -65 -125 -69 -268 -10 -383 14
-27 17 -66 17 -240 0 -232 8 -279 64 -398 96 -203 285 -333 527 -360 l56 -6
-28 -82 c-51 -148 -62 -268 -28 -311 l20 -26 743 0 743 0 21 23 c17 18 22 36
22 79 0 156 -81 365 -198 514 -21 27 -41 54 -45 61 -5 7 20 29 65 59 209 138
371 371 439 630 22 82 24 107 23 324 -1 219 -3 242 -26 331 -15 53 -38 119
-53 148 l-26 53 20 15 c31 21 70 94 77 144 12 86 -7 124 -114 229 -186 183
-405 298 -677 355 -78 16 -337 28 -400 19z m979 -876 c55 -115 71 -212 71
-433 0 -154 -4 -204 -19 -265 -46 -181 -127 -320 -259 -447 -176 -169 -386
-253 -632 -253 -174 0 -327 42 -478 131 -98 57 -247 209 -309 314 -115 194
-154 432 -109 652 39 189 114 289 260 349 l56 24 692 0 692 0 35 -72z m-1888
-263 c-3 -9 -11 -57 -17 -108 -12 -100 -6 -240 15 -330 13 -54 12 -57 -6 -57
-32 0 -84 27 -126 65 -117 105 -115 279 3 383 57 50 144 81 131 47z m747
-1249 c204 -59 419 -57 632 8 l49 15 28 -32 c99 -115 173 -253 202 -376 l14
-61 -99 0 -99 0 0 94 c0 90 -1 96 -26 115 -33 26 -65 27 -95 2 -22 -17 -24
-29 -27 -115 l-4 -96 -284 0 -284 0 0 90 c0 83 -2 93 -25 115 -31 32 -69 32
-100 0 -23 -22 -25 -32 -25 -115 l0 -90 -95 0 c-111 0 -108 -4 -74 106 25 82
58 148 112 228 37 55 105 136 113 136 2 0 41 -11 87 -24z"/>
<path d="M1023 1980 c-33 -14 -43 -42 -43 -125 0 -67 3 -79 25 -100 30 -30 64
-32 99 -4 24 19 26 26 26 104 0 64 -4 87 -17 103 -21 25 -60 35 -90 22z"/>
<path d="M2073 1966 c-26 -23 -28 -29 -28 -106 0 -77 2 -83 28 -106 36 -31 71
-31 102 1 22 21 25 32 25 102 -1 81 -8 101 -47 121 -32 17 -49 15 -80 -12z"/>
<path d="M1414 1878 c-54 -26 -55 -90 -2 -139 75 -68 186 -88 276 -49 57 25
122 89 122 121 0 26 -52 79 -78 79 -10 0 -37 -13 -60 -29 -62 -45 -111 -46
-167 -1 -40 32 -57 35 -91 18z"/>
<path d="M3490 3185 c-292 -48 -537 -171 -744 -373 -78 -76 -105 -126 -106
-193 0 -52 39 -139 76 -168 l24 -19 -30 -63 c-58 -126 -80 -255 -80 -487 0
-192 20 -312 76 -451 73 -184 231 -378 392 -485 65 -43 72 -50 60 -66 -7 -10
-34 -47 -60 -82 -102 -140 -166 -305 -175 -454 -5 -86 -4 -92 18 -112 l23 -22
742 0 743 0 20 26 c24 30 26 67 10 164 -23 147 -101 315 -201 440 -28 34 -48
63 -46 64 1 2 31 22 66 45 132 89 269 241 342 382 l34 66 61 6 c209 20 362
174 382 382 7 74 -9 149 -47 225 -15 30 -38 96 -50 145 -61 242 -183 458 -361
638 -106 106 -131 117 -183 76 -49 -39 -38 -68 72 -183 135 -140 210 -253 276
-415 l25 -63 -22 6 c-12 3 -48 9 -79 12 -56 7 -57 7 -92 63 -64 104 -167 186
-292 233 -59 23 -63 23 -797 28 l-739 5 -19 24 c-10 13 -19 32 -19 42 0 25 57
87 147 159 186 150 400 236 651 262 193 19 417 -18 589 -97 42 -19 85 -35 97
-35 51 0 85 54 66 104 -17 45 -193 119 -375 158 -120 26 -360 32 -475 13z
m823 -804 c20 -6 65 -31 99 -54 129 -89 188 -226 196 -460 3 -76 0 -153 -7
-190 -69 -361 -329 -643 -679 -734 -132 -34 -306 -36 -436 -4 -330 80 -581
323 -678 657 -21 71 -23 100 -23 289 0 166 4 226 18 285 16 68 64 188 87 215
13 16 1373 13 1423 -4z m537 -349 c52 -32 105 -112 115 -174 22 -129 -71 -269
-199 -298 -20 -4 -36 -7 -36 -6 0 0 7 35 16 76 18 86 20 297 4 379 -5 29 -10
56 -10 59 0 12 69 -11 110 -36z m-1410 -1238 c180 -46 371 -42 558 12 l87 26
47 -53 c90 -102 172 -263 193 -381 l7 -38 -96 0 -96 0 0 90 c0 83 -2 93 -25
115 -30 30 -64 32 -99 4 -25 -19 -26 -25 -26 -115 l0 -94 -285 0 -285 0 0 90
c0 83 -2 93 -25 115 -32 33 -74 33 -106 -1 -21 -22 -24 -37 -27 -115 l-4 -89
-90 0 -91 0 7 46 c3 25 19 79 36 120 50 125 179 308 210 297 8 -2 58 -16 110
-29z"/>
<path d="M2973 1979 c-37 -13 -53 -49 -53 -116 0 -73 13 -107 47 -122 34 -16
47 -14 77 10 24 19 26 26 26 103 0 90 -13 120 -53 128 -13 3 -33 1 -44 -3z"/>
<path d="M4034 1975 c-39 -16 -44 -30 -44 -121 0 -66 3 -78 25 -99 13 -14 36
-25 50 -25 14 0 37 11 50 25 22 21 25 32 25 102 -1 48 -6 85 -14 95 -21 28
-58 38 -92 23z"/>
<path d="M3370 1883 c-33 -12 -50 -37 -50 -74 0 -32 6 -43 42 -74 106 -90 267
-82 356 20 38 43 40 65 9 101 -29 34 -77 37 -110 7 -55 -50 -111 -53 -164 -9
-32 26 -61 37 -83 29z"/>
</g>
</svg>
