<?xml version="1.0" encoding="UTF-8"?>
<svg version="1.1" xmlns="http://www.w3.org/2000/svg" width="512" height="512">
<path d="M0 0 C1.07075775 0.00506058 1.07075775 0.00506058 2.16314697 0.01022339 C38.32039181 0.25629031 71.30708747 13.90462805 97.125 39.3125 C97.92502441 40.09705566 97.92502441 40.09705566 98.74121094 40.89746094 C104.00231002 46.28210833 106.24160327 50.77223264 106.25 58.3125 C106.10434264 65.20937598 104.96482261 69.87790057 100.30078125 75.14453125 C98.8125 76.4375 98.8125 76.4375 96.8125 76.4375 C97.40998047 77.74460937 97.40998047 77.74460937 98.01953125 79.078125 C110.95832837 108.16680759 112.37409478 145.2778285 101.35253906 175.29101562 C96.84665618 186.82477132 91.02310264 197.11226488 82.8125 206.4375 C82.14863281 207.24445313 81.48476562 208.05140625 80.80078125 208.8828125 C73.53847704 217.4472304 64.58273416 224.87287415 54.8125 230.4375 C56.21112344 233.61337975 58.10256794 236.24302785 60.18896484 239.00366211 C71.22633258 253.7057648 78.83243569 271.45833555 79 290.125 C79.01417969 290.85074219 79.02835938 291.57648438 79.04296875 292.32421875 C78.7692306 294.83425844 78.21533959 296.33545329 76.8125 298.4375 C73.4838585 300.58687953 70.73407472 300.69066678 66.82240295 300.69819641 C64.98229393 300.70882362 64.98229393 300.70882362 63.10501099 300.71966553 C61.74847375 300.71737178 60.39193687 300.71486209 59.03540039 300.7121582 C57.60451491 300.71650616 56.17363176 300.72168959 54.74275208 300.72764587 C50.85845335 300.74103805 46.97425191 300.74161432 43.08993459 300.73908257 C39.84684383 300.73801302 36.60377278 300.74289581 33.36068624 300.747688 C25.70959942 300.7587839 18.05856168 300.7592201 10.4074707 300.75317383 C2.51510789 300.74713279 -5.37707671 300.75944811 -13.26940912 300.7807439 C-20.04659345 300.79835811 -26.82372104 300.80436155 -33.60092741 300.80110615 C-37.64816957 300.79929288 -41.6952846 300.80193379 -45.74250603 300.81582069 C-49.5486062 300.82839157 -53.35442848 300.82646213 -57.16052437 300.81340981 C-58.55651569 300.81104285 -59.95252653 300.81378301 -61.34849548 300.82203293 C-63.25577785 300.83249091 -65.16313931 300.82260233 -67.07041931 300.8117218 C-68.67069426 300.81197341 -68.67069426 300.81197341 -70.303298 300.81223011 C-73.90917459 300.34373639 -76.5982728 299.0267272 -79.1875 296.4375 C-80.27292747 282.61164523 -77.8790873 270.10902817 -72.1875 257.4375 C-74.0128125 257.5303125 -74.0128125 257.5303125 -75.875 257.625 C-91.71518184 257.52599886 -106.86812305 250.31635975 -118.1875 239.4375 C-134.66567806 222.07512702 -137.76649422 202.55203397 -137.6875 179.625 C-137.40471429 164.85678356 -137.40471429 164.85678356 -141.27929688 150.77075195 C-142.79859747 146.86753803 -142.78584103 143.07995351 -142.6875 138.9375 C-142.67759033 138.11942871 -142.66768066 137.30135742 -142.6574707 136.45849609 C-142.42811568 128.96029397 -140.84945213 122.45090475 -136.6640625 116.140625 C-134.80781416 112.74241376 -134.12946572 109.31738183 -133.375 105.5625 C-127.55804527 79.20061652 -111.50764948 49.55137676 -89.1875 33.4375 C-86.02731166 32.58161566 -83.9910363 32.2056338 -80.83203125 33.1171875 C-77.21844799 33.5548741 -75.82275508 32.43187799 -72.875 30.375 C-71.99199219 29.78589844 -71.10898438 29.19679687 -70.19921875 28.58984375 C-67.53954783 25.74425409 -68.13436304 24.22954687 -68.1875 20.4375 C-65.4663684 15.76484977 -61.7890344 13.91604564 -56.9375 11.9375 C-56.23367187 11.64198242 -55.52984375 11.34646484 -54.8046875 11.04199219 C-37.02927448 3.74363533 -19.20692228 -0.17805612 0 0 Z " fill="#010101" transform="translate(142.1875,191.5625)"/>
<path d="M0 0 C0.68674805 0.19255371 1.37349609 0.38510742 2.08105469 0.58349609 C24.30944173 6.96416259 24.30944173 6.96416259 29 14 C28.979375 15.0725 28.95875 16.145 28.9375 17.25 C30.45605622 22.60961018 33.67035986 24.02547425 38.23828125 26.91015625 C39.14964844 27.26980469 40.06101562 27.62945312 41 28 C43.01661234 27.14020726 43.01661234 27.14020726 45 26 C53.45025193 26.22807698 58.9868511 33.78290639 64.46044922 39.53466797 C81.90067581 58.37542504 92.23365647 81.22507407 98.5 105.875 C99.7236288 110.53744765 101.61576624 114.58112154 103.9140625 118.80859375 C107.76804372 126.5858724 107.0392302 137.96418738 105.31640625 146.3125 C101.49970469 157.46170291 94.45463534 166.77930694 83.9375 172.3125 C79.57166446 174.29235565 75.27262203 176.16379258 70.3984375 175.8125 C67.14623215 175.66915211 65.03179756 175.76791972 62 177 C59.52287663 180.43199216 57.86520288 183.97613763 56.08984375 187.80078125 C48.7063918 203.44332147 34.32903091 215.88498565 20 225 C19.34 225 18.68 225 18 225 C18.70125 225.90878906 19.4025 226.81757813 20.125 227.75390625 C32.78896679 244.41595948 43.0933728 262.6279173 43.25 284.125 C43.2809375 285.19814453 43.2809375 285.19814453 43.3125 286.29296875 C43.35135261 291.48950533 43.35135261 291.48950533 41.671875 293.9296875 C38.20032265 296.15212989 35.12719388 296.12743437 31.12342834 296.13371277 C29.8966185 296.13797775 28.66980865 296.14224274 27.40582275 296.14663696 C26.04406735 296.14628744 24.68231197 296.14582591 23.32055664 296.14526367 C21.88819796 296.14825542 20.45584009 296.15165799 19.02348328 296.15544128 C15.1309502 296.16428336 11.2384391 296.16661947 7.34589696 296.16725707 C4.09779707 296.16820611 0.84970232 296.1718843 -2.3983956 296.17542917 C-10.0604402 296.18357434 -17.72247305 296.18601332 -25.38452148 296.18530273 C-33.29217927 296.18470175 -41.19976889 296.19525751 -49.10740942 296.2110464 C-55.89389141 296.22411457 -62.68035109 296.22948694 -69.46684557 296.22884732 C-73.52131169 296.22859215 -77.57571722 296.23145433 -81.63017082 296.24202538 C-85.44276495 296.25169434 -89.2552404 296.25179385 -93.06783867 296.24450874 C-94.46747511 296.24346144 -95.86711889 296.24583444 -97.26674271 296.2518692 C-99.17662847 296.25957101 -101.08655452 296.25375314 -102.9964447 296.24723816 C-104.06551528 296.24778293 -105.13458586 296.24832769 -106.23605251 296.24888897 C-109.03302067 295.99702654 -110.65856311 295.51728094 -113 294 C-117.56565947 286.98482799 -114.65630387 276.89084247 -113.0390625 269.1953125 C-109.6324957 254.54639802 -102.21200125 241.34538287 -92.50390625 229.9609375 C-90.79714524 228.14737122 -90.79714524 228.14737122 -91 226 C-92.87278784 224.62561538 -94.801471 223.32721424 -96.75 222.0625 C-120.02350124 206.39899334 -136.00687884 183.2151577 -141.96484375 155.71875 C-147.26823966 128.52086958 -145.67304138 96.98251189 -133 72 C-133.61488281 71.73058594 -134.22976563 71.46117187 -134.86328125 71.18359375 C-138.79055575 69.00815651 -140.61877076 65.14368772 -142 61 C-143.26345364 46.79517124 -143.26345364 46.79517124 -138.9140625 41.109375 C-138.28242188 40.41328125 -137.65078125 39.7171875 -137 39 C-136.58588867 38.53271484 -136.17177734 38.06542969 -135.74511719 37.58398438 C-118.23208577 18.09269647 -94.99212727 5.98602759 -70 -1 C-69.32130859 -1.19352051 -68.64261719 -1.38704102 -67.94335938 -1.58642578 C-47.05428511 -7.21744039 -20.59649034 -5.94592463 0 0 Z " fill="#020101" transform="translate(406,196)"/>
<path d="M0 0 C1.41996916 -0.00203098 2.83993729 -0.00495081 4.25990295 -0.00869751 C7.21039942 -0.01307437 10.16062007 -0.00684329 13.11108398 0.00732422 C16.84336088 0.02439767 20.57498924 0.01455706 24.30724239 -0.00339317 C27.23227083 -0.01437195 30.15715223 -0.01072096 33.08218575 -0.0030098 C35.11126769 -0.00010898 37.14035599 -0.00902496 39.16941833 -0.0184021 C58.38197064 0.12445912 74.43788828 4.35991185 89.66015625 16.3984375 C90.69140625 17.1409375 91.72265625 17.8834375 92.78515625 18.6484375 C106.11737545 31.40099499 113.55760552 48.15392427 114.01220703 66.47436523 C114.1612558 85.46539843 109.29932506 102.45474873 95.86474609 116.36962891 C80.55663651 131.55170259 63.99849825 137.48303525 42.66015625 138.3984375 C42.38429688 139.11257812 42.1084375 139.82671875 41.82421875 140.5625 C38.34822318 149.03086505 34.37378319 156.16830239 26.66015625 161.3984375 C21.16712745 163.2294471 14.82721921 163.47513386 9.3046875 161.59765625 C1.48927114 157.19865014 -2.26433086 148.82342224 -6.26171875 141.1484375 C-7.22891374 139.23434431 -7.22891374 139.23434431 -9.33984375 138.3984375 C-11.17509721 138.20569399 -13.010927 138.01705639 -14.84912109 137.85473633 C-34.38078308 136.05649549 -50.7013813 127.83842211 -63.53125 112.8359375 C-75.40538323 97.33422277 -80.14338718 79.69593567 -78.33984375 60.3984375 C-75.80193968 42.56094111 -66.96549211 27.12896928 -53.33984375 15.3984375 C-37.23270078 3.44236379 -19.66377059 -0.09073468 0 0 Z " fill="#4FDFCB" transform="translate(349.33984375,19.6015625)"/>
<path d="M0 0 C0.70209028 -0.00282738 1.40418056 -0.00565475 2.12754631 -0.00856781 C5.84716024 -0.0234924 9.56673609 -0.03276289 13.28637695 -0.03710938 C17.08278549 -0.04256791 20.87883069 -0.06655953 24.67512608 -0.09508133 C27.63440388 -0.11392444 30.59359816 -0.11892477 33.55293083 -0.12044525 C34.95005199 -0.12342643 36.34717337 -0.13129623 37.74423409 -0.14463043 C58.96959411 -0.33267483 78.63557775 4.89403587 94.43359375 19.765625 C108.6339752 34.71101851 114.86197226 52.18213583 114.51171875 72.76171875 C113.84197275 91.80455775 104.7287371 108.45940832 91.05859375 121.390625 C79.25725308 131.41063123 66.27782787 136.29225919 51.00708008 137.43286133 C47.08203737 137.73980792 47.08203737 137.73980792 43.55078125 139.33203125 C41.29656373 142.727535 39.40845103 146.32003288 37.53320312 149.93359375 C34.52562968 155.45240239 30.4136396 160.03643226 24.30859375 162.203125 C17.92844472 162.88734711 11.61946084 163.15539818 6.30859375 159.203125 C0.56049527 153.81180505 -3.41286239 147.33665999 -6.69140625 140.203125 C-6.69140625 139.543125 -6.69140625 138.883125 -6.69140625 138.203125 C-7.52800781 138.17734375 -8.36460938 138.1515625 -9.2265625 138.125 C-31.55450234 137.03703837 -47.94540951 128.80888543 -63.0078125 112.73046875 C-75.89166302 97.69523523 -78.83293737 79.97951291 -77.8984375 60.82226562 C-76.55873622 43.87378058 -67.55849704 27.85391236 -54.87109375 16.73046875 C-37.83196283 3.4061353 -21.11034021 0.05781095 0 0 Z " fill="#4FE0CC" transform="translate(126.69140625,19.796875)"/>
<path d="M0 0 C1.3061879 -0.0087616 2.61237579 -0.01752319 3.95814514 -0.02655029 C7.54154715 -0.04935362 11.12422957 -0.04049848 14.70764422 -0.02465487 C18.46788108 -0.01197698 22.22805717 -0.02374342 25.98829651 -0.03158569 C32.31262217 -0.04068691 38.63665615 -0.02869278 44.9609375 -0.00488281 C52.24437559 0.02222389 59.52711151 0.01359323 66.81053203 -0.01401484 C73.08003896 -0.03681869 79.34933619 -0.03984821 85.61887127 -0.02682149 C89.3556798 -0.01907479 93.09216037 -0.01784967 96.82894707 -0.03450394 C100.35295883 -0.04911081 103.87608232 -0.03863773 107.39999962 -0.01003265 C109.28800662 -0.0004229 111.17609005 -0.01499055 113.0640564 -0.03067017 C125.26450624 0.11807888 136.53357423 3.8785397 145.26782227 12.64697266 C150.68601689 18.94845149 154.02709075 25.67166759 156.26782227 33.64697266 C156.44514893 34.26725342 156.62247559 34.88753418 156.80517578 35.52661133 C158.53826938 42.27464689 158.61365587 48.89625202 158.58032227 55.83447266 C158.57295044 57.63585693 158.57295044 57.63585693 158.56542969 59.47363281 C158.28316662 80.81272036 151.07344956 100.27418326 137.26782227 116.64697266 C136.62329102 117.44876953 135.97875977 118.25056641 135.31469727 119.07666016 C120.26124381 136.97354371 97.34011609 147.52327288 74.26782227 149.64697266 C48.12576959 151.17371139 24.78352118 143.04264861 4.87182617 125.91894531 C-11.45492666 111.34593585 -22.37905366 90.42869018 -24.73217773 68.64697266 C-24.98705507 63.64929377 -25.06241201 58.67039191 -25.04785156 53.66699219 C-25.04470116 51.41372769 -25.06820942 49.16179399 -25.09350586 46.90869141 C-25.15610881 32.67938063 -23.61650203 18.38199749 -16.73217773 5.64697266 C-16.30633896 4.7827066 -15.88050018 3.91844055 -15.4417572 3.02798462 C-10.93682306 -0.93067473 -5.79071943 -0.04738376 0 0 Z " fill="#FEDBCD" transform="translate(302.732177734375,271.35302734375)"/>
<path d="M0 0 C1.31787003 -0.01474869 2.63574005 -0.02949738 3.99354553 -0.04469299 C8.34190516 -0.09165872 12.69028224 -0.11757661 17.03881836 -0.1418457 C18.54035427 -0.15126128 20.04188969 -0.16075582 21.54342461 -0.17032814 C27.78785746 -0.20876583 34.03227729 -0.24198541 40.27680302 -0.26069927 C49.20881064 -0.28754079 58.13937483 -0.34524663 67.07085997 -0.44646424 C73.36319244 -0.51532835 79.655141 -0.54966303 85.94784158 -0.55826408 C89.70222459 -0.56426335 93.4551178 -0.58518108 97.20909309 -0.64282799 C101.39416697 -0.70613587 105.5761909 -0.69798999 109.76171875 -0.68359375 C111.00085022 -0.71280914 112.23998169 -0.74202454 113.5166626 -0.77212524 C121.70350341 -0.66275568 121.70350341 -0.66275568 124.89463615 2.29884911 C128.1037322 6.9683895 130.10758768 12.06170193 131.62866211 17.49487305 C131.93320312 18.49067383 131.93320312 18.49067383 132.24389648 19.5065918 C134.26872344 26.33620615 134.9746786 33.01518464 135.01928711 40.11206055 C135.02498718 40.83869904 135.03068726 41.56533752 135.03656006 42.31399536 C135.0459573 43.84855725 135.0525229 45.38313884 135.05639648 46.91772461 C135.06599161 49.20424363 135.09701776 51.48981849 135.12866211 53.77612305 C135.32370155 80.49490436 126.71324377 104.32060245 107.82006836 123.5534668 C99.10655148 131.96641792 88.87261461 138.08522079 77.68432617 142.60717773 C75.90615828 143.33313128 74.15305485 144.11960332 72.40209961 144.90893555 C54.89755967 151.73532476 30.30403624 150.82954952 12.81616211 144.36987305 C11.78620117 144.01924805 10.75624023 143.66862305 9.69506836 143.30737305 C-12.73006326 134.90888422 -30.7054619 117.29551592 -40.55224609 95.69018555 C-49.90374997 74.24316341 -51.9477368 48.69742548 -44.18383789 26.36987305 C-42.82454623 23.07007535 -41.28193291 20.25180694 -39.18383789 17.36987305 C-38.70430664 16.68795898 -38.22477539 16.00604492 -37.73071289 15.3034668 C-27.98813986 2.84148624 -14.89139588 0.08364523 0 0 Z " fill="#D89C80" transform="translate(99.183837890625,271.630126953125)"/>
<path d="M0 0 C0.70209028 -0.00282738 1.40418056 -0.00565475 2.12754631 -0.00856781 C5.84716024 -0.0234924 9.56673609 -0.03276289 13.28637695 -0.03710938 C17.08278549 -0.04256791 20.87883069 -0.06655953 24.67512608 -0.09508133 C27.63440388 -0.11392444 30.59359816 -0.11892477 33.55293083 -0.12044525 C34.95005199 -0.12342643 36.34717337 -0.13129623 37.74423409 -0.14463043 C58.96959411 -0.33267483 78.63557775 4.89403587 94.43359375 19.765625 C108.6339752 34.71101851 114.86197226 52.18213583 114.51171875 72.76171875 C113.84197275 91.80455775 104.7287371 108.45940832 91.05859375 121.390625 C79.25725308 131.41063123 66.27782787 136.29225919 51.00708008 137.43286133 C47.08203737 137.73980792 47.08203737 137.73980792 43.55078125 139.33203125 C41.29656373 142.727535 39.40845103 146.32003288 37.53320312 149.93359375 C34.52562968 155.45240239 30.4136396 160.03643226 24.30859375 162.203125 C17.92844472 162.88734711 11.61946084 163.15539818 6.30859375 159.203125 C0.56049527 153.81180505 -3.41286239 147.33665999 -6.69140625 140.203125 C-6.69140625 139.543125 -6.69140625 138.883125 -6.69140625 138.203125 C-7.52800781 138.17734375 -8.36460938 138.1515625 -9.2265625 138.125 C-31.55450234 137.03703837 -47.94540951 128.80888543 -63.0078125 112.73046875 C-75.89166302 97.69523523 -78.83293737 79.97951291 -77.8984375 60.82226562 C-76.55873622 43.87378058 -67.55849704 27.85391236 -54.87109375 16.73046875 C-37.83196283 3.4061353 -21.11034021 0.05781095 0 0 Z M-43.69140625 28.203125 C-44.84576172 29.13705078 -44.84576172 29.13705078 -46.0234375 30.08984375 C-54.60918715 37.76875102 -61.79124082 50.53927929 -62.69140625 62.203125 C-62.82869141 63.86021484 -62.82869141 63.86021484 -62.96875 65.55078125 C-63.64867737 81.58711708 -57.91198901 95.50158503 -47.12890625 107.390625 C-36.88605706 117.01929948 -24.33899587 121.80467976 -10.44140625 122.640625 C-5.1139629 123.0365367 -0.83080989 123.63714524 3.30859375 127.203125 C6.55524529 131.4278473 9.0916688 136.01890073 11.6796875 140.6640625 C13.99476484 144.94612043 13.99476484 144.94612043 18.12109375 147.203125 C18.84296875 147.203125 19.56484375 147.203125 20.30859375 147.203125 C21.00984375 146.089375 21.71109375 144.975625 22.43359375 143.828125 C23.11808594 142.74144531 23.11808594 142.74144531 23.81640625 141.6328125 C24.83921283 139.96740492 25.83276056 138.28377484 26.80078125 136.5859375 C30.32482134 130.43256179 33.59882783 126.0126913 40.30859375 123.203125 C42.22050102 123.03261865 44.13965628 122.9368938 46.05859375 122.890625 C60.92382846 121.90517686 74.45055101 116.45464451 84.99609375 105.765625 C96.77820596 91.98798387 99.20947159 77.54061485 98.52636719 59.96337891 C97.56094274 47.72673223 89.76689941 37.26521097 81.18359375 28.953125 C67.67783437 17.61668449 53.06517449 15.88296433 36.07421875 15.83203125 C34.50779141 15.82303994 32.94136482 15.81391775 31.37493896 15.80467224 C28.1037794 15.78826778 24.83272113 15.78049789 21.56152344 15.77758789 C17.40833638 15.77221389 13.25612633 15.73453827 9.10321426 15.68884373 C5.87030723 15.6588272 2.63762856 15.65185906 -0.59540558 15.65086174 C-2.12455976 15.64670778 -3.65371778 15.63447246 -5.18273163 15.61334419 C-19.87534168 15.42646153 -32.16420933 18.59386577 -43.69140625 28.203125 Z " fill="#000101" transform="translate(126.69140625,19.796875)"/>
<path d="M0 0 C1.41996916 -0.00203098 2.83993729 -0.00495081 4.25990295 -0.00869751 C7.21039942 -0.01307437 10.16062007 -0.00684329 13.11108398 0.00732422 C16.84336088 0.02439767 20.57498924 0.01455706 24.30724239 -0.00339317 C27.23227083 -0.01437195 30.15715223 -0.01072096 33.08218575 -0.0030098 C35.11126769 -0.00010898 37.14035599 -0.00902496 39.16941833 -0.0184021 C58.38197064 0.12445912 74.43788828 4.35991185 89.66015625 16.3984375 C90.69140625 17.1409375 91.72265625 17.8834375 92.78515625 18.6484375 C106.11737545 31.40099499 113.55760552 48.15392427 114.01220703 66.47436523 C114.1612558 85.46539843 109.29932506 102.45474873 95.86474609 116.36962891 C80.55663651 131.55170259 63.99849825 137.48303525 42.66015625 138.3984375 C42.38429688 139.11257812 42.1084375 139.82671875 41.82421875 140.5625 C38.34822318 149.03086505 34.37378319 156.16830239 26.66015625 161.3984375 C21.16712745 163.2294471 14.82721921 163.47513386 9.3046875 161.59765625 C1.48927114 157.19865014 -2.26433086 148.82342224 -6.26171875 141.1484375 C-7.22891374 139.23434431 -7.22891374 139.23434431 -9.33984375 138.3984375 C-11.17509721 138.20569399 -13.010927 138.01705639 -14.84912109 137.85473633 C-34.38078308 136.05649549 -50.7013813 127.83842211 -63.53125 112.8359375 C-75.40538323 97.33422277 -80.14338718 79.69593567 -78.33984375 60.3984375 C-75.80193968 42.56094111 -66.96549211 27.12896928 -53.33984375 15.3984375 C-37.23270078 3.44236379 -19.66377059 -0.09073468 0 0 Z M-52.3515625 36.74609375 C-62.44833698 50.21576036 -64.13958885 63.97691322 -62.33984375 80.3984375 C-61.45452598 85.11580839 -59.65926888 89.20698904 -57.33984375 93.3984375 C-56.57800781 94.83703125 -56.57800781 94.83703125 -55.80078125 96.3046875 C-48.44759693 108.98980168 -36.52435279 117.6672734 -22.46484375 121.7109375 C-19.82183842 122.25677556 -17.19933589 122.52063477 -14.51171875 122.80859375 C-13.80772949 122.8861792 -13.10374023 122.96376465 -12.37841797 123.04370117 C-10.97036731 123.19321321 -9.56038207 123.32579753 -8.14892578 123.4387207 C-2.32218377 124.02565318 1.59660824 125.95119122 5.3828125 130.44140625 C5.82496094 131.14910156 6.26710938 131.85679687 6.72265625 132.5859375 C7.21765625 133.36324219 7.71265625 134.14054687 8.22265625 134.94140625 C10.07023584 138.09936158 11.72223051 141.34259418 13.2890625 144.6484375 C14.58693343 146.65923673 14.58693343 146.65923673 17.3125 147.1484375 C18.08722656 147.2309375 18.86195313 147.3134375 19.66015625 147.3984375 C23.32104625 143.11112854 25.93009008 138.47010992 28.484375 133.48242188 C30.87516317 129.0770851 33.18998294 126.66347051 37.66015625 124.3984375 C41.21875 123.74609375 41.21875 123.74609375 45.09765625 123.4609375 C60.63153653 121.93659319 74.97185415 116.27199015 85.81640625 104.671875 C95.11417599 93.20725214 99.54171797 79.55494576 99.04296875 64.80859375 C97.15562083 47.99579037 88.49135902 35.21601157 75.6640625 24.7734375 C64.25181736 16.91984945 51.93551062 15.64215557 38.5625 15.76953125 C36.95455261 15.76869957 35.34660533 15.76622898 33.73866272 15.76222229 C30.39281168 15.75938706 27.04763849 15.77384083 23.7019043 15.80151367 C19.45011964 15.8356208 15.19954237 15.82954733 10.94769955 15.8108511 C7.63499689 15.80019751 4.32256701 15.80929349 1.0098896 15.82423592 C-0.55632145 15.82935529 -2.12256173 15.82901347 -3.68876839 15.82269096 C-23.45966104 15.77280345 -39.27276434 21.48326328 -52.3515625 36.74609375 Z " fill="#000101" transform="translate(349.33984375,19.6015625)"/>
<path d="M0 0 C3.46835238 1.65724708 6.3295072 1.07912911 9.87670898 -0.10327148 C9.87670898 -0.76327148 9.87670898 -1.42327148 9.87670898 -2.10327148 C15.71327746 -1.28282858 20.04322842 1.42862253 23.87670898 5.89672852 C24.17667508 8.78185698 23.48252155 11.00746858 22.87670898 13.89672852 C24.80447331 17.33317797 27.53329257 19.454439 30.50170898 21.95922852 C45.14269106 34.55918149 57.63473809 54.01378042 61.87670898 72.89672852 C46.71518066 71.87345326 46.71518066 71.87345326 42.43530273 67.27172852 C40.77875922 64.19693776 39.32803956 61.07228944 37.87670898 57.89672852 C30.84872048 48.0013207 16.73300795 41.55524624 5.09635925 39.37605286 C-0.83027965 38.55174873 -6.82732842 38.75243005 -12.79785156 38.75488281 C-14.18154002 38.75184727 -15.56522748 38.74832472 -16.94891357 38.74435425 C-19.91719865 38.73649855 -22.8854719 38.73133312 -25.85376549 38.72806358 C-30.54755164 38.72213082 -35.2412629 38.70557179 -39.93501282 38.6867218 C-41.54439445 38.68038564 -43.15377613 38.67406 -44.76315784 38.66774464 C-45.56873587 38.66457883 -46.3743139 38.66141301 -47.20430338 38.65815127 C-58.12430791 38.6161154 -69.04427529 38.58306777 -79.96435547 38.57080078 C-87.34232518 38.56242793 -94.720107 38.53997403 -102.0979827 38.50144511 C-105.9992985 38.48167311 -109.90033338 38.46928396 -113.8017025 38.4742794 C-117.46678575 38.47891612 -121.1313349 38.46517507 -124.79631042 38.4372673 C-126.7826249 38.42703741 -128.76901038 38.43662155 -130.75532532 38.44676208 C-132.52799271 38.42806061 -132.52799271 38.42806061 -134.33647156 38.40898132 C-135.36347514 38.40659297 -136.39047873 38.40420462 -137.44860363 38.40174389 C-140.84058979 37.76129328 -142.025645 36.58919493 -144.12329102 33.89672852 C-144.69360352 31.00610352 -144.69360352 31.00610352 -144.12329102 27.89672852 C-142.46455512 25.67292875 -140.99745382 24.0092389 -138.99829102 22.14672852 C-138.45841553 21.62941162 -137.91854004 21.11209473 -137.36230469 20.57910156 C-100.95642808 -13.44805607 -44.81366401 -23.28537975 0 0 Z " fill="#E6A781" transform="translate(423.123291015625,219.103271484375)"/>
<path d="M0 0 C1.06474622 0.92039027 2.12601724 1.84481773 3.18359375 2.7734375 C3.70163574 3.22428711 4.21967773 3.67513672 4.75341797 4.13964844 C12.95338816 11.39397478 12.95338816 11.39397478 13.69140625 15.81640625 C13.05825497 19.50329484 12.09057969 20.47485309 9.18359375 22.7734375 C6.47881413 23.27007294 6.47881413 23.27007294 3.32325745 23.26550293 C2.12490768 23.2736351 0.92655792 23.28176727 -0.30810547 23.29014587 C-1.61980713 23.27883133 -2.93150879 23.26751678 -4.28295898 23.25585938 C-5.68116131 23.25804582 -7.0793618 23.26204344 -8.47755432 23.26771545 C-11.48855787 23.27628137 -14.49920498 23.27249485 -17.51019096 23.2592926 C-22.28190096 23.23893145 -27.053253 23.24894644 -31.82496643 23.2635498 C-42.82714884 23.29258478 -53.82922644 23.28189108 -64.83142853 23.27085114 C-74.89275617 23.26115357 -84.95389564 23.260049 -95.01519161 23.29073191 C-99.74683823 23.30402472 -104.47794381 23.29825925 -109.20955741 23.27736664 C-112.1722355 23.26830155 -115.13471094 23.27592616 -118.09737206 23.28777885 C-120.09992236 23.29088327 -122.10247385 23.27424547 -124.10494995 23.25672913 C-140.48059407 23.36555194 -154.63837871 29.12228985 -166.58203125 40.32421875 C-170.53216902 44.65417746 -173.21095861 49.56254222 -175.81640625 54.7734375 C-177.85546875 55.1171875 -177.85546875 55.1171875 -180.44140625 55.2734375 C-184.8354922 55.6206713 -188.63384876 56.40956006 -192.81640625 57.7734375 C-190.02494408 41.66437455 -179.41316487 26.77458582 -168.81640625 14.7734375 C-168.01589844 13.86335938 -167.21539062 12.95328125 -166.390625 12.015625 C-160.3731762 5.25953682 -160.3731762 5.25953682 -157.5390625 2.78515625 C-155.59203287 0.9142116 -155.59203287 0.9142116 -155.64453125 -1.5859375 C-155.78375 -2.37484375 -155.92296875 -3.16375 -156.06640625 -3.9765625 C-156.25976562 -5.17539063 -156.25976562 -5.17539063 -156.45703125 -6.3984375 C-156.575625 -7.00171875 -156.69421875 -7.605 -156.81640625 -8.2265625 C-155.2446655 -9.42936411 -153.65853067 -10.61337525 -152.06640625 -11.7890625 C-151.1846875 -12.45035156 -150.30296875 -13.11164063 -149.39453125 -13.79296875 C-146.81640625 -15.2265625 -146.81640625 -15.2265625 -144.61328125 -15.00390625 C-143.33072576 -14.44906159 -142.06630262 -13.85151069 -140.81640625 -13.2265625 C-135.19213971 -12.59603935 -131.52426758 -14.50184768 -126.62890625 -16.9140625 C-120.10789763 -19.97260666 -113.66882783 -22.36706751 -106.69140625 -24.1640625 C-105.9228833 -24.36281982 -105.15436035 -24.56157715 -104.36254883 -24.76635742 C-68.63982855 -33.53264528 -28.05014614 -23.54201336 0 0 Z " fill="#69637E" transform="translate(219.81640625,234.2265625)"/>
<path d="M0 0 C5.266436 1.00114427 10.46375181 2.28318384 15.67382812 3.5390625 C34.11545291 7.93226734 53.25692182 7.0962057 71.16015625 0.70703125 C74.31726906 -0.07898996 75.94759658 -0.09302235 79 1 C90.14964106 10.1689663 98.97025062 26.95298014 102 41 C102 42.98 102 44.96 102 47 C95.73 47 89.46 47 83 47 C82.75 38.25 82.75 38.25 82.70214844 35.51269531 C82.54141769 31.72790917 82.40514983 29.57468678 80.1796875 26.41796875 C77.92681205 24.66302478 77.92681205 24.66302478 74.375 25.0625 C70.74483076 25.6750845 70.74483076 25.6750845 69 29 C68.67 34.94 68.34 40.88 68 47 C49.19 47 30.38 47 11 47 C10.505 38.09 10.505 38.09 10 29 C9.505 27.515 9.505 27.515 9 26 C7.56589632 25.75045995 6.12739928 25.52607358 4.6875 25.3125 C3.88699219 25.18488281 3.08648437 25.05726563 2.26171875 24.92578125 C-0.03709976 24.78244424 -0.03709976 24.78244424 -1.609375 26.2265625 C-3.33739456 28.43027284 -3.41851995 29.67189442 -3.51171875 32.44921875 C-3.54483154 33.21322998 -3.57794434 33.97724121 -3.61206055 34.7644043 C-3.64940308 36.21133667 -3.64940308 36.21133667 -3.6875 37.6875 C-3.790625 40.760625 -3.89375 43.83375 -4 47 C-10.6 47 -17.2 47 -24 47 C-20.90106504 28.40639021 -12.26542105 14.18189309 0 0 Z " fill="#91B9E5" transform="translate(331,429)"/>
<path d="M0 0 C3.10715991 0.50937048 5.96780684 1.19000155 9 2 C20.39699901 4.67584426 20.39699901 4.67584426 32 6 C33.26972656 6.06445312 34.53945312 6.12890625 35.84765625 6.1953125 C48.09839872 6.6000576 61.4115018 5.63496604 72.82421875 0.8046875 C75 0 75 0 76.984375 -0.00390625 C80.19485472 1.59511175 82.10626303 4.2768446 84.25 7.0625 C84.97026367 7.9911084 84.97026367 7.9911084 85.70507812 8.93847656 C93.90125376 19.86852969 101 33.1438099 101 47 C94.73 47 88.46 47 82 47 C81.75 37.6875 81.75 37.6875 81.70214844 34.7644043 C81.6194042 29.88994684 81.6194042 29.88994684 79.11328125 25.91015625 C75.41606907 24.31782642 72.75287367 24.74904211 69 26 C66.77638932 32.67083203 67.39004712 39.97915192 67 47 C48.19 47 29.38 47 10 47 C9.505 38.09 9.505 38.09 9 29 C7.68 27.68 6.36 26.36 5 25 C1.37350049 24.91083846 1.37350049 24.91083846 -2 26 C-4.0140956 29.0211434 -4.26836596 29.80660017 -4.4140625 33.23046875 C-4.44967285 33.95387451 -4.4852832 34.67728027 -4.52197266 35.42260742 C-4.55597168 36.33502197 -4.5899707 37.24743652 -4.625 38.1875 C-4.74875 41.095625 -4.8725 44.00375 -5 47 C-11.27 47 -17.54 47 -24 47 C-23.25678139 30.15371151 -13.86255176 15.44470604 -3 3 C-2.50628906 2.40058594 -2.01257813 1.80117188 -1.50390625 1.18359375 C-0.75947266 0.59771484 -0.75947266 0.59771484 0 0 Z " fill="#FBD69D" transform="translate(103,429)"/>
<path d="M0 0 C0.94875 0.00902344 1.8975 0.01804688 2.875 0.02734375 C3.57625 0.03894531 4.2775 0.05054688 5 0.0625 C2.43900831 3.02226202 -0.46381049 4.44433945 -3.9375 6.1875 C-10.84244102 9.83220161 -16.90968716 14.16567786 -23 19.0625 C-23.72960937 19.63742188 -24.45921875 20.21234375 -25.2109375 20.8046875 C-31.85390956 26.29236007 -37.6574537 32.96776685 -41.9375 40.44921875 C-47.48281358 49.94773439 -52.30070289 51.84453889 -62.546875 54.69140625 C-73.1369118 57.71167756 -81.59005606 65.29901293 -88 74.0625 C-88.68817613 75.56464791 -89.33956759 77.08470407 -89.9375 78.625 C-90.7890625 80.57421875 -90.7890625 80.57421875 -92 82.0625 C-94.54370342 82.80403898 -96.80344798 82.93732566 -99.44921875 82.98828125 C-102.90062562 83.08870503 -105.73233218 83.99695615 -109 85.0625 C-106.20853783 68.95343705 -95.59675862 54.06364832 -85 42.0625 C-84.19949219 41.15242188 -83.39898437 40.24234375 -82.57421875 39.3046875 C-76.55676995 32.54859932 -76.55676995 32.54859932 -73.72265625 30.07421875 C-71.77562662 28.2032741 -71.77562662 28.2032741 -71.828125 25.703125 C-71.96734375 24.91421875 -72.1065625 24.1253125 -72.25 23.3125 C-72.44335938 22.11367187 -72.44335938 22.11367187 -72.640625 20.890625 C-72.75921875 20.28734375 -72.8778125 19.6840625 -73 19.0625 C-71.42825925 17.85969839 -69.84212442 16.67568725 -68.25 15.5 C-67.36828125 14.83871094 -66.4865625 14.17742187 -65.578125 13.49609375 C-63 12.0625 -63 12.0625 -60.796875 12.28515625 C-59.51431951 12.84000091 -58.24989637 13.43755181 -57 14.0625 C-51.37573346 14.69302315 -47.70786133 12.78721482 -42.8125 10.375 C-36.29149138 7.31645584 -29.85242158 4.92199499 -22.875 3.125 C-22.10647705 2.92624268 -21.3379541 2.72748535 -20.54614258 2.52270508 C-13.73022697 0.8500923 -7.04073733 -0.08800922 0 0 Z " fill="#5A566D" transform="translate(136,206.9375)"/>
<path d="M0 0 C0.66 0.33 1.32 0.66 2 1 C1.01 1.33 0.02 1.66 -1 2 C-2.11709031 4.69556505 -2.11709031 4.69556505 -3 8 C-3.41378906 9.2065625 -3.82757813 10.413125 -4.25390625 11.65625 C-4.69015428 12.93748294 -5.12635159 14.21873315 -5.5625 15.5 C-5.78357422 16.13808594 -6.00464844 16.77617188 -6.23242188 17.43359375 C-12.1262332 34.84793657 -8.73112385 51.81089451 -1 68 C3.02458818 75.77930601 8.24802855 82.42347996 14 89 C14.59167969 89.68835938 15.18335938 90.37671875 15.79296875 91.0859375 C26.4536569 102.61736618 41.14367946 110.05469082 55 117 C54.29379845 118.65581725 53.55912762 120.29951386 52.8125 121.9375 C52.20341797 123.31228516 52.20341797 123.31228516 51.58203125 124.71484375 C50 127 50 127 47.32421875 127.81640625 C46.55722656 127.87699219 45.79023438 127.93757813 45 128 C42.08313493 124.74657357 40.07249011 121.34858571 38.0625 117.5 C34.5016795 110.86027455 30.98004984 107.01485721 24 104 C21.38123757 103.5617134 18.88249714 103.23070545 16.25 103 C0.54949773 101.27437532 -12.79427939 95.58051329 -23 83 C-32.39522928 69.70873319 -35.79606062 55.97333072 -33.5625 39.83984375 C-30.50883898 25.35403931 -22.25610086 13.49079272 -10.17578125 5.01953125 C-6.83099347 2.96382956 -3.72869343 1.24289781 0 0 Z " fill="#00CFB1" transform="translate(98,39)"/>
<path d="M0 0 C0.66 0.33 1.32 0.66 2 1 C1.54753906 1.34933594 1.09507813 1.69867188 0.62890625 2.05859375 C-1.69338011 4.82640267 -2.18565031 7.57285123 -3.0625 11.0625 C-3.38347656 12.31160156 -3.70445313 13.56070312 -4.03515625 14.84765625 C-4.35813627 16.23145285 -4.67969667 17.61558139 -5 19 C-5.18240234 19.70890381 -5.36480469 20.41780762 -5.55273438 21.14819336 C-7.43736976 29.17393677 -7.39713105 37.242418 -7.375 45.4375 C-7.37445618 46.19255829 -7.37391235 46.94761658 -7.37335205 47.72555542 C-7.3341301 59.56760244 -6.54794758 70.62982705 -3 82 C-2.78569336 82.71849121 -2.57138672 83.43698242 -2.35058594 84.17724609 C4.27687193 106.00348106 16.72276653 126.94058964 35 141 C33 142 33 142 30.671875 141.3203125 C6.96191507 131.62078344 -11.07040267 114.6446399 -21.30859375 91.1640625 C-30.24847517 69.68262081 -31.85185165 43.06104675 -22.8671875 21.25 C-21.72288862 19.00687106 -20.48084537 17.03408254 -19 15 C-18.52046875 14.31808594 -18.0409375 13.63617188 -17.546875 12.93359375 C-12.90980686 7.00219834 -6.84607665 3.06463219 0 0 Z " fill="#C58369" transform="translate(79,274)"/>
<path d="M0 0 C1.79236067 0.47656412 3.58386897 0.95633498 5.375 1.4375 C6.37273438 1.70433594 7.37046875 1.97117187 8.3984375 2.24609375 C11 3 11 3 13 4 C14.14855469 3.89558594 14.14855469 3.89558594 15.3203125 3.7890625 C18.67293609 3.59294803 20.85794758 3.76287037 24 5 C26.06434807 7.83752641 27.47415355 10.55432067 28.94213867 13.71777344 C36.60278928 30.20217974 51.69339502 45.84669751 68 54 C67.34070308 55.33699282 66.67209218 56.66939325 66 58 C65.62746094 58.77859375 65.25492187 59.5571875 64.87109375 60.359375 C63.14646269 63.23532652 61.72106428 65.00786618 59 67 C45.77853044 69.52422277 32.36123863 65.7986154 21.20703125 58.5546875 C10.76606305 51.19981078 4.65152935 42.28955576 1 30 C0.82202881 29.41492676 0.64405762 28.82985352 0.46069336 28.22705078 C-0.12042233 25.417863 -0.11171876 22.79062631 -0.09765625 19.921875 C-0.09443359 18.76171875 -0.09121094 17.6015625 -0.08789062 16.40625 C-0.07951172 15.1996875 -0.07113281 13.993125 -0.0625 12.75 C-0.05798828 11.52796875 -0.05347656 10.3059375 -0.04882812 9.046875 C-0.03704815 6.03120054 -0.02059853 3.01562502 0 0 Z " fill="#5A566D" transform="translate(21,367)"/>
<path d="M0 0 C1.49883539 0.00691345 1.49883539 0.00691345 3.02795029 0.01396656 C4.1777739 0.00709324 5.3275975 0.00021992 6.51226425 -0.00686169 C8.39824326 0.02010288 8.39824326 0.02010288 10.32232285 0.04761219 C11.66279675 0.04902291 13.00327452 0.04823021 14.34374619 0.04539967 C17.98009572 0.04396498 21.61562072 0.0733619 25.2517786 0.10826945 C29.05273699 0.13952488 32.85371427 0.14246302 36.65478134 0.14839649 C43.85135501 0.16393743 51.04754893 0.20496894 58.24395537 0.25514394 C66.43730891 0.3110299 74.63068058 0.33852196 82.82417727 0.36362112 C99.67761994 0.41588486 116.53069296 0.50383163 133.38384628 0.61523914 C133.38384628 0.94523914 133.38384628 1.27523914 133.38384628 1.61523914 C91.14384628 1.61523914 48.90384628 1.61523914 5.38384628 1.61523914 C4.39384628 4.91523914 3.40384628 8.21523914 2.38384628 11.61523914 C2.02161972 12.78570789 1.65939316 13.95617664 1.28619003 15.16211414 C-8.38513251 47.26933879 -3.53372605 79.92784458 12.04351425 109.2856493 C18.41573274 120.3610061 27.18312058 130.78254246 36.38384628 139.61523914 C16.15007931 132.05019925 2.02434129 114.41430858 -6.89349747 95.43945789 C-13.16177239 81.68454817 -14.9755629 68.66402297 -14.93182755 53.63525867 C-14.92867714 51.38199417 -14.9521854 49.13006047 -14.97748184 46.87695789 C-15.0308421 34.74846023 -14.63044873 3.44063297 0 0 Z " fill="#F3C1B5" transform="translate(292.616153717041,271.3847608566284)"/>
<path d="M0 0 C-3.25110666 2.65493796 -6.64638355 4.34347649 -10.4375 6.125 C-22.91457614 12.21472891 -33.0864637 20.42929493 -43 30 C-43.72960937 30.67804688 -44.45921875 31.35609375 -45.2109375 32.0546875 C-48.27212901 34.97068416 -50.67186978 37.36945998 -52.64453125 41.16015625 C-56.42510482 47.96518867 -56.42510482 47.96518867 -60 50 C-67.40710175 51.65051748 -76.62031439 51.89167589 -84 50 C-86.81268884 47.71015022 -87.86165177 46.70121705 -88.5703125 43.109375 C-87.8194201 39.01546847 -85.81427601 36.98836232 -82.875 34.25 C-82.33512451 33.73268311 -81.79524902 33.21536621 -81.23901367 32.68237305 C-60.16017364 12.98080068 -29.35727665 -2.10950491 0 0 Z " fill="#E0966B" transform="translate(367,207)"/>
<path d="M0 0 C-0.16113281 1.19882812 -0.32226562 2.39765625 -0.48828125 3.6328125 C-1.19617985 10.04023448 -1.18407081 16.43498861 -1.1875 22.875 C-1.20586914 24.67904297 -1.20586914 24.67904297 -1.22460938 26.51953125 C-1.23534053 33.10846081 -0.83052792 39.25397698 0.5690918 45.69970703 C1 48 1 48 1 52 C-6.60336748 50.39929106 -12.99441407 48.25427579 -17.8671875 41.81640625 C-22.31437401 34.68557271 -24.36193542 27.37470815 -23 19 C-20.23204084 10.51240841 -15.36803349 5.6208201 -7.875 1.125 C-4.99350814 -0.00254029 -3.05852856 -0.26987017 0 0 Z " fill="#C18167" transform="translate(38,305)"/>
<path d="M0 0 C6.56912961 0.27953743 11.0665488 2.67539577 16 7 C21.40283105 13.6210059 23.49559638 19.1119983 23.40234375 27.66015625 C22.50167161 35.13660946 18.99918055 41.87564694 13.0625 46.5625 C8.71715207 49.38447883 4.27962943 52 -1 52 C-0.85780029 51.16122314 -0.71560059 50.32244629 -0.5690918 49.45825195 C0.82488606 40.62361965 1.27695176 32.13738381 1.1875 23.1875 C1.1865332 21.32061523 1.1865332 21.32061523 1.18554688 19.41601562 C1.15429948 12.8644786 0.87748106 6.49335982 0 0 Z " fill="#F8C5B8" transform="translate(474,305)"/>
<path d="M0 0 C2.875 1.9375 2.875 1.9375 5 4 C7.86608129 5.43304064 9.81300783 5.30644155 13 5 C15.5647293 3.49987532 17.89183465 2.10816535 20 0 C22.92942542 -0.28814021 25.14948367 -0.48613457 28 0 C30.5625 2.125 30.5625 2.125 32 5 C32.25 7.875 32.25 7.875 31 11 C25.87931526 16.92987937 20.12618828 20.31393871 12.40234375 21.34765625 C3.69640427 21.82519723 -2.25663604 18.77008933 -9.125 13.6875 C-11.83041499 9.80973851 -11.60239041 7.66852565 -11 3 C-8.8901881 -1.21962379 -4.16135163 -0.76399815 0 0 Z " fill="#050504" transform="translate(343,324)"/>
<path d="M0 0 C2.875 1.9375 2.875 1.9375 5 4 C7.86608129 5.43304064 9.81300783 5.30644155 13 5 C15.5647293 3.49987532 17.89183465 2.10816535 20 0 C27.08571429 -0.45714286 27.08571429 -0.45714286 30 1 C31.69874222 4.39748443 32.02369628 7.40055179 31 11 C26.31602432 17.11216464 19.89940348 20.34429036 12.40234375 21.34765625 C4.34083622 21.78984865 -1.82800238 19.51756662 -7.9921875 14.3203125 C-10.82032064 11.38791639 -11.9825809 9.90579329 -12.0625 5.75 C-9.74219091 -0.25550588 -6.30671136 -1.15787279 0 0 Z " fill="#040302" transform="translate(149,324)"/>
<path d="M0 0 C2.18359375 1.53515625 2.18359375 1.53515625 4 4 C4.42918602 6.81486833 4.60594812 9.13381854 4.5625 11.9375 C4.58634766 12.64068359 4.61019531 13.34386719 4.63476562 14.06835938 C4.62366576 18.01620962 4.1171524 19.84776135 1.69140625 23 C-1 25 -1 25 -4.625 25.0625 C-8.43615616 23.86269158 -9.1432637 23.43248283 -11 20 C-11.31988233 17.23345011 -11.4649944 14.75943789 -11.4375 12 C-11.45748047 11.2884375 -11.47746094 10.576875 -11.49804688 9.84375 C-11.49480619 6.36973437 -11.26606414 4.36318042 -9.19140625 1.53125 C-5.98215293 -0.71122291 -3.81848541 -0.54549792 0 0 Z " fill="#060505" transform="translate(410,314)"/>
<path d="M0 0 C2.18359375 1.53515625 2.18359375 1.53515625 4 4 C4.42918602 6.81486833 4.60594812 9.13381854 4.5625 11.9375 C4.58634766 12.64068359 4.61019531 13.34386719 4.63476562 14.06835938 C4.62366821 18.01533823 4.11861922 19.84605593 1.69140625 22.99609375 C-1 25 -1 25 -4.625 25.125 C-8 24 -8 24 -9.68359375 21.90234375 C-11.33756031 18.25576466 -11.43353234 15.4329315 -11.4375 11.4375 C-11.45683594 10.13683594 -11.47617188 8.83617187 -11.49609375 7.49609375 C-11 4 -11 4 -9.19140625 1.56640625 C-5.98864408 -0.72291217 -3.83754342 -0.54822049 0 0 Z " fill="#040302" transform="translate(109,314)"/>
<path d="M0 0 C4.12200003 0.66246429 5.05214832 1.24605579 7.5 4.5625 C7.92918602 7.37736833 8.10594812 9.69631854 8.0625 12.5 C8.08634766 13.20318359 8.11019531 13.90636719 8.13476562 14.63085938 C8.12355383 18.61852166 7.63772688 20.39034139 5.125 23.53125 C2.5 25.5625 2.5 25.5625 -0.0625 26.125 C-3.23810981 25.39216697 -4.45272307 24.04847913 -6.5 21.5625 C-7.96123786 18.64002427 -7.7477615 16.00396161 -7.8125 12.75 C-7.84988281 11.52667969 -7.88726562 10.30335938 -7.92578125 9.04296875 C-7.26674886 3.65583241 -5.4407544 0.87440696 0 0 Z " fill="#060505" transform="translate(299.5,313.4375)"/>
<path d="M0 0 C2.90619099 2.77174088 3.91899164 4.40067543 4.4609375 8.41015625 C4.43257812 9.61542969 4.40421875 10.82070313 4.375 12.0625 C4.36210937 13.27035156 4.34921875 14.47820312 4.3359375 15.72265625 C4.02277944 18.77776804 3.72089681 20.49950228 2 23 C-1 25 -1 25 -4.5 24.875 C-8 24 -8 24 -9.69140625 22.4453125 C-11.52605448 19.01698476 -11.47528703 15.79244399 -11.4375 12 C-11.45748047 11.2884375 -11.47746094 10.576875 -11.49804688 9.84375 C-11.4948072 6.37081848 -11.2676674 4.36479078 -9.19140625 1.53515625 C-5.95667404 -0.7308861 -3.84744981 -0.61834015 0 0 Z " fill="#050403" transform="translate(216,314)"/>
<path d="M0 0 C1.9375 1.125 1.9375 1.125 3 3 C3.49573337 6.89504791 3.58016848 9.09493717 1.4375 12.4375 C-1.96719488 14.61999672 -4.03430012 14.63734462 -8 14 C-10.5 11.9375 -10.5 11.9375 -12 9 C-12 5.19715329 -11.7968187 2.98069994 -9.375 0 C-5.91616747 -1.45635054 -3.58701629 -0.91305869 0 0 Z " fill="#030908" transform="translate(181,82)"/>
<path d="M0 0 C2.875 2.0625 2.875 2.0625 5 5 C5 8.54361243 4.65850044 10.86591591 2.875 13.9375 C-0.18452459 15.6712306 -2.56817525 15.42145216 -6 15 C-8.4375 13.4375 -8.4375 13.4375 -10 11 C-10.5625 7.5 -10.5625 7.5 -10 4 C-6.99746894 0.65432253 -4.50513222 -1.01365475 0 0 Z " fill="#030807" transform="translate(338,81)"/>
<path d="M0 0 C3.72206393 1.34627844 5.01947413 2.61005343 6.9375 6.0625 C6.87439022 9.21798924 6.42614121 11.20019198 4.875 13.9375 C1.69864098 15.78183749 -1.49126055 15.58330575 -5.0625 15.0625 C-7.0625 14.0625 -7.0625 14.0625 -8.0625 12.0625 C-8.45552445 8.96743248 -8.69158496 7.01801234 -8.0625 4.0625 C-5.4424551 0.90303409 -4.11187634 0.08391584 0 0 Z " fill="#030807" transform="translate(400.0625,80.9375)"/>
<path d="M0 0 C3.42641601 1.16643949 4.94029949 1.96425523 6.9375 5 C6.87707505 8.44422213 6.53843625 10.90417507 4.875 13.9375 C1.67686863 15.69131398 -1.51575707 15.6502362 -5.0625 15 C-7.96710477 12.73077752 -8.04106495 11.15004537 -8.5625 7.5 C-8.0625 4 -8.0625 4 -5.9375 1.5 C-3.0625 0 -3.0625 0 0 0 Z " fill="#020807" transform="translate(368.0625,81)"/>
<path d="M0 0 C4.93731454 1.46290801 4.93731454 1.46290801 6.375 4 C6.87073337 7.89504791 6.95516848 10.09493717 4.8125 13.4375 C1.40780512 15.61999672 -0.65930012 15.63734462 -4.625 15 C-7.28606976 12.61186047 -8.40349624 10.98446115 -9.1875 7.5 C-8.02254303 2.32241345 -5.23369904 0 0 0 Z " fill="#030807" transform="translate(145.625,81)"/>
<path d="M0 0 C4.42690311 1.44355536 4.42690311 1.44355536 5.875 3.9375 C6.40968062 7.49461138 6.50233051 10.68283898 4.875 13.9375 C1.59712436 15.57643782 -1.60682577 15.68634833 -5.125 14.9375 C-7.6875 12.8125 -7.6875 12.8125 -9.125 9.9375 C-9.20604732 5.96618124 -8.5938579 4.45994166 -5.9375 1.5 C-3.125 -0.0625 -3.125 -0.0625 0 0 Z " fill="#030807" transform="translate(114.125,81.0625)"/>
</svg>
