<?xml version="1.0" standalone="no"?>
<!DOCTYPE svg PUBLIC "-//W3C//DTD SVG 20010904//EN"
 "http://www.w3.org/TR/2001/REC-SVG-20010904/DTD/svg10.dtd">
<svg version="1.0" xmlns="http://www.w3.org/2000/svg"
 width="512.000000pt" height="512.000000pt" viewBox="0 0 512.000000 512.000000"
 preserveAspectRatio="xMidYMid meet">

<g transform="translate(0.000000,512.000000) scale(0.100000,-0.100000)"
fill="#000000" stroke="none">
<path d="M2316 5109 c-187 -20 -368 -64 -556 -136 -139 -53 -288 -131 -302
-157 -14 -26 -3 -85 19 -102 30 -22 59 -16 155 32 176 89 375 156 563 190 56
10 168 18 295 21 217 5 334 -5 504 -46 l78 -19 98 29 c136 39 277 53 382 39
176 -24 257 -93 243 -208 -9 -77 25 -102 137 -102 130 0 246 -41 292 -103 17
-22 21 -43 21 -99 0 -94 11 -103 142 -111 106 -6 204 -32 251 -65 65 -47 76
-126 30 -215 -27 -54 -128 -159 -198 -207 -79 -54 -93 -73 -87 -112 3 -18 27
-95 53 -170 26 -76 46 -139 43 -142 -2 -2 -31 5 -64 16 -43 15 -87 21 -153 22
-83 1 -93 3 -98 21 -12 39 -119 219 -149 250 -30 32 -30 32 -155 37 -201 9
-353 71 -443 181 -20 25 -46 48 -56 52 -10 3 -74 -6 -142 -19 -247 -50 -362
-60 -689 -60 -321 0 -444 10 -663 55 -183 38 -166 41 -244 -38 -110 -112 -231
-160 -423 -169 -58 -3 -115 -7 -128 -10 -25 -5 -84 -89 -152 -218 l-41 -79
-92 -2 c-61 -1 -111 -9 -149 -22 -32 -11 -58 -16 -58 -12 0 21 57 184 96 276
118 277 265 486 499 711 125 120 135 132 135 166 0 30 -5 40 -32 56 -43 27
-70 19 -135 -36 -148 -127 -309 -311 -423 -484 -136 -206 -266 -518 -319 -761
-13 -64 -31 -114 -54 -151 -54 -90 -72 -159 -72 -273 1 -125 25 -204 96 -304
78 -112 198 -186 350 -216 24 -4 29 -12 44 -82 48 -216 178 -474 306 -608 l29
-31 -1 -154 0 -155 -47 -31 c-32 -21 -56 -47 -74 -83 -26 -50 -28 -61 -28
-182 l0 -129 -49 -103 c-27 -56 -66 -151 -87 -212 -36 -102 -38 -118 -39 -225
0 -103 3 -121 26 -170 34 -72 114 -159 179 -194 106 -58 56 -56 1310 -56 1245
1 1178 -2 1199 53 10 27 11 27 111 27 92 0 100 -2 100 -19 0 -11 12 -29 26
-40 22 -17 41 -21 105 -21 43 0 102 5 131 11 125 26 233 114 291 237 30 62 32
74 32 172 -1 92 -5 118 -34 205 -18 55 -57 151 -87 214 l-54 114 0 122 c0 85
-5 136 -15 166 -17 48 -64 102 -107 125 l-28 15 0 154 0 155 47 58 c139 170
237 371 287 591 8 34 17 65 20 68 3 3 27 9 53 14 26 5 85 27 129 49 197 97
315 317 286 534 -9 63 -22 103 -61 181 -33 67 -57 133 -71 200 -13 55 -40 152
-61 215 l-39 115 32 24 c18 14 67 59 109 102 281 283 171 602 -223 644 l-67 7
-6 38 c-23 139 -181 252 -372 267 -46 4 -73 10 -73 18 0 42 -35 119 -74 162
-128 142 -418 182 -721 98 l-85 -23 -117 24 c-212 42 -438 54 -637 33z m-466
-1283 c416 -80 928 -78 1392 6 l66 12 55 -50 c107 -98 253 -156 440 -175 61
-6 117 -15 123 -20 26 -22 138 -258 175 -370 57 -173 80 -320 80 -509 1 -294
-61 -529 -196 -746 l-48 -77 -28 54 c-34 69 -123 153 -196 187 -44 20 -79 27
-143 30 -80 4 -118 -3 -564 -102 l-479 -107 -475 107 c-439 98 -482 106 -561
102 -72 -3 -97 -8 -154 -35 -78 -37 -162 -116 -191 -181 -11 -23 -22 -42 -25
-42 -9 0 -75 106 -111 178 -46 94 -97 253 -116 367 -21 121 -23 374 -5 490 35
222 120 461 219 616 l30 47 84 7 c192 16 365 80 468 174 30 27 62 50 70 51 8
0 49 -6 90 -14z m-1035 -533 c-17 -44 -64 -246 -76 -323 -7 -47 -13 -156 -13
-242 -1 -87 -4 -158 -8 -158 -32 0 -127 50 -171 90 -149 136 -166 351 -42 514
55 73 179 134 274 135 37 1 42 -1 36 -16z m3599 -16 c155 -71 244 -238 215
-402 -25 -142 -138 -268 -269 -300 l-25 -6 -2 163 c-1 178 -22 325 -67 481
-15 48 -26 90 -26 94 0 14 123 -7 174 -30z m-2409 -1356 l440 -98 3 -827 2
-826 -22 5 c-13 3 -244 55 -515 115 -270 60 -505 116 -522 125 -83 43 -133
125 -139 230 l-4 71 59 17 c200 61 298 285 207 472 -44 89 -138 164 -228 180
l-37 7 3 222 c3 204 5 224 25 261 48 89 138 145 233 145 33 -1 233 -40 495
-99z m1651 75 c27 -13 67 -43 87 -67 58 -67 67 -113 67 -341 l0 -198 -22 0
c-45 0 -142 -56 -190 -109 -167 -185 -83 -482 153 -548 l59 -16 0 -47 c0 -103
-51 -198 -135 -250 -22 -14 -208 -60 -549 -135 -284 -63 -518 -115 -521 -115
-3 0 -5 371 -5 825 l0 825 26 6 c14 4 211 48 438 99 458 103 509 110 592 71z
m-2356 -776 c74 -38 116 -137 90 -215 -16 -47 -66 -104 -107 -121 -18 -8 -55
-14 -83 -14 -41 0 -56 5 -75 25 -24 23 -25 29 -25 161 0 128 2 139 22 161 29
31 120 32 178 3z m2636 -5 c25 -25 25 -27 22 -166 -3 -134 -4 -142 -27 -160
-32 -26 -112 -25 -169 2 -83 41 -122 143 -88 233 29 77 89 116 179 116 49 0
62 -4 83 -25z"/>
<path d="M1880 3113 c-44 -16 -50 -33 -50 -133 0 -106 7 -122 62 -135 22 -6
33 -1 58 23 28 29 30 35 30 111 0 69 -3 83 -22 105 -25 26 -54 37 -78 29z"/>
<path d="M3125 3108 c-11 -6 -26 -18 -32 -26 -17 -21 -17 -181 0 -203 20 -26
55 -40 82 -33 43 11 55 40 55 130 0 98 -4 110 -41 129 -33 18 -38 18 -64 3z"/>
<path d="M2316 2979 c-40 -31 -36 -76 12 -121 112 -111 306 -109 407 3 42 46
45 80 10 114 -32 33 -64 31 -110 -5 -74 -59 -144 -59 -211 -1 -41 36 -71 39
-108 10z"/>
</g>
</svg>
