<?xml version="1.0" encoding="UTF-8"?>
<svg version="1.1" xmlns="http://www.w3.org/2000/svg" width="512" height="512">
<path d="M0 0 C0.81909348 -0.00687836 1.63818695 -0.01375671 2.48210144 -0.02084351 C5.10790518 -0.037907 7.73351878 -0.04429619 10.359375 -0.046875 C11.25310822 -0.04854675 12.14684143 -0.05021851 13.06765747 -0.05194092 C27.06295602 -0.05351245 40.72036897 0.46390426 54.38720703 3.75097656 C62.16755547 5.60804142 68.50463808 5.37393277 76.171875 3.265625 C96.05124431 -2.05685515 120.07896168 -3.10938431 138.609375 6.953125 C145.49932892 11.5043924 150.61744679 17.28758834 153.109375 25.203125 C153.15072869 27.20269742 153.15698056 29.20369165 153.109375 31.203125 C154.41648437 31.24179687 154.41648437 31.24179687 155.75 31.28125 C168.76071587 31.9008079 181.52793564 34.87916849 191.1796875 44.203125 C195.84324281 49.66670445 197.73793182 55.21529545 199.109375 62.203125 C200.54216797 62.35007812 200.54216797 62.35007812 202.00390625 62.5 C215.52193643 64.0634013 227.95326129 67.19621047 237.484375 77.640625 C242.75994675 84.31911888 244.43582354 91.41528053 243.96484375 99.765625 C241.88126671 115.51838329 231.01799008 127.96672293 218.921875 137.453125 C217.65962487 138.38157518 216.3923162 139.30348228 215.109375 140.203125 C216.43017526 146.49265006 218.06694025 152.57244373 219.984375 158.703125 C221.99626297 165.20409875 223.70561432 171.67114653 225.109375 178.328125 C226.38209862 184.2261125 228.32366942 188.7519054 231.6484375 193.78125 C238.2819186 204.7779299 238.76579083 218.50228902 236.4140625 230.85546875 C232.21865857 245.6804045 224.33519777 257.03173366 211.109375 265.140625 C204.14969125 268.93356319 197.1669173 271.83924676 189.109375 271.203125 C189.07706787 271.79230713 189.04476074 272.38148926 189.01147461 272.98852539 C188.49285688 279.91176784 186.89693521 286.0806353 184.671875 292.640625 C184.31988037 293.68250977 183.96788574 294.72439453 183.60522461 295.79785156 C178.64700626 309.94567564 171.3411392 327.59067362 159.54052734 337.52368164 C155.32754576 341.40155392 154.53786264 345.0798547 154.3046875 350.66796875 C154.23074531 353.49308631 154.22800102 356.31472026 154.234375 359.140625 C154.21622824 360.60224937 154.19541934 362.06384324 154.171875 363.52539062 C154.12028891 367.08480521 154.1049256 370.64328831 154.109375 374.203125 C154.7273999 374.33960449 155.3454248 374.47608398 155.98217773 374.61669922 C158.63796016 375.34884537 160.08775515 376.53714725 162.171875 378.328125 C162.84347656 378.88757813 163.51507813 379.44703125 164.20703125 380.0234375 C170.18197404 386.86947052 169.35305787 394.00050183 169.296875 402.640625 C169.4605749 414.13722487 171.12819091 421.55542645 177.02197266 431.24121094 C184.95160294 445.54801582 190.8937809 464.69050139 186.859375 480.828125 C183.65699696 491.30195778 178.39676949 500.75847322 168.55078125 506.359375 C159.53363512 511.08604809 152.67416387 512.44161122 142.609375 512.578125 C141.56394531 512.61550781 140.51851563 512.65289063 139.44140625 512.69140625 C131.76316487 512.7798879 131.76316487 512.7798879 128.390625 509.8046875 C127.109375 507.203125 127.109375 507.203125 127.109375 505.203125 C120.839375 505.203125 114.569375 505.203125 108.109375 505.203125 C107.779375 506.523125 107.449375 507.843125 107.109375 509.203125 C105.5796266 511.21889933 104.72890221 512.07879755 102.22978592 512.58032316 C101.51693813 512.58135229 100.80409035 512.58238142 100.06964111 512.58344173 C99.2448869 512.59188168 98.42013269 512.60032162 97.57038593 512.60901731 C96.66447303 512.60300727 95.75856012 512.59699722 94.82519531 512.59080505 C93.38128937 512.59888336 93.38128937 512.59888336 91.90821362 512.60712487 C88.66784741 512.62148439 85.42788515 512.61428083 82.1875 512.60717773 C79.86995615 512.61287738 77.55241512 512.61984005 75.23487854 512.62797546 C68.92662733 512.64597373 62.61851473 512.64472512 56.31024551 512.63903308 C50.37899139 512.63555869 44.44775868 512.64349805 38.51650918 512.65039373 C26.04300473 512.66413203 13.56956294 512.6586736 1.09605992 512.64720852 C-10.30010016 512.63729258 -21.6960975 512.65018594 -33.09223247 512.67414271 C-44.80045594 512.6985693 -56.50860375 512.70813176 -68.21685219 512.70148998 C-74.78723795 512.69812135 -81.3574895 512.70052861 -87.92785645 512.71774101 C-94.1134043 512.73323602 -100.2986428 512.72922578 -106.48417854 512.71043587 C-108.75004073 512.70675609 -111.01592595 512.70984054 -113.28176689 512.72032166 C-130.24198668 512.79275911 -142.30199719 511.66594733 -154.86328125 499.25390625 C-163.41820756 490.00877357 -166.56175097 479.61905985 -166.328125 467.10546875 C-164.79426287 453.42396638 -159.52363072 440.36631437 -153.72265625 427.98828125 C-153.41473145 427.33118164 -153.10680664 426.67408203 -152.78955078 425.99707031 C-151.890625 424.203125 -151.890625 424.203125 -150.18359375 421.50390625 C-148.12497458 416.24851895 -148.43437942 410.92243984 -148.390625 405.328125 C-148.30795757 394.82936197 -147.67231857 386.72868263 -140.890625 378.203125 C-135.62746711 374.203125 -135.62746711 374.203125 -132.890625 374.203125 C-132.83535133 369.80925234 -132.83344247 365.41935778 -132.87841797 361.02563477 C-132.88646891 359.53508378 -132.88059338 358.04438365 -132.85986328 356.55395508 C-132.61193476 346.04982884 -132.61193476 346.04982884 -137.64453125 337.12890625 C-139.05297336 335.81286472 -140.46784282 334.50365004 -141.890625 333.203125 C-143.7130105 330.8485194 -145.27882436 328.3688848 -146.828125 325.828125 C-147.24288086 325.15096436 -147.65763672 324.47380371 -148.08496094 323.77612305 C-157.70553878 307.7144332 -164.54500698 290.68006089 -167.890625 272.203125 C-168.84582031 271.98398437 -169.80101562 271.76484375 -170.78515625 271.5390625 C-186.13662458 267.8461804 -198.40558655 261.40543794 -207.2890625 247.91796875 C-215.25565369 234.41362515 -217.81414672 219.47467875 -213.890625 204.203125 C-212.60589857 200.0790945 -211.214915 196.11508274 -208.74023438 192.54223633 C-204.80677984 186.81770767 -203.4211681 181.26212775 -202.015625 174.515625 C-191.75442351 129.01595597 -169.21499953 91.74182776 -136.640625 58.765625 C-135.9791748 58.09104248 -135.31772461 57.41645996 -134.63623047 56.72143555 C-124.38394994 46.45245749 -124.38394994 46.45245749 -118.140625 45.828125 C-114.890625 46.203125 -114.890625 46.203125 -111.890625 47.203125 C-109.34859054 45.9454246 -107.07949477 44.65892745 -104.703125 43.140625 C-104.04892578 42.75712891 -103.39472656 42.37363281 -102.72070312 41.97851562 C-100.57201664 40.68600395 -100.57201664 40.68600395 -97.890625 38.203125 C-97.48950833 35.16367345 -97.48950833 35.16367345 -97.890625 32.203125 C-96.6225353 28.64474945 -95.03286661 27.3801083 -91.734375 25.65234375 C-90.88625244 25.20463623 -90.03812988 24.75692871 -89.16430664 24.2956543 C-88.2489917 23.83199463 -87.33367676 23.36833496 -86.390625 22.890625 C-85.44372803 22.4056958 -84.49683105 21.9207666 -83.52124023 21.42114258 C-57.91306243 8.52806939 -28.80765005 0.16563233 0 0 Z " fill="#020202" transform="translate(241.890625,-0.203125)"/>
<path d="M0 0 C3.67250132 0.23668927 7.03612308 0.78734129 10.6328125 1.5546875 C31.96141371 5.79589211 53.18146022 6.77832465 74.8828125 6.6796875 C76.23216702 6.67757761 77.58152219 6.67585161 78.93087769 6.67449951 C98.50714139 6.64182468 117.48539003 5.84335311 136.7578125 2.2421875 C138.89073694 1.85791766 141.02486147 1.48024715 143.16015625 1.109375 C144.09206787 0.9429248 145.02397949 0.77647461 145.98413086 0.60498047 C148.95585197 0.21628426 151.76428099 0.09823452 154.7578125 0.2421875 C156.3828125 1.4921875 156.3828125 1.4921875 157.7578125 3.2421875 C167.82832699 14.22617787 184.26368017 19.87481653 198.7578125 21.2421875 C200.09183283 21.19664865 201.42532723 21.133218 202.7578125 21.0546875 C207.07019999 20.86800406 210.57248767 21.04890587 214.7578125 22.2421875 C219.22531588 26.52000187 221.34545543 31.6224672 223.7578125 37.2421875 C224.6196404 39.13157942 225.48162774 41.02089862 226.34375 42.91015625 C231.7183022 55.00044411 236.19987645 67.23923551 238.7578125 80.2421875 C238.94110107 81.16708984 239.12438965 82.09199219 239.31323242 83.04492188 C240.98181372 92.49503165 241.11548489 101.80356431 241.0703125 111.3671875 C241.06815735 112.18611481 241.0660022 113.00504211 241.06378174 113.8487854 C240.93719376 143.79781788 233.65476383 169.31918429 216.7578125 194.2421875 C214.7049434 191.57705919 212.89410486 188.85557508 211.1328125 185.9921875 C204.78702769 176.5588448 196.89120445 170.83489521 185.7578125 168.2421875 C170.15962685 165.89220806 155.10110407 170.68538931 140.09397888 174.45480347 C130.2454972 176.90412537 120.31266489 178.96561154 110.3828125 181.0546875 C107.73428803 181.61197194 105.08586209 182.16968291 102.43791199 182.72969055 C100.77995259 183.08027409 99.12160406 183.42902307 97.46284485 183.77580261 C92.12796455 184.90423235 86.88480624 186.22769531 81.66943359 187.83081055 C73.87789699 188.93166072 65.9260824 186.7794366 58.36328125 185.01953125 C57.38954056 184.79816498 56.41579987 184.57679871 55.41255188 184.34872437 C53.33224721 183.87531942 51.25252134 183.39936482 49.17333984 182.92105103 C45.90363483 182.17011562 42.63189696 181.42874204 39.359375 180.69018555 C30.05848729 178.5900884 20.76077136 176.47731669 11.47151184 174.32633972 C8.16831849 173.56524747 4.86195648 172.81870953 1.55459595 172.07595825 C0.05367012 171.73531284 -1.44579581 171.38815201 -2.94351196 171.03366089 C-18.71276576 167.30463594 -34.01735454 165.67671917 -48.5546875 174.1796875 C-49.4415625 174.8603125 -50.3284375 175.5409375 -51.2421875 176.2421875 C-52.2321875 176.9434375 -53.2221875 177.6446875 -54.2421875 178.3671875 C-58.35788287 181.83303623 -60.64013665 186.61806099 -63.2421875 191.2421875 C-63.9021875 192.2321875 -64.5621875 193.2221875 -65.2421875 194.2421875 C-87.51845938 166.37894068 -93.34074585 127.64193482 -89.76953125 93.0546875 C-87.03061083 71.52232199 -79.20692113 38.20692113 -63.2421875 22.2421875 C-61.1481812 22.12796897 -59.05351683 22.02073086 -56.95751953 21.95214844 C-48.65992641 21.67999364 -41.10997573 21.0774265 -33.2421875 18.2421875 C-32.19804687 17.8915625 -31.15390625 17.5409375 -30.078125 17.1796875 C-21.13393172 13.99580605 -12.41617249 9.99141477 -5.9921875 2.8046875 C-3.2421875 0.2421875 -3.2421875 0.2421875 0 0 Z " fill="#FEDCCE" transform="translate(177.2421875,127.7578125)"/>
<path d="M0 0 C1.14446091 0.00173721 1.14446091 0.00173721 2.31204224 0.00350952 C17.85888972 0.05004663 32.31322611 1.79266923 47.3671875 5.734375 C55.02726971 7.54538485 60.74549567 5.54274971 68.1171875 3.3359375 C83.95029315 -1.04912982 102.42836617 -2.20078263 117.8125 4.3125 C122.28142512 6.85258814 126.00681341 9.35116114 127.8125 14.3125 C128.10645462 17.91134447 128.19011405 21.48823599 128.2734375 25.09765625 C128.53909983 28.28970272 128.53909983 28.28970272 130.33984375 30.2109375 C133.83834763 31.76951269 137.23469001 31.79852417 141 31.875 C151.78292019 32.31560713 162.0411107 33.42814511 170.25 41.1875 C173.849858 45.61958323 173.49403742 50.71012618 173.51171875 56.203125 C173.53158792 59.24553248 173.53158792 59.24553248 175.07958984 60.98364258 C177.1799236 62.59425354 178.2188129 62.68089382 180.83984375 62.68359375 C182.01994019 62.70546753 182.01994019 62.70546753 183.22387695 62.7277832 C184.05749756 62.73511475 184.89111816 62.74244629 185.75 62.75 C195.99870885 63.06291549 205.66341923 64.62607476 213.8125 71.3125 C217.2272351 75.19823304 218.25460205 78.81067299 218.140625 84.015625 C216.63538374 94.55231381 207.83638981 103.29742341 199.89453125 109.64453125 C198.06624445 110.97441868 196.22159683 112.28234958 194.35546875 113.55859375 C193.51628906 114.13738281 192.67710937 114.71617187 191.8125 115.3125 C190.88050781 115.92222656 189.94851563 116.53195313 188.98828125 117.16015625 C186.58262524 119.13422139 186.58262524 119.13422139 186.29296875 122.015625 C186.97325086 126.33260318 188.44364064 130.04568531 190.125 134.0625 C190.7695462 135.6617073 191.41149614 137.26196356 192.05078125 138.86328125 C192.35709473 139.62850098 192.6634082 140.3937207 192.97900391 141.18212891 C197.2322596 152.05322121 197.2322596 152.05322121 195.8125 156.3125 C195.08289063 156.03535156 194.35328125 155.75820312 193.6015625 155.47265625 C186.10570998 152.86220182 186.10570998 152.86220182 178.29296875 152.4921875 C168.82241002 153.09620509 168.82241002 153.09620509 164.8125 151.3125 C160.38744438 146.70306707 158.20789376 140.4595143 155.82666016 134.63037109 C153.74626642 129.87561468 150.5518823 123.68219115 145.8125 121.3125 C144.43317017 121.18463774 143.04860347 121.11051789 141.6640625 121.06640625 C140.82939453 121.03514648 139.99472656 121.00388672 139.13476562 120.97167969 C138.24466797 120.93977539 137.35457031 120.90787109 136.4375 120.875 C119.20213387 120.09824645 103.28126388 117.65928924 90.99609375 104.34375 C89.97716476 103.14558772 88.97661627 101.93129161 88.00390625 100.6953125 C86.84133821 99.16620975 86.84133821 99.16620975 84.8125 98.3125 C76.47307933 97.78082501 68.536968 99.72843361 60.39648438 101.359375 C40.30121567 105.17848699 20.02681336 105.6902178 -0.375 105.625 C-2.11290802 105.62276428 -2.11290802 105.62276428 -3.88592529 105.6204834 C-25.77161381 105.56993821 -46.71282666 104.32259823 -68.13867188 99.61376953 C-76.17027544 97.427175 -76.17027544 97.427175 -84.1875 98.3125 C-86.71122475 100.59880117 -88.77924851 103.05146131 -90.9140625 105.703125 C-98.64297547 114.57411102 -111.87218616 118.48382974 -123.1875 120.3125 C-127.69416522 120.60847521 -132.20727972 120.63106669 -136.72265625 120.61523438 C-141.14362401 120.71440225 -143.46389931 120.77150839 -147.08203125 123.4765625 C-153.5258739 132.15602403 -158.55319764 141.56993254 -163.1875 151.3125 C-164.49203125 151.33828125 -165.7965625 151.3640625 -167.140625 151.390625 C-177.17381799 151.68340379 -185.88143073 152.24582339 -195.1875 156.3125 C-192.13065907 128.27903199 -174.26749952 100.02280459 -157.1875 78.3125 C-156.56230469 77.48234375 -155.93710938 76.6521875 -155.29296875 75.796875 C-146.77898548 64.8479261 -136.56668951 54.0486646 -125.6640625 45.46875 C-122.85387936 43.43257424 -122.85387936 43.43257424 -122.25 39.6875 C-121.99983294 36.31926992 -121.99983294 36.31926992 -123.1875 33.3125 C-121.62652526 32.2061781 -120.06364673 31.10254215 -118.5 30 C-117.62988281 29.38511719 -116.75976562 28.77023438 -115.86328125 28.13671875 C-110.814258 24.69453794 -110.814258 24.69453794 -108.1875 23.3125 C-105.8125 24.125 -105.8125 24.125 -103.1875 25.3125 C-97.40955746 25.85705517 -93.58437976 24.41847659 -88.625 21.6875 C-87.20855688 20.94629593 -85.79055768 20.20805868 -84.37109375 19.47265625 C-83.66710449 19.10543457 -82.96311523 18.73821289 -82.23779297 18.35986328 C-69.18844705 11.69378874 -55.36266677 7.37256447 -41.125 4.125 C-40.45436523 3.97015137 -39.78373047 3.81530273 -39.09277344 3.65576172 C-26.08594825 0.82992901 -13.25698563 -0.06271283 0 0 Z " fill="#F58852" transform="translate(252.1875,14.6875)"/>
<path d="M0 0 C6.53621383 4.42412944 11.63638762 10.37719188 13.9375 18 C14.32423748 21.3710152 14.28849456 24.70043826 14.23046875 28.08984375 C14.22622391 29.03436905 14.22197906 29.97889435 14.21760559 30.95204163 C14.20090933 33.94749324 14.16327406 36.9422542 14.125 39.9375 C14.10994146 41.97720378 14.0962551 44.01691817 14.08398438 46.05664062 C14.05103547 51.03802361 13.99931604 56.01889499 13.9375 61 C13.24734802 61.20079163 12.55719604 61.40158325 11.84613037 61.60845947 C10.49095306 62.00771637 10.49095306 62.00771637 9.10839844 62.41503906 C8.21199646 62.67770569 7.31559448 62.94037231 6.39202881 63.21099854 C-2.46171065 66.05700848 -9.1115166 72.96603083 -13.4375 81 C-16.67522157 88.9582652 -16.34420466 98.59825999 -13.3125 106.5625 C-8.55085193 116.6001205 -2.77452936 122.36417172 7.60546875 126.23828125 C9.70358546 126.92359575 11.7883314 127.50099764 13.9375 128 C14.50864101 137.23344635 13.9600418 144.77603532 8.171875 152.29296875 C1.45799053 159.54872185 -6.79924169 161.36520677 -16.125 163.5625 C-17.16156738 163.80935547 -18.19813477 164.05621094 -19.26611328 164.31054688 C-33.00156401 167.52616574 -46.81582211 170.39291367 -60.61816406 173.30444336 C-72.98952745 175.91443433 -85.34575953 178.57308206 -97.67529297 181.375 C-99.12959717 181.70371094 -99.12959717 181.70371094 -100.61328125 182.0390625 C-101.43481689 182.22678223 -102.25635254 182.41450195 -103.1027832 182.60791016 C-105.0625 183 -105.0625 183 -107.0625 183 C-107.0625 128.55 -107.0625 74.1 -107.0625 18 C-103.08072031 16.40728812 -99.76801937 15.4077253 -95.62109375 14.5546875 C-94.33227295 14.28624023 -93.04345215 14.01779297 -91.71557617 13.74121094 C-91.029664 13.60034058 -90.34375183 13.45947021 -89.63705444 13.31433105 C-85.94853687 12.55605355 -82.26345743 11.78139683 -78.578125 11.0078125 C-77.80720016 10.84627686 -77.03627533 10.68474121 -76.24198914 10.51831055 C-68.17778726 8.82372229 -60.13001345 7.05666966 -52.08596802 5.269104 C-50.54810379 4.9273564 -49.01008265 4.58631401 -47.47189331 4.24603271 C-45.29725991 3.76479487 -43.12309411 3.28152497 -40.94921875 2.796875 C-40.26494812 2.644534 -39.58067749 2.49219299 -38.87567139 2.3352356 C-34.73691901 1.40442756 -30.63315331 0.37725402 -26.53125 -0.703125 C-18.06288535 -2.84380542 -8.05549064 -4.06898503 0 0 Z " fill="#EEEBFD" transform="translate(367.0625,312)"/>
<path d="M0 0 C1.69210086 0.37872306 3.38452543 0.75600276 5.07727051 1.13183594 C11.27548184 2.51841644 17.46747405 3.93268078 23.66015625 5.34375 C37.54078125 8.47875 51.42140625 11.61375 65.72265625 14.84375 C65.72265625 69.62375 65.72265625 124.40375 65.72265625 180.84375 C42.61657796 176.22253434 42.61657796 176.22253434 35.3203125 174.66015625 C34.47275391 174.47949615 33.62519531 174.29883606 32.75195312 174.11270142 C30.0959706 173.54565928 27.44050812 172.97623749 24.78515625 172.40625 C23.86821991 172.20987946 22.95128357 172.01350891 22.00656128 171.81118774 C11.11351328 169.47620941 0.22902723 167.12569183 -10.58496094 164.44335938 C-14.50454294 163.47568623 -18.41703673 162.60646237 -22.38671875 161.8671875 C-33.23272856 159.83730155 -42.46889776 157.88122999 -49.77734375 148.90625 C-54.67332304 141.56228106 -54.53013614 134.39655922 -54.27734375 125.84375 C-53.43171875 125.55242187 -52.58609375 125.26109375 -51.71484375 124.9609375 C-39.81213547 120.65973155 -32.91030255 116.40613911 -27.27734375 104.84375 C-23.99850899 96.6466631 -24.34869134 87.55328961 -27.1796875 79.2578125 C-30.70278156 71.50951311 -36.60252049 65.50900568 -44.27734375 61.84375 C-45.9937337 61.29605668 -47.71745006 60.77104405 -49.44604492 60.26318359 C-50.34981369 59.99637787 -51.25358246 59.72957214 -52.18473816 59.4546814 C-53.22057793 59.15227036 -53.22057793 59.15227036 -54.27734375 58.84375 C-54.37664065 52.72400582 -54.44901471 46.60473648 -54.49707031 40.484375 C-54.51711534 38.40486475 -54.54435888 36.32541037 -54.57910156 34.24609375 C-54.62793323 31.24725513 -54.65038403 28.24916537 -54.66796875 25.25 C-54.68861389 24.32884399 -54.70925903 23.40768799 -54.73052979 22.45861816 C-54.73298035 15.31832405 -52.92981656 10.35511877 -48.63671875 4.671875 C-34.54468326 -9.14652874 -17.44928333 -4.02568182 0 0 Z " fill="#DBDAFE" transform="translate(179.27734375,314.15625)"/>
<path d="M0 0 C3.96322716 0.25961775 7.75106137 0.87648128 11.62890625 1.6875 C17.67738897 2.89284411 23.65557182 3.82051875 29.81640625 4.25 C29.81640625 4.58 29.81640625 4.91 29.81640625 5.25 C28.91664063 5.2809375 28.016875 5.311875 27.08984375 5.34375 C23.37421385 6.37242081 22.42082165 7.54415778 20.49536133 10.8059082 C20.14755615 11.4474585 19.79975098 12.08900879 19.44140625 12.75 C19.06201904 13.41926514 18.68263184 14.08853027 18.29174805 14.77807617 C17.09924273 16.91893429 15.95045777 19.077657 14.81640625 21.25 C14.45724121 21.93787598 14.09807617 22.62575195 13.72802734 23.33447266 C8.60115446 33.33460058 4.68805012 43.58966446 1.40527344 54.32861328 C0.91713604 55.92133356 0.40500433 57.50667729 -0.11328125 59.08984375 C-2.80286395 67.86564711 -3.68361632 77.07847568 -4.84228516 86.15625 C-5.18359375 88.25 -5.18359375 88.25 -6.18359375 91.25 C-4.19791667 91.21744792 -2.21223958 91.18489583 -0.2265625 91.15234375 C1.81640625 91.25 1.81640625 91.25 4.81640625 92.25 C4.77 91.29738281 4.72359375 90.34476562 4.67578125 89.36328125 C4.6396875 88.10902344 4.60359375 86.85476562 4.56640625 85.5625 C4.52 84.32113281 4.47359375 83.07976562 4.42578125 81.80078125 C4.88209865 77.65285607 5.78659511 76.07323311 8.81640625 73.25 C10.81640625 72.5859375 10.81640625 72.5859375 12.81640625 72.625 C13.47640625 72.61210937 14.13640625 72.59921875 14.81640625 72.5859375 C18.05035911 73.65971091 19.0871806 75.36287876 20.81640625 78.25 C21.15800865 81.07545713 21.28965947 83.44719758 21.19140625 86.25 C21.19011719 86.94867188 21.18882812 87.64734375 21.1875 88.3671875 C21.13306433 91.57284336 20.90692997 94.04338255 19.61328125 96.99609375 C19.3503125 97.73988281 19.08734375 98.48367187 18.81640625 99.25 C19.89531484 101.3848379 19.89531484 101.3848379 21.69140625 103.3125 C25.68938421 108.81430454 25.84383833 113.64379199 24.81640625 120.25 C22.98705509 126.99149781 18.73126655 130.82080141 12.81640625 134.25 C6.93382534 137.21430525 2.46772541 138.46166989 -4.18359375 138.25 C-0.0307708 153.48403042 -0.0307708 153.48403042 5.15234375 168.38671875 C5.81640625 170.25 5.81640625 170.25 5.81640625 172.25 C0.48602198 171.79048411 -4.48458815 170.96023578 -9.68359375 169.6875 C-23.49416386 166.67157009 -36.08210833 166.92648966 -48.49609375 174.1875 C-49.38296875 174.868125 -50.26984375 175.54875 -51.18359375 176.25 C-52.17359375 176.95125 -53.16359375 177.6525 -54.18359375 178.375 C-58.29928912 181.84084873 -60.5815429 186.62587349 -63.18359375 191.25 C-63.84359375 192.24 -64.50359375 193.23 -65.18359375 194.25 C-87.45986563 166.38675318 -93.2821521 127.64974732 -89.7109375 93.0625 C-86.97201708 71.53013449 -79.14832738 38.21473363 -63.18359375 22.25 C-61.08958745 22.13578147 -58.99492308 22.02854336 -56.89892578 21.95996094 C-48.60133266 21.68780614 -41.05138198 21.085239 -33.18359375 18.25 C-32.13945312 17.899375 -31.0953125 17.54875 -30.01953125 17.1875 C-21.07533797 14.00361855 -12.35757874 9.99922727 -5.93359375 2.8125 C-3.18359375 0.25 -3.18359375 0.25 0 0 Z " fill="#FDCABD" transform="translate(177.18359375,127.75)"/>
<path d="M0 0 C1.6178329 0.01006579 3.23567198 0.01918518 4.85351562 0.02734375 C8.75666743 0.04903572 12.65951216 0.08335959 16.5625 0.125 C13.57496619 2.1166892 10.52671416 3.78088319 7.375 5.5 C-4.1501934 11.96731996 -14.63228622 20.12981739 -24.2890625 29.12890625 C-26.24790872 30.94885246 -28.26045875 32.66217373 -30.3125 34.375 C-45.72930514 47.8647045 -59.7402914 65.75230057 -68.97265625 84.04296875 C-69.39611328 84.86708252 -69.81957031 85.69119629 -70.25585938 86.5402832 C-71.0674872 88.14490454 -71.85038358 89.76448033 -72.59960938 91.39916992 C-73.72396228 93.61976691 -74.6801541 95.35794027 -76.4375 97.125 C-78.78805877 97.73426611 -80.90693441 97.83833559 -83.33032227 97.89746094 C-85.70360183 97.95731024 -85.70360183 97.95731024 -87.93359375 100.19921875 C-88.57425781 101.06160156 -89.21492188 101.92398438 -89.875 102.8125 C-98.47679054 113.26285558 -111.29413334 118.00089774 -124.4375 120.125 C-128.94416522 120.42097521 -133.45727972 120.44356669 -137.97265625 120.42773438 C-142.39362401 120.52690225 -144.71389931 120.58400839 -148.33203125 123.2890625 C-154.7758739 131.96852403 -159.80319764 141.38243254 -164.4375 151.125 C-165.74203125 151.15078125 -167.0465625 151.1765625 -168.390625 151.203125 C-178.42381799 151.49590379 -187.13143073 152.05832339 -196.4375 156.125 C-193.38065907 128.09153199 -175.51749952 99.83530459 -158.4375 78.125 C-157.81230469 77.29484375 -157.18710938 76.4646875 -156.54296875 75.609375 C-148.02898548 64.6604261 -137.81668951 53.8611646 -126.9140625 45.28125 C-124.10387936 43.24507424 -124.10387936 43.24507424 -123.5 39.5 C-123.24983294 36.13176992 -123.24983294 36.13176992 -124.4375 33.125 C-122.87652526 32.0186781 -121.31364673 30.91504215 -119.75 29.8125 C-118.87988281 29.19761719 -118.00976562 28.58273438 -117.11328125 27.94921875 C-112.064258 24.50703794 -112.064258 24.50703794 -109.4375 23.125 C-107.0625 23.9375 -107.0625 23.9375 -104.4375 25.125 C-98.65955746 25.66955517 -94.83437976 24.23097659 -89.875 21.5 C-88.45855688 20.75879593 -87.04055768 20.02055868 -85.62109375 19.28515625 C-84.91710449 18.91793457 -84.21311523 18.55071289 -83.48779297 18.17236328 C-70.43844705 11.50628874 -56.61266677 7.18506447 -42.375 3.9375 C-41.70436523 3.78265137 -41.03373047 3.62780273 -40.34277344 3.46826172 C-26.85190254 0.53726636 -13.73496738 -0.15110602 0 0 Z " fill="#DD6C2A" transform="translate(253.4375,14.875)"/>
<path d="M0 0 C0.66 -0.01289063 1.32 -0.02578125 2 -0.0390625 C5.23395286 1.03471091 6.27077435 2.73787876 8 5.625 C8.3416024 8.45045713 8.47325322 10.82219758 8.375 13.625 C8.37371094 14.32367188 8.37242187 15.02234375 8.37109375 15.7421875 C8.31665808 18.94784336 8.09052372 21.41838255 6.796875 24.37109375 C6.53390625 25.11488281 6.2709375 25.85867187 6 26.625 C7.07890859 28.7598379 7.07890859 28.7598379 8.875 30.6875 C12.87297796 36.18930454 13.02743208 41.01879199 12 47.625 C10.16459291 54.38881503 5.90760225 58.15838618 0 61.625 C-8.25799082 66.24144626 -17.09287273 67.0110073 -26.35546875 65.15234375 C-34.08685643 62.57521452 -41.14302192 57.8568339 -45 50.625 C-46.88576324 44.96771027 -47.16559523 38.66568322 -45.01171875 33.046875 C-40.31264171 25.26361501 -32.61631403 20.98771253 -24 18.625 C-20.67578125 18.39453125 -20.67578125 18.39453125 -17.3125 18.4375 C-16.19488281 18.44394531 -15.07726562 18.45039063 -13.92578125 18.45703125 C-11 18.625 -11 18.625 -8 19.625 C-8.04640625 18.67238281 -8.0928125 17.71976563 -8.140625 16.73828125 C-8.17671875 15.48402344 -8.2128125 14.22976562 -8.25 12.9375 C-8.29640625 11.69613281 -8.3428125 10.45476562 -8.390625 9.17578125 C-7.82789764 4.06058953 -5.62169577 -0.10979875 0 0 Z " fill="#FEA1AB" transform="translate(190,200.375)"/>
<path d="M0 0 C2.203125 1.546875 2.203125 1.546875 4 4 C4.2911521 6.73682971 4.38322418 9.03940039 4.25 11.75 C4.23195313 12.44738281 4.21390625 13.14476562 4.1953125 13.86328125 C4.14838554 15.57611539 4.07664605 17.28823824 4 19 C4.99 18.67 5.98 18.34 7 18 C16.79212426 17.15153469 25.42717554 18.03147349 33.578125 23.8359375 C38.60785403 28.07064485 42.43587241 31.79173786 43.33984375 38.53515625 C43.72509293 45.36628198 42.50663652 49.83661745 38 55 C30.8136671 62.35345692 23.52058452 65.09530671 13.3125 65.3125 C3.69566052 65.21201056 -3.31183232 62.56718382 -10.3046875 55.9140625 C-14.67292571 50.98218065 -16.75150315 45.93225291 -16.46484375 39.3046875 C-15.6033306 35.03331978 -13.29600924 31.63882676 -11 28 C-10.31781207 26.67454089 -9.64605868 25.34343977 -9 24 C-9.66 23.01 -10.32 22.02 -11 21 C-11.24811058 18.14095836 -11.37019957 15.42115622 -11.375 12.5625 C-11.39949219 11.79873047 -11.42398437 11.03496094 -11.44921875 10.24804688 C-11.46876013 6.50587325 -11.43170915 4.59897309 -9.1953125 1.49609375 C-5.97675472 -0.6973362 -3.80145683 -0.54306526 0 0 Z " fill="#FEA1AC" transform="translate(319,201)"/>
<path d="M0 0 C10.92509481 -0.83681577 19.23338303 2.50309148 27.70703125 9.38671875 C34.41613583 15.4234512 39.3171142 24.29428537 40.23828125 33.33984375 C40.5458652 44.10528193 37.9631418 53.83474486 30.84375 62.0703125 C30.2353125 62.70710938 29.626875 63.34390625 29 64 C28.4534375 64.57492188 27.906875 65.14984375 27.34375 65.7421875 C22.44199174 70.38960924 15.85871519 74 9 74 C8.98541748 73.09983154 8.97083496 72.19966309 8.95581055 71.2722168 C8.55242066 48.95178506 7.05839051 28.37057429 0.98828125 6.78125 C0 3 0 3 0 0 Z " fill="#FAC7BA" transform="translate(424,181)"/>
<path d="M0 0 C-0.38091797 1.56234375 -0.38091797 1.56234375 -0.76953125 3.15625 C-3.15781155 13.05654562 -5.29266153 22.95922373 -7 33 C-7.1959375 34.12921875 -7.391875 35.2584375 -7.59375 36.421875 C-9.50735018 48.86027616 -9.64891172 61.4393173 -10 74 C-19.33861874 72.83436689 -27.1802488 67.28953531 -33 60 C-39.61649301 50.09285754 -41.43783501 40.0714318 -39.5703125 28.2890625 C-36.90972488 17.87663934 -30.14626989 9.49943181 -21 4 C-14.00622726 0.54919266 -7.75557669 -0.60564156 0 0 Z " fill="#F6B8AC" transform="translate(82,181)"/>
<path d="M0 0 C1.29658377 3.35228626 2.5863673 6.70715014 3.875 10.0625 C4.42220703 11.47692383 4.42220703 11.47692383 4.98046875 12.91992188 C8.99018995 23.38164902 12.42893861 33.66252702 9.16015625 44.8828125 C5.85800203 52.1542228 0.7350241 57.54694922 -6.6484375 60.66015625 C-12.13194322 62.61240913 -17.61712977 62.46587705 -23.37304688 62.52734375 C-24.18451172 62.54925781 -24.99597656 62.57117188 -25.83203125 62.59375 C-26.56139893 62.60083984 -27.2907666 62.60792969 -28.04223633 62.61523438 C-30.5945048 63.11683995 -31.44363252 63.93846242 -33 66 C-33.495 67.98 -33.495 67.98 -34 70 C-40.93 70 -47.86 70 -55 70 C-55.33 68.02 -55.66 66.04 -56 64 C-58.95508447 63.16628641 -61.70109613 62.82110466 -64.765625 62.68359375 C-65.65507812 62.64169922 -66.54453125 62.59980469 -67.4609375 62.55664062 C-68.84152344 62.49766602 -68.84152344 62.49766602 -70.25 62.4375 C-71.18585938 62.39431641 -72.12171875 62.35113281 -73.0859375 62.30664062 C-75.39048641 62.2008195 -77.69513839 62.09873443 -80 62 C-76.54699682 59.69799788 -73.97363009 59.22437251 -69.91015625 58.4140625 C-69.21039169 58.27100677 -68.51062714 58.12795105 -67.78965759 57.9805603 C-64.80831871 57.37108298 -61.82406661 56.77656054 -58.83959961 56.18261719 C-34.33781435 51.35165897 -34.33781435 51.35165897 -15.69140625 35.66015625 C-9.71017014 26.25317753 -8.88764525 17.32935095 -8.76953125 6.3984375 C-8 3 -8 3 -5.07421875 1.0390625 C-2 0 -2 0 0 0 Z " fill="#586AD5" transform="translate(404,435)"/>
<path d="M0 0 C2.9719385 1.12451727 5.33440687 2.22293791 8 4 C8.40625 7.125 8.40625 7.125 8.5 11 C9.04627417 23.30654641 12.51260935 34.1909354 21.75 42.8125 C31.95795033 50.7806258 43.36945923 53.04140196 55.75 55.75 C57.53281222 56.15118951 59.31536698 56.55352488 61.09765625 56.95703125 C71.00493019 59.20043344 71.00493019 59.20043344 81 61 C81 61.33 81 61.66 81 62 C71.91556501 62.11629942 62.83138972 62.20491922 53.74637032 62.25906086 C49.52693343 62.28505782 45.30800914 62.32027193 41.08886719 62.37719727 C37.01042583 62.43187439 32.93247476 62.46149484 28.85369492 62.47438622 C27.30445522 62.48356261 25.75523971 62.50148103 24.20621109 62.52865028 C14.16966352 62.69754535 5.54958065 62.255017 -2.13278198 54.98042297 C-8.25326713 48.47601677 -10.57222228 42.63418165 -10.55957031 33.67553711 C-10.17320057 21.94815687 -5.0262474 10.43912921 0 0 Z " fill="#586AD5" transform="translate(102,435)"/>
<path d="M0 0 C1.23492187 -0.03738281 2.46984375 -0.07476562 3.7421875 -0.11328125 C7.125 0.3125 7.125 0.3125 9.30541992 1.95654297 C11.63034839 4.9668153 11.62758086 6.65837527 11.62109375 10.43359375 C11.62173828 11.61630859 11.62238281 12.79902344 11.62304688 14.01757812 C11.60306641 15.24927734 11.58308594 16.48097656 11.5625 17.75 C11.56958984 18.97783203 11.57667969 20.20566406 11.58398438 21.47070312 C11.51152311 31.71003658 11.51152311 31.71003658 8.125 36.3125 C3.90324366 38.42337817 -1.29104421 37.81799888 -5.875 37.3125 C-11.57675886 35.18579895 -14.97392763 31.65047315 -17.875 26.3125 C-19.48521592 21.48185225 -19.83302887 16.1646888 -18.19140625 11.27734375 C-14.10757725 3.56721016 -8.50420446 0.16796246 0 0 Z " fill="#FBC8BB" transform="translate(384.875,387.6875)"/>
<path d="M0 0 C5.71283847 0.77218989 9.04722275 2.98920181 12.859375 7.203125 C16.61557666 12.34703449 17.21832131 17.2122381 16.265625 23.44140625 C13.93294435 29.94835754 9.38159415 34.35297233 3.265625 37.44140625 C0.07421875 37.91015625 0.07421875 37.91015625 -3.296875 37.94140625 C-4.96943359 37.9878125 -4.96943359 37.9878125 -6.67578125 38.03515625 C-9.734375 37.44140625 -9.734375 37.44140625 -11.89233398 35.30883789 C-14.08054702 31.9025341 -14.24945323 29.98830096 -14.265625 25.96875 C-14.27078125 24.73962891 -14.2759375 23.51050781 -14.28125 22.24414062 C-14.26578125 20.96861328 -14.2503125 19.69308594 -14.234375 18.37890625 C-14.24984375 17.09951172 -14.2653125 15.82011719 -14.28125 14.50195312 C-14.27609375 13.27412109 -14.2709375 12.04628906 -14.265625 10.78125 C-14.26111328 9.66097412 -14.25660156 8.54069824 -14.25195312 7.38647461 C-12.85424069 -0.56664102 -6.73956658 -0.23422261 0 0 Z " fill="#FBC8BB" transform="translate(123.734375,387.55859375)"/>
<path d="M0 0 C0.9075 0.845625 1.815 1.69125 2.75 2.5625 C5.54454564 5.14670349 7.7251776 5.44007333 11.5 5.5625 C16.38393665 5.34351914 19.21505184 4.21720594 23 1 C26 -1 26 -1 29.5 -0.875 C33 0 33 0 35 1.625 C36.55164303 5.31015219 36.22738072 7.18865988 35 11 C29.67906356 17.7464393 21.97846253 21.03669291 13.6484375 22.37890625 C5.48624228 22.82595228 -1.49121348 19.58150938 -7.5625 14.3125 C-11.98190237 10.15986236 -11.98190237 10.15986236 -12.375 6.6875 C-12 3 -12 3 -9.9375 0.5 C-6.01951428 -1.50067356 -4.19401899 -1.25084777 0 0 Z " fill="#070605" transform="translate(241,213)"/>
<path d="M0 0 C3.30081857 0.96300273 4.29623516 2.68917852 6.03515625 5.59375 C6.42999392 8.4272909 6.59749173 10.77826429 6.53515625 13.59375 C6.550625 14.29242188 6.56609375 14.99109375 6.58203125 15.7109375 C6.55497394 19.29603144 6.10978665 21.46925665 4.2578125 24.55859375 C1.90061452 26.71694199 1.10185835 27.25874795 -2.02734375 27.15625 C-5.96484375 26.59375 -5.96484375 26.59375 -7.6875 25.15625 C-9.66082287 21.19753501 -9.39871979 17.39134772 -9.33984375 13.03125 C-9.35144531 12.16822266 -9.36304688 11.30519531 -9.375 10.41601562 C-9.37113281 9.58650391 -9.36726562 8.75699219 -9.36328125 7.90234375 C-9.35989746 7.14751709 -9.35651367 6.39269043 -9.35302734 5.61499023 C-8.35578827 0.4224479 -4.74706825 0.21951761 0 0 Z " fill="#070505" transform="translate(191.96484375,200.40625)"/>
<path d="M0 0 C2.1875 1.46875 2.1875 1.46875 4 4 C4.58790498 7.01188241 4.55865552 9.940137 4.5 13 C4.51546875 13.80695313 4.5309375 14.61390625 4.546875 15.4453125 C4.52159961 19.2745336 4.46201833 21.35576323 2.1875 24.52734375 C-1.05723844 26.71174802 -3.18603091 26.61295932 -7 26 C-10.05774483 23.20434759 -11.24449963 20.98859774 -11.53125 16.93359375 C-11.54179492 15.43489673 -11.53086866 13.93591619 -11.5 12.4375 C-11.51546875 11.68275391 -11.5309375 10.92800781 -11.546875 10.15039062 C-11.52176226 6.58752119 -11.30426908 4.41902573 -9.1875 1.50390625 C-5.97613157 -0.70390955 -3.80211705 -0.54315958 0 0 Z " fill="#040303" transform="translate(319,201)"/>
</svg>
